SplineFontDB: 3.0
FontName: Buenard-Regular
FullName: Buenard
FamilyName: Buenard
Weight: Book
Copyright: Copyright (c) 2010 by Gustavo Ibarra. All rights reserved.
Version: 001.000
ItalicAngle: 0
UnderlinePosition: -50
UnderlineWidth: 50
Ascent: 800
Descent: 200
sfntRevision: 0x00010000
LayerCount: 2
Layer: 0 1 "Back"  1
Layer: 1 1 "Fore"  0
XUID: [1021 426 1983807448 5130125]
FSType: 0
OS2Version: 2
OS2_WeightWidthSlopeOnly: 0
OS2_UseTypoMetrics: 1
CreationTime: 1324165729
ModificationTime: 1324194836
PfmFamily: 17
TTFWeight: 400
TTFWidth: 5
LineGap: 0
VLineGap: 0
Panose: 2 0 0 0 0 0 0 0 0 0
OS2TypoAscent: 56
OS2TypoAOffset: 1
OS2TypoDescent: -60
OS2TypoDOffset: 1
OS2TypoLinegap: 0
OS2WinAscent: 5
OS2WinAOffset: 1
OS2WinDescent: 0
OS2WinDOffset: 1
HheadAscent: 5
HheadAOffset: 1
HheadDescent: 0
HheadDOffset: 1
OS2SubXSize: 700
OS2SubYSize: 650
OS2SubXOff: 0
OS2SubYOff: 140
OS2SupXSize: 700
OS2SupYSize: 650
OS2SupXOff: 0
OS2SupYOff: 477
OS2StrikeYSize: 50
OS2StrikeYPos: 250
OS2Vendor: 'PYRS'
OS2CodePages: 00000001.00000000
OS2UnicodeRanges: 00000023.00000000.00000000.00000000
Lookup: 258 0 0 "'kern' Horizontal Kerning lookup 0"  {"'kern' Horizontal Kerning lookup 0 subtable"  } ['kern' ('DFLT' <'dflt' > ) ]
DEI: 91125
TtTable: prep
PUSHW_1
 511
SCANCTRL
PUSHB_1
 4
SCANTYPE
EndTTInstrs
ShortTable: maxp 16
  1
  0
  228
  78
  5
  0
  0
  2
  0
  1
  1
  0
  64
  0
  0
  0
EndShort
LangName: 1033 "" "" "" "GustavoIbarra: Buenard Regular: 2010" "" "001.000" "" "Buenard Regular is a trademark of Gustavo Ibarra." "Gustavo Ibarra" "" "Copyright (c) 2010 by Gustavo Ibarra. All rights reserved." "" "" "This Font Software is licensed under the SIL Open Font License, Version 1.1. This license is available with a FAQ at: http://scripts.sil.org/OFL" "http://scripts.sil.org/OFL" 
GaspTable: 1 65535 15 1
Encoding: UnicodeBmp
UnicodeInterp: none
NameList: Adobe Glyph List
DisplaySize: -24
AntiAlias: 1
FitToEm: 1
BeginChars: 65544 228

StartChar: exclam
Encoding: 33 33 4
Width: 253
GlyphClass: 2
Flags: W
LayerCount: 2
Fore
SplineSet
182 46 m 128,-1,1
 182 22 182 22 167 7 c 128,-1,2
 152 -8 152 -8 126.5 -8 c 128,-1,3
 101 -8 101 -8 85 7.5 c 128,-1,4
 69 23 69 23 69 46 c 128,-1,5
 69 69 69 69 85 84.5 c 128,-1,6
 101 100 101 100 126 100 c 128,-1,7
 151 100 151 100 166.5 85 c 128,-1,0
 182 70 182 70 182 46 c 128,-1,1
76 660 m 1,8,-1
 89 676 l 1,9,10
 106 676 106 676 141.5 670 c 128,-1,11
 177 664 177 664 185 658 c 1,12,13
 144 206 144 206 144 201 c 1,14,-1
 115 193 l 1,15,-1
 103 200 l 1,16,-1
 96 358 l 1,17,-1
 76 660 l 1,8,-1
EndSplineSet
EndChar

StartChar: quotedbl
Encoding: 34 34 5
Width: 338
GlyphClass: 2
Flags: W
LayerCount: 2
Fore
SplineSet
206 717 m 1,0,-1
 220 728 l 1,1,2
 236 728 236 728 260 722.5 c 128,-1,3
 284 717 284 717 294 711 c 1,4,5
 294 660 294 660 255 477 c 1,6,-1
 227 472 l 1,7,-1
 217 479 l 1,8,-1
 206 717 l 1,0,-1
50 717 m 1,9,-1
 64 728 l 1,10,11
 80 728 80 728 104 722.5 c 128,-1,12
 128 717 128 717 138 711 c 1,13,14
 138 660 138 660 99 477 c 1,15,-1
 71 472 l 1,16,-1
 61 479 l 1,17,-1
 50 717 l 1,9,-1
EndSplineSet
EndChar

StartChar: numbersign
Encoding: 35 35 6
Width: 541
GlyphClass: 2
Flags: W
LayerCount: 2
Fore
SplineSet
281 0 m 1,0,-1
 306 174 l 1,1,-1
 186 174 l 1,2,-1
 161 0 l 1,3,-1
 109 0 l 1,4,-1
 134 174 l 1,5,-1
 23 174 l 1,6,-1
 35 238 l 1,7,-1
 144 238 l 1,8,-1
 164 383 l 1,9,-1
 52 383 l 1,10,-1
 64 447 l 1,11,-1
 174 447 l 1,12,-1
 197 608 l 1,13,-1
 250 608 l 1,14,-1
 226 447 l 1,15,-1
 345 447 l 1,16,-1
 368 608 l 1,17,-1
 421 608 l 1,18,-1
 398 447 l 1,19,-1
 510 447 l 1,20,-1
 497 383 l 1,21,-1
 389 383 l 1,22,-1
 368 238 l 1,23,-1
 480 238 l 1,24,-1
 468 174 l 1,25,-1
 359 174 l 1,26,-1
 334 0 l 1,27,-1
 281 0 l 1,0,-1
216 383 m 1,28,-1
 196 238 l 1,29,-1
 315 238 l 1,30,-1
 336 383 l 1,31,-1
 216 383 l 1,28,-1
EndSplineSet
EndChar

StartChar: dollar
Encoding: 36 36 7
Width: 534
GlyphClass: 2
Flags: W
LayerCount: 2
Fore
SplineSet
301 592 m 1,0,1
 355 590 355 590 444 564 c 1,2,3
 436 479 436 479 421 422 c 1,4,-1
 389 418 l 1,5,6
 383 502 383 502 373 525 c 1,7,8
 348 542 348 542 300 547 c 1,9,-1
 294 363 l 1,10,11
 420 305 420 305 446 256 c 0,12,13
 459 231 459 231 459 200 c 0,14,15
 459 123 459 123 410.5 78.5 c 128,-1,16
 362 34 362 34 283 26 c 1,17,-1
 280 -57 l 1,18,-1
 242 -61 l 1,19,-1
 245 25 l 1,20,21
 164 26 164 26 81 59 c 1,22,23
 78 86 78 86 78 123.5 c 128,-1,24
 78 161 78 161 85 212 c 1,25,-1
 120 222 l 1,26,27
 130 80 130 80 246 70 c 1,28,-1
 253 284 l 1,29,30
 165 329 165 329 137 354 c 0,31,32
 95 392 95 392 95 442 c 0,33,34
 95 512 95 512 141.5 550 c 128,-1,35
 188 588 188 588 264 592 c 1,36,-1
 267 685 l 1,37,-1
 305 690 l 1,38,-1
 301 592 l 1,0,1
373 167 m 0,39,40
 373 220 373 220 291 265 c 1,41,-1
 284 70 l 1,42,43
 325 75 325 75 349 100.5 c 128,-1,44
 373 126 373 126 373 167 c 0,39,40
174 469 m 0,45,46
 174 423 174 423 257 381 c 1,47,-1
 262 549 l 1,48,49
 174 544 174 544 174 469 c 0,45,46
EndSplineSet
EndChar

StartChar: percent
Encoding: 37 37 8
Width: 784
GlyphClass: 2
Flags: W
LayerCount: 2
Fore
SplineSet
174 -16 m 1,0,-1
 544 610 l 1,1,-1
 610 610 l 1,2,-1
 240 -16 l 1,3,-1
 174 -16 l 1,0,-1
310 569 m 128,-1,5
 353 527 353 527 353 459 c 128,-1,6
 353 391 353 391 309.5 347 c 128,-1,7
 266 303 266 303 197.5 303 c 128,-1,8
 129 303 129 303 85.5 345.5 c 128,-1,9
 42 388 42 388 42 456 c 128,-1,10
 42 524 42 524 85.5 567.5 c 128,-1,11
 129 611 129 611 198 611 c 128,-1,4
 267 611 267 611 310 569 c 128,-1,5
255 374 m 128,-1,13
 278 402 278 402 278 457 c 128,-1,14
 278 512 278 512 254.5 540 c 128,-1,15
 231 568 231 568 197.5 568 c 128,-1,16
 164 568 164 568 140.5 540 c 128,-1,17
 117 512 117 512 117 457.5 c 128,-1,18
 117 403 117 403 140.5 374.5 c 128,-1,19
 164 346 164 346 198 346 c 128,-1,12
 232 346 232 346 255 374 c 128,-1,13
699 249 m 128,-1,21
 742 207 742 207 742 139 c 128,-1,22
 742 71 742 71 698.5 27 c 128,-1,23
 655 -17 655 -17 586.5 -17 c 128,-1,24
 518 -17 518 -17 474.5 25.5 c 128,-1,25
 431 68 431 68 431 136 c 128,-1,26
 431 204 431 204 474.5 247.5 c 128,-1,27
 518 291 518 291 587 291 c 128,-1,20
 656 291 656 291 699 249 c 128,-1,21
644 54 m 128,-1,29
 667 82 667 82 667 137 c 128,-1,30
 667 192 667 192 643.5 220 c 128,-1,31
 620 248 620 248 586.5 248 c 128,-1,32
 553 248 553 248 529.5 220 c 128,-1,33
 506 192 506 192 506 137 c 128,-1,34
 506 82 506 82 529.5 54 c 128,-1,35
 553 26 553 26 587 26 c 128,-1,28
 621 26 621 26 644 54 c 128,-1,29
EndSplineSet
EndChar

StartChar: ampersand
Encoding: 38 38 9
Width: 629
GlyphClass: 2
Flags: W
LayerCount: 2
Fore
SplineSet
496 -7 m 2,0,1
 482 -7 482 -7 422 51 c 1,2,3
 348 -16 348 -16 256.5 -16 c 128,-1,4
 165 -16 165 -16 103.5 25 c 128,-1,5
 42 66 42 66 42 147 c 0,6,7
 42 268 42 268 174 320 c 1,8,9
 107 387 107 387 107 455.5 c 128,-1,10
 107 524 107 524 154 567 c 128,-1,11
 201 610 201 610 264.5 610 c 128,-1,12
 328 610 328 610 374.5 574.5 c 128,-1,13
 421 539 421 539 421 482 c 128,-1,14
 421 425 421 425 378.5 382 c 128,-1,15
 336 339 336 339 282 329 c 1,16,-1
 452 147 l 1,17,18
 477 186 477 186 477 228.5 c 128,-1,19
 477 271 477 271 452 317 c 1,20,-1
 479 335 l 1,21,22
 540 285 540 285 571 244 c 1,23,24
 546 202 546 202 480 118 c 1,25,26
 540 59 540 59 560 46 c 1,27,28
 588 25 588 25 641 25 c 1,29,-1
 636 -7 l 1,30,-1
 496 -7 l 2,0,1
131 162 m 0,31,32
 131 107 131 107 169.5 67.5 c 128,-1,33
 208 28 208 28 269.5 28 c 128,-1,34
 331 28 331 28 393 81 c 1,35,36
 378 97 378 97 199 293 c 1,37,38
 131 246 131 246 131 162 c 0,31,32
189 488 m 0,39,40
 189 435 189 435 256 358 c 1,41,42
 286 367 286 367 310.5 400.5 c 128,-1,43
 335 434 335 434 335 474.5 c 128,-1,44
 335 515 335 515 313 541 c 128,-1,45
 291 567 291 567 258.5 567 c 128,-1,46
 226 567 226 567 207.5 544.5 c 128,-1,47
 189 522 189 522 189 488 c 0,39,40
EndSplineSet
EndChar

StartChar: quotesingle
Encoding: 39 39 10
Width: 182
GlyphClass: 2
Flags: W
LayerCount: 2
Fore
SplineSet
50 717 m 1,0,-1
 64 728 l 1,1,2
 80 728 80 728 104 722.5 c 128,-1,3
 128 717 128 717 138 711 c 1,4,5
 138 660 138 660 99 477 c 1,6,-1
 71 472 l 1,7,-1
 61 479 l 1,8,-1
 50 717 l 1,0,-1
EndSplineSet
EndChar

StartChar: parenleft
Encoding: 40 40 11
Width: 323
GlyphClass: 2
Flags: W
LayerCount: 2
Fore
SplineSet
193.5 479 m 128,-1,1
 166 385 166 385 166 248.5 c 128,-1,2
 166 112 166 112 194.5 16 c 128,-1,3
 223 -80 223 -80 292 -150 c 1,4,-1
 269 -170 l 1,5,6
 181 -105 181 -105 129 5.5 c 128,-1,7
 77 116 77 116 77 249 c 128,-1,8
 77 382 77 382 129 492 c 128,-1,9
 181 602 181 602 269 666 c 1,10,-1
 289 643 l 1,11,0
 221 573 221 573 193.5 479 c 128,-1,1
EndSplineSet
EndChar

StartChar: parenright
Encoding: 41 41 12
Width: 323
GlyphClass: 2
Flags: W
LayerCount: 2
Fore
SplineSet
194 492 m 128,-1,1
 246 382 246 382 246 249 c 128,-1,2
 246 116 246 116 194 5.5 c 128,-1,3
 142 -105 142 -105 54 -170 c 1,4,-1
 31 -150 l 1,5,6
 100 -80 100 -80 128.5 16 c 128,-1,7
 157 112 157 112 157 248.5 c 128,-1,8
 157 385 157 385 129.5 479 c 128,-1,9
 102 573 102 573 34 643 c 1,10,-1
 54 666 l 1,11,0
 142 602 142 602 194 492 c 128,-1,1
EndSplineSet
EndChar

StartChar: asterisk
Encoding: 42 42 13
Width: 417
GlyphClass: 2
Flags: W
LayerCount: 2
Fore
SplineSet
365 627 m 1,0,1
 375 606 375 606 375 588 c 128,-1,2
 375 570 375 570 374 562 c 1,3,4
 344 552 344 552 245 542 c 1,5,6
 301 490 301 490 338 450 c 1,7,-1
 328 429 l 1,8,9
 308 409 308 409 269 401 c 1,10,11
 251 424 251 424 210 516 c 1,12,13
 182 451 182 451 152 401 c 1,14,-1
 129 402 l 1,15,16
 109 413 109 413 83 450 c 1,17,18
 111 485 111 485 176 542 c 1,19,20
 92 552 92 552 48 562 c 1,21,-1
 42 584 l 1,22,23
 49 613 49 613 74 643 c 1,24,25
 109 630 109 630 190 582 c 1,26,27
 174 653 174 653 169 712 c 1,28,-1
 188 723 l 1,29,30
 223 723 223 723 253 712 c 1,31,32
 253 668 253 668 232 582 c 1,33,34
 292 617 292 617 348 643 c 1,35,-1
 365 627 l 1,0,1
EndSplineSet
EndChar

StartChar: plus
Encoding: 43 43 14
Width: 460
GlyphClass: 2
Flags: W
LayerCount: 2
Fore
SplineSet
261 411 m 1,0,-1
 261 244 l 1,1,-1
 414 244 l 1,2,-1
 414 186 l 1,3,-1
 261 186 l 1,4,-1
 261 15 l 1,5,-1
 199 15 l 1,6,-1
 199 186 l 1,7,-1
 46 186 l 1,8,-1
 46 244 l 1,9,-1
 199 244 l 1,10,-1
 199 411 l 1,11,-1
 261 411 l 1,0,-1
EndSplineSet
EndChar

StartChar: comma
Encoding: 44 44 15
Width: 239
GlyphClass: 2
Flags: W
LayerCount: 2
Fore
SplineSet
170 85.5 m 128,-1,1
 197 63 197 63 197 26.5 c 128,-1,2
 197 -10 197 -10 156 -74 c 128,-1,3
 115 -138 115 -138 76 -178 c 1,4,-1
 52 -159 l 1,5,6
 122 -63 122 -63 122 -11 c 0,7,8
 122 16 122 16 56 21 c 1,9,-1
 48 41 l 1,10,11
 57 57 57 57 77.5 78.5 c 128,-1,12
 98 100 98 100 114 111 c 1,13,0
 143 108 143 108 170 85.5 c 128,-1,1
EndSplineSet
EndChar

StartChar: hyphen
Encoding: 45 45 16
Width: 304
GlyphClass: 2
Flags: W
LayerCount: 2
Fore
SplineSet
35 192 m 1,0,-1
 46 257 l 1,1,-1
 268 257 l 1,2,-1
 258 192 l 1,3,-1
 35 192 l 1,0,-1
EndSplineSet
EndChar

StartChar: period
Encoding: 46 46 17
Width: 205
GlyphClass: 2
Flags: W
LayerCount: 2
Fore
SplineSet
40 51 m 128,-1,1
 40 77 40 77 56.5 93.5 c 128,-1,2
 73 110 73 110 101.5 110 c 128,-1,3
 130 110 130 110 147.5 93.5 c 128,-1,4
 165 77 165 77 165 51 c 128,-1,5
 165 25 165 25 147.5 8.5 c 128,-1,6
 130 -8 130 -8 102 -8 c 128,-1,7
 74 -8 74 -8 57 8.5 c 128,-1,0
 40 25 40 25 40 51 c 128,-1,1
EndSplineSet
EndChar

StartChar: slash
Encoding: 47 47 18
Width: 441
GlyphClass: 2
Flags: W
LayerCount: 2
Fore
SplineSet
23 -142 m 1,0,-1
 363 667 l 1,1,-1
 418 639 l 1,2,-1
 78 -170 l 1,3,-1
 23 -142 l 1,0,-1
EndSplineSet
EndChar

StartChar: zero
Encoding: 48 48 19
Width: 547
GlyphClass: 2
Flags: W
LayerCount: 2
Fore
SplineSet
444.5 378.5 m 128,-1,1
 510 317 510 317 510 216 c 128,-1,2
 510 115 510 115 444 50.5 c 128,-1,3
 378 -14 378 -14 273 -14 c 128,-1,4
 168 -14 168 -14 102.5 48.5 c 128,-1,5
 37 111 37 111 37 211.5 c 128,-1,6
 37 312 37 312 103.5 376 c 128,-1,7
 170 440 170 440 274.5 440 c 128,-1,0
 379 440 379 440 444.5 378.5 c 128,-1,1
416 214 m 128,-1,9
 416 302 416 302 375 347 c 128,-1,10
 334 392 334 392 273.5 392 c 128,-1,11
 213 392 213 392 172 347 c 128,-1,12
 131 302 131 302 131 213.5 c 128,-1,13
 131 125 131 125 172 79.5 c 128,-1,14
 213 34 213 34 273.5 34 c 128,-1,15
 334 34 334 34 375 80 c 128,-1,8
 416 126 416 126 416 214 c 128,-1,9
EndSplineSet
EndChar

StartChar: one
Encoding: 49 49 20
Width: 303
GlyphClass: 2
Flags: W
LayerCount: 2
Fore
SplineSet
196 71 m 2,0,1
 196 48 196 48 214 40 c 0,2,3
 230 32 230 32 283 24 c 1,4,-1
 276 -7 l 1,5,6
 224 0 224 0 153 0 c 128,-1,7
 82 0 82 0 30 -7 c 1,8,-1
 23 24 l 1,9,10
 76 31 76 31 95 39.5 c 128,-1,11
 114 48 114 48 114 71 c 2,12,-1
 114 337 l 2,13,14
 114 357 114 357 106.5 365 c 128,-1,15
 99 373 99 373 80 373 c 2,16,-1
 28 373 l 1,17,-1
 22 397 l 1,18,19
 97 426 97 426 180 440 c 1,20,-1
 196 424 l 1,21,-1
 196 71 l 2,0,1
EndSplineSet
EndChar

StartChar: two
Encoding: 50 50 21
Width: 445
GlyphClass: 2
Flags: W
LayerCount: 2
Fore
SplineSet
115 384 m 1,0,1
 106 362 106 362 106 330.5 c 128,-1,2
 106 299 106 299 107 278 c 1,3,-1
 75 272 l 1,4,5
 67 290 67 290 56.5 334.5 c 128,-1,6
 46 379 46 379 44 400 c 1,7,8
 146 440 146 440 208 440 c 128,-1,9
 270 440 270 440 315 410 c 128,-1,10
 360 380 360 380 360 318 c 0,11,12
 360 282 360 282 342 249.5 c 128,-1,13
 324 217 324 217 305.5 199.5 c 128,-1,14
 287 182 287 182 246 148 c 1,15,16
 211 121 211 121 131 66 c 1,17,-1
 135 57 l 1,18,-1
 316 57 l 1,19,20
 327 68 327 68 347 100 c 128,-1,21
 367 132 367 132 371 148 c 1,22,-1
 403 141 l 1,23,24
 402 126 402 126 391.5 73 c 128,-1,25
 381 20 381 20 375 0 c 1,26,-1
 50 0 l 1,27,-1
 44 47 l 1,28,29
 206 174 206 174 249 244 c 0,30,31
 268 275 268 275 268 313 c 128,-1,32
 268 351 268 351 247 375.5 c 128,-1,33
 226 400 226 400 185 400 c 128,-1,34
 144 400 144 400 115 384 c 1,0,1
EndSplineSet
EndChar

StartChar: three
Encoding: 51 51 22
Width: 435
GlyphClass: 2
Flags: W
LayerCount: 2
Fore
SplineSet
272 305 m 0,0,1
 272 400 272 400 186 400 c 0,2,3
 138 400 138 400 112 384 c 1,4,5
 104 361 104 361 104 330.5 c 128,-1,6
 104 300 104 300 105 278 c 1,7,-1
 73 272 l 1,8,9
 65 289 65 289 55 333.5 c 128,-1,10
 45 378 45 378 42 400 c 1,11,12
 144 440 144 440 207.5 440 c 128,-1,13
 271 440 271 440 314.5 410.5 c 128,-1,14
 358 381 358 381 358 326 c 128,-1,15
 358 271 358 271 319.5 232.5 c 128,-1,16
 281 194 281 194 230 178 c 1,17,-1
 230 169 l 1,18,19
 295 169 295 169 341.5 129.5 c 128,-1,20
 388 90 388 90 388 13 c 128,-1,21
 388 -64 388 -64 328.5 -117 c 128,-1,22
 269 -170 269 -170 189.5 -170 c 128,-1,23
 110 -170 110 -170 23 -139 c 1,24,25
 24 -119 24 -119 35.5 -70.5 c 128,-1,26
 47 -22 47 -22 55 -1 c 1,27,-1
 89 -7 l 1,28,29
 87 -35 87 -35 87 -65.5 c 128,-1,30
 87 -96 87 -96 93 -115 c 1,31,32
 127 -130 127 -130 176.5 -130 c 128,-1,33
 226 -130 226 -130 261 -93.5 c 128,-1,34
 296 -57 296 -57 296 0 c 0,35,36
 296 130 296 130 152 130 c 0,37,38
 141 130 141 130 129 129 c 1,39,-1
 131 168 l 1,40,41
 182 179 182 179 227 217 c 128,-1,42
 272 255 272 255 272 305 c 0,0,1
EndSplineSet
EndChar

StartChar: four
Encoding: 52 52 23
Width: 455
GlyphClass: 2
Flags: W
LayerCount: 2
Fore
SplineSet
352 0 m 1,0,-1
 352 -85 l 2,1,2
 352 -108 352 -108 370 -116 c 1,3,4
 385 -124 385 -124 419 -132 c 1,5,-1
 412 -163 l 1,6,7
 342 -156 342 -156 307 -156 c 128,-1,8
 272 -156 272 -156 186 -163 c 1,9,-1
 179 -132 l 1,10,11
 232 -125 232 -125 251 -116.5 c 128,-1,12
 270 -108 270 -108 270 -85 c 2,13,-1
 270 0 l 1,14,-1
 41 0 l 1,15,-1
 15 42 l 1,16,-1
 292 432 l 1,17,-1
 352 432 l 1,18,-1
 352 57 l 1,19,-1
 434 57 l 1,20,-1
 418 0 l 1,21,-1
 352 0 l 1,0,-1
270 57 m 1,22,-1
 270 326 l 1,23,-1
 266 327 l 1,24,-1
 257 304 l 1,25,-1
 87 66 l 1,26,-1
 92 57 l 1,27,-1
 270 57 l 1,22,-1
EndSplineSet
EndChar

StartChar: five
Encoding: 53 53 24
Width: 397
GlyphClass: 2
Flags: W
LayerCount: 2
Fore
SplineSet
178 208 m 0,0,1
 246 208 246 208 297 174 c 1,2,3
 367 129 367 129 367 25 c 0,4,5
 367 -59 367 -59 309.5 -114.5 c 128,-1,6
 252 -170 252 -170 170 -170 c 0,7,8
 110 -170 110 -170 8 -139 c 1,9,10
 10 -119 10 -119 22 -68 c 128,-1,11
 34 -17 34 -17 42 3 c 1,12,-1
 76 -4 l 1,13,14
 74 -38 74 -38 74 -68 c 128,-1,15
 74 -98 74 -98 78 -114 c 1,16,17
 119 -130 119 -130 165.5 -130 c 128,-1,18
 212 -130 212 -130 244 -91 c 128,-1,19
 276 -52 276 -52 276 9 c 0,20,21
 276 94 276 94 226 126 c 0,22,23
 190 149 190 149 137 149 c 0,24,25
 113 149 113 149 87 145 c 1,26,-1
 59 180 l 1,27,-1
 102 426 l 1,28,29
 291 439 291 439 312 443 c 128,-1,30
 333 447 333 447 347 454 c 1,31,-1
 354 444 l 1,32,33
 353 434 353 434 345 405 c 128,-1,34
 337 376 337 376 332 366 c 1,35,-1
 139 366 l 1,36,-1
 118 210 l 1,37,-1
 124 203 l 1,38,39
 152 208 152 208 178 208 c 0,0,1
EndSplineSet
EndChar

StartChar: six
Encoding: 54 54 25
Width: 460
GlyphClass: 2
Flags: W
LayerCount: 2
Fore
SplineSet
258 359 m 0,0,1
 338 359 338 359 382.5 312 c 128,-1,2
 427 265 427 265 427 181 c 128,-1,3
 427 97 427 97 371 41.5 c 128,-1,4
 315 -14 315 -14 236 -14 c 0,5,6
 140 -14 140 -14 90 53 c 128,-1,7
 40 120 40 120 40 218 c 128,-1,8
 40 316 40 316 68.5 388.5 c 128,-1,9
 97 461 97 461 144 508 c 1,10,11
 243 604 243 604 373 610 c 1,12,-1
 376 578 l 1,13,14
 257 561 257 561 194.5 473 c 128,-1,15
 132 385 132 385 132 230 c 0,16,17
 132 158 132 158 154 97 c 0,18,19
 166 66 166 66 188 47.5 c 128,-1,20
 210 29 210 29 240 29 c 0,21,22
 291 29 291 29 315 67.5 c 128,-1,23
 339 106 339 106 339 168.5 c 128,-1,24
 339 231 339 231 314 273 c 128,-1,25
 289 315 289 315 242 315 c 128,-1,26
 195 315 195 315 154 288 c 1,27,-1
 151 304 l 1,28,29
 177 339 177 339 199.5 349 c 128,-1,30
 222 359 222 359 258 359 c 0,0,1
EndSplineSet
EndChar

StartChar: seven
Encoding: 55 55 26
Width: 414
GlyphClass: 2
Flags: W
LayerCount: 2
Fore
SplineSet
33 270 m 1,0,1
 29 312 29 312 29 361 c 128,-1,2
 29 410 29 410 32 429 c 1,3,4
 72 424 72 424 126 424 c 2,5,-1
 388 424 l 1,6,-1
 410 393 l 1,7,8
 170 30 170 30 165 -156 c 1,9,10
 126 -170 126 -170 76 -170 c 1,11,-1
 67 -158 l 1,12,13
 79 3 79 3 333 358 c 1,14,-1
 328 365 l 1,15,-1
 87 365 l 1,16,17
 75 338 75 338 66 268 c 1,18,-1
 33 270 l 1,0,1
EndSplineSet
PairPos2: "'kern' Horizontal Kerning lookup 0 subtable" four dx=0 dy=0 dh=0 dv=0 dx=0 dy=0 dh=0 dv=0
EndChar

StartChar: eight
Encoding: 56 56 27
Width: 457
GlyphClass: 2
Flags: W
LayerCount: 2
Fore
SplineSet
92.5 359 m 128,-1,1
 61 399 61 399 61 458.5 c 128,-1,2
 61 518 61 518 112.5 564 c 128,-1,3
 164 610 164 610 232.5 610 c 128,-1,4
 301 610 301 610 346.5 575.5 c 128,-1,5
 392 541 392 541 392 484 c 128,-1,6
 392 427 392 427 360.5 388 c 128,-1,7
 329 349 329 349 287 333 c 1,8,-1
 285 326 l 1,9,10
 338 306 338 306 379 262 c 128,-1,11
 420 218 420 218 420 150 c 128,-1,12
 420 82 420 82 360.5 34 c 128,-1,13
 301 -14 301 -14 221 -14 c 128,-1,14
 141 -14 141 -14 89 25.5 c 128,-1,15
 37 65 37 65 37 142 c 0,16,17
 37 184 37 184 61.5 219 c 128,-1,18
 86 254 86 254 112 270 c 128,-1,19
 138 286 138 286 165 296 c 1,20,-1
 164 303 l 1,21,0
 124 319 124 319 92.5 359 c 128,-1,1
119 152 m 0,22,23
 119 98 119 98 148 63.5 c 128,-1,24
 177 29 177 29 227 29 c 128,-1,25
 277 29 277 29 306.5 58 c 128,-1,26
 336 87 336 87 336 131.5 c 128,-1,27
 336 176 336 176 302.5 207.5 c 128,-1,28
 269 239 269 239 206 274 c 0,29,30
 204 275 204 275 199.5 277 c 128,-1,31
 195 279 195 279 193 281 c 1,32,33
 119 231 119 231 119 152 c 0,22,23
319 468 m 0,34,35
 319 514 319 514 294 540 c 128,-1,36
 269 566 269 566 227.5 566 c 128,-1,37
 186 566 186 566 162 541 c 128,-1,38
 138 516 138 516 138 476.5 c 128,-1,39
 138 437 138 437 168.5 407 c 128,-1,40
 199 377 199 377 254 347 c 1,41,42
 319 402 319 402 319 468 c 0,34,35
EndSplineSet
EndChar

StartChar: nine
Encoding: 57 57 28
Width: 460
GlyphClass: 2
Flags: W
LayerCount: 2
Fore
SplineSet
323 112 m 1,0,1
 265 72 265 72 195.5 72 c 128,-1,2
 126 72 126 72 79.5 119.5 c 128,-1,3
 33 167 33 167 33 245.5 c 128,-1,4
 33 324 33 324 90.5 382 c 128,-1,5
 148 440 148 440 226 440 c 0,6,7
 323 440 323 440 371.5 372 c 128,-1,8
 420 304 420 304 420 206.5 c 128,-1,9
 420 109 420 109 390.5 39 c 128,-1,10
 361 -31 361 -31 312 -75 c 0,11,12
 212 -164 212 -164 78 -170 c 1,13,-1
 75 -138 l 1,14,15
 164 -126 164 -126 234 -65.5 c 128,-1,16
 304 -5 304 -5 323 112 c 1,0,1
146 156 m 128,-1,18
 171 115 171 115 224 115 c 128,-1,19
 277 115 277 115 327 158 c 1,20,21
 328 170 328 170 328 202.5 c 128,-1,22
 328 235 328 235 323.5 267 c 128,-1,23
 319 299 319 299 308 330 c 0,24,25
 283 396 283 396 227 396 c 0,26,27
 121 396 121 396 121 260 c 0,28,17
 121 197 121 197 146 156 c 128,-1,18
EndSplineSet
EndChar

StartChar: colon
Encoding: 58 58 29
Width: 253
GlyphClass: 2
Flags: W
LayerCount: 2
Fore
SplineSet
64 52 m 128,-1,1
 64 78 64 78 80.5 94.5 c 128,-1,2
 97 111 97 111 125.5 111 c 128,-1,3
 154 111 154 111 171.5 94.5 c 128,-1,4
 189 78 189 78 189 52 c 128,-1,5
 189 26 189 26 171.5 9.5 c 128,-1,6
 154 -7 154 -7 125.5 -7 c 128,-1,7
 97 -7 97 -7 80.5 9.5 c 128,-1,0
 64 26 64 26 64 52 c 128,-1,1
80.5 307.5 m 128,-1,9
 64 324 64 324 64 350.5 c 128,-1,10
 64 377 64 377 80.5 393.5 c 128,-1,11
 97 410 97 410 125.5 410 c 128,-1,12
 154 410 154 410 171.5 393.5 c 128,-1,13
 189 377 189 377 189 351 c 128,-1,14
 189 325 189 325 171.5 308 c 128,-1,15
 154 291 154 291 125.5 291 c 128,-1,8
 97 291 97 291 80.5 307.5 c 128,-1,9
EndSplineSet
EndChar

StartChar: semicolon
Encoding: 59 59 30
Width: 239
GlyphClass: 2
Flags: W
LayerCount: 2
Fore
SplineSet
170 85.5 m 128,-1,1
 197 63 197 63 197 26.5 c 128,-1,2
 197 -10 197 -10 156 -74 c 128,-1,3
 115 -138 115 -138 76 -178 c 1,4,-1
 52 -159 l 1,5,6
 122 -63 122 -63 122 -11 c 0,7,8
 122 16 122 16 56 21 c 1,9,-1
 48 41 l 1,10,11
 57 57 57 57 77.5 78.5 c 128,-1,12
 98 100 98 100 114 111 c 1,13,0
 143 108 143 108 170 85.5 c 128,-1,1
72.5 307.5 m 128,-1,15
 56 324 56 324 56 350.5 c 128,-1,16
 56 377 56 377 72.5 393.5 c 128,-1,17
 89 410 89 410 117.5 410 c 128,-1,18
 146 410 146 410 163.5 393.5 c 128,-1,19
 181 377 181 377 181 351 c 128,-1,20
 181 325 181 325 163.5 308 c 128,-1,21
 146 291 146 291 117.5 291 c 128,-1,14
 89 291 89 291 72.5 307.5 c 128,-1,15
EndSplineSet
EndChar

StartChar: less
Encoding: 60 60 31
Width: 469
GlyphClass: 2
Flags: W
LayerCount: 2
Fore
SplineSet
425 -16 m 1,0,-1
 44 184 l 1,1,-1
 44 232 l 1,2,-1
 425 432 l 1,3,-1
 425 365 l 1,4,-1
 120 208 l 1,5,-1
 425 51 l 1,6,-1
 425 -16 l 1,0,-1
EndSplineSet
EndChar

StartChar: equal
Encoding: 61 61 32
Width: 460
GlyphClass: 2
Flags: W
LayerCount: 2
Fore
SplineSet
410 261 m 1,0,-1
 50 261 l 1,1,-1
 50 319 l 1,2,-1
 410 319 l 1,3,-1
 410 261 l 1,0,-1
410 106 m 1,4,-1
 50 106 l 1,5,-1
 50 164 l 1,6,-1
 410 164 l 1,7,-1
 410 106 l 1,4,-1
EndSplineSet
EndChar

StartChar: greater
Encoding: 62 62 33
Width: 469
GlyphClass: 2
Flags: W
LayerCount: 2
Fore
SplineSet
425 184 m 1,0,-1
 44 -16 l 1,1,-1
 44 51 l 1,2,-1
 349 208 l 1,3,-1
 44 365 l 1,4,-1
 44 432 l 1,5,-1
 425 232 l 1,6,-1
 425 184 l 1,0,-1
EndSplineSet
EndChar

StartChar: question
Encoding: 63 63 34
Width: 432
GlyphClass: 2
Flags: W
LayerCount: 2
Fore
SplineSet
202.5 285 m 128,-1,1
 187 263 187 263 187 245.5 c 128,-1,2
 187 228 187 228 199 196 c 1,3,-1
 175 176 l 1,4,5
 128 220 128 220 110 267 c 1,6,7
 110 287 110 287 121.5 303.5 c 128,-1,8
 133 320 133 320 139.5 328.5 c 128,-1,9
 146 337 146 337 160 351 c 0,10,11
 188 379 188 379 205.5 394.5 c 128,-1,12
 223 410 223 410 228 415 c 0,13,14
 300 481 300 481 300 523.5 c 128,-1,15
 300 566 300 566 272 592 c 128,-1,16
 244 618 244 618 199.5 618 c 128,-1,17
 155 618 155 618 133.5 588.5 c 128,-1,18
 112 559 112 559 110 490 c 1,19,-1
 76 482 l 1,20,21
 50 571 50 571 50 612 c 1,22,23
 154 659 154 659 225.5 659 c 128,-1,24
 297 659 297 659 338.5 621.5 c 128,-1,25
 380 584 380 584 380 510 c 0,26,27
 380 482 380 482 363.5 453 c 128,-1,28
 347 424 347 424 330 407 c 128,-1,29
 313 390 313 390 281 363 c 128,-1,30
 249 336 249 336 233.5 321.5 c 128,-1,0
 218 307 218 307 202.5 285 c 128,-1,1
113 46 m 128,-1,32
 113 70 113 70 128.5 85 c 128,-1,33
 144 100 144 100 169.5 100 c 128,-1,34
 195 100 195 100 211 84.5 c 128,-1,35
 227 69 227 69 227 46 c 128,-1,36
 227 23 227 23 211 7.5 c 128,-1,37
 195 -8 195 -8 169.5 -8 c 128,-1,38
 144 -8 144 -8 128.5 7 c 128,-1,31
 113 22 113 22 113 46 c 128,-1,32
EndSplineSet
EndChar

StartChar: at
Encoding: 64 64 35
Width: 879
GlyphClass: 2
Flags: W
LayerCount: 2
Fore
SplineSet
520 -16 m 0,0,1
 487 -16 487 -16 487 24 c 0,2,3
 487 48 487 48 498 89 c 2,4,-1
 514 154 l 1,5,-1
 508 156 l 1,6,7
 423 31 423 31 370 0 c 0,8,9
 344 -16 344 -16 320 -16 c 0,10,11
 243 -16 243 -16 243 84 c 0,12,13
 243 170 243 170 284 250.5 c 128,-1,14
 325 331 325 331 392.5 381.5 c 128,-1,15
 460 432 460 432 533 432 c 0,16,17
 570 432 570 432 637 418 c 1,18,-1
 648 402 l 1,19,20
 635 371 635 371 627 337 c 2,21,-1
 572 99 l 1,22,23
 566 80 566 80 566 65.5 c 128,-1,24
 566 51 566 51 576.5 51 c 128,-1,25
 587 51 587 51 607 61 c 128,-1,26
 627 71 627 71 640 81 c 0,27,28
 697 122 697 122 735 175.5 c 128,-1,29
 773 229 773 229 773 281 c 0,30,31
 773 406 773 406 698.5 480 c 128,-1,32
 624 554 624 554 493 554 c 0,33,34
 337 554 337 554 233.5 452.5 c 128,-1,35
 130 351 130 351 130 192 c 128,-1,36
 130 33 130 33 213.5 -56.5 c 128,-1,37
 297 -146 297 -146 456 -146 c 0,38,39
 497 -146 497 -146 546.5 -129.5 c 128,-1,40
 596 -113 596 -113 630 -90 c 1,41,-1
 650 -114 l 1,42,43
 609 -151 609 -151 549 -177.5 c 128,-1,44
 489 -204 489 -204 433 -204 c 0,45,46
 251 -204 251 -204 149 -97 c 128,-1,47
 47 10 47 10 47 188 c 0,48,49
 47 306 47 306 110.5 403.5 c 128,-1,50
 174 501 174 501 279 555.5 c 128,-1,51
 384 610 384 610 504 610 c 0,52,53
 663 610 663 610 756.5 523 c 128,-1,54
 850 436 850 436 850 288 c 0,55,56
 850 239 850 239 785.5 169.5 c 128,-1,57
 721 100 721 100 645 49 c 1,58,59
 559 -16 559 -16 520 -16 c 0,0,1
559 374 m 1,60,61
 545 387 545 387 493 387 c 128,-1,62
 441 387 441 387 400.5 338.5 c 128,-1,63
 360 290 360 290 341.5 227 c 128,-1,64
 323 164 323 164 323 104.5 c 128,-1,65
 323 45 323 45 352.5 45 c 128,-1,66
 382 45 382 45 431 100.5 c 128,-1,67
 480 156 480 156 529 233 c 1,68,69
 538 254 538 254 547.5 302 c 128,-1,70
 557 350 557 350 559 374 c 1,60,61
EndSplineSet
EndChar

StartChar: A
Encoding: 65 65 36
Width: 650
GlyphClass: 2
Flags: W
LayerCount: 2
Fore
SplineSet
134 65 m 0,0,1
 134 45 134 45 159 38 c 1,2,-1
 218 25 l 1,3,-1
 212 -8 l 1,4,5
 157 0 157 0 108 0 c 128,-1,6
 59 0 59 0 3 -8 c 1,7,-1
 -4 25 l 1,8,9
 38 34 38 34 50 45.5 c 128,-1,10
 62 57 62 57 78 101 c 2,11,-1
 277 645 l 1,12,13
 321 655 321 655 353 674 c 1,14,-1
 568 101 l 2,15,16
 584 58 584 58 597 46 c 128,-1,17
 610 34 610 34 652 25 c 1,18,-1
 645 -8 l 1,19,20
 589 0 589 0 525.5 0 c 128,-1,21
 462 0 462 0 406 -8 c 1,22,-1
 400 25 l 1,23,24
 435 31 435 31 459 38.5 c 128,-1,25
 483 46 483 46 483 65 c 0,26,27
 483 72 483 72 480 79 c 2,28,-1
 423 237 l 1,29,-1
 190 237 l 1,30,-1
 136 79 l 2,31,32
 134 74 134 74 134 65 c 0,0,1
294 537 m 1,33,-1
 207 287 l 1,34,-1
 405 287 l 1,35,-1
 317 530 l 1,36,-1
 306 572 l 1,37,-1
 299 575 l 1,38,-1
 294 537 l 1,33,-1
EndSplineSet
EndChar

StartChar: B
Encoding: 66 66 37
Width: 593
GlyphClass: 2
Flags: W
LayerCount: 2
Fore
SplineSet
93 650 m 1,0,-1
 279 658 l 1,1,2
 511 658 511 658 511 510 c 0,3,4
 511 445 511 445 473 412.5 c 128,-1,5
 435 380 435 380 384 369 c 1,6,-1
 384 362 l 1,7,8
 453 358 453 358 505 315.5 c 128,-1,9
 557 273 557 273 557 184 c 128,-1,10
 557 95 557 95 486 43.5 c 128,-1,11
 415 -8 415 -8 309 -8 c 1,12,-1
 170 0 l 1,13,14
 124 0 124 0 57 -8 c 1,15,-1
 50 25 l 1,16,17
 90 30 90 30 107.5 37.5 c 128,-1,18
 125 45 125 45 125 69 c 2,19,-1
 125 578 l 2,20,21
 125 602 125 602 109 609 c 0,22,23
 96 615 96 615 50 622 c 1,24,-1
 57 653 l 1,25,26
 66 650 66 650 93 650 c 1,0,-1
214 324 m 1,27,-1
 214 81 l 2,28,29
 214 55 214 55 243 43.5 c 128,-1,30
 272 32 272 32 306 32 c 0,31,32
 370 32 370 32 413 69.5 c 128,-1,33
 456 107 456 107 456 180 c 0,34,35
 456 324 456 324 301 324 c 2,36,-1
 214 324 l 1,27,-1
214 366 m 1,37,-1
 277 366 l 2,38,39
 341 366 341 366 378.5 401 c 128,-1,40
 416 436 416 436 416 497.5 c 128,-1,41
 416 559 416 559 379.5 589 c 128,-1,42
 343 619 343 619 279 619 c 0,43,44
 242 619 242 619 214 612 c 1,45,-1
 214 366 l 1,37,-1
EndSplineSet
EndChar

StartChar: C
Encoding: 67 67 38
Width: 660
GlyphClass: 2
Flags: W
LayerCount: 2
Fore
SplineSet
385 -16 m 0,0,1
 236 -16 236 -16 141.5 69.5 c 128,-1,2
 47 155 47 155 47 308 c 128,-1,3
 47 461 47 461 141 563.5 c 128,-1,4
 235 666 235 666 393 666 c 0,5,6
 455 666 455 666 499 658 c 128,-1,7
 543 650 543 650 579 642.5 c 128,-1,8
 615 635 615 635 620 634 c 1,9,10
 610 525 610 525 593 463 c 1,11,-1
 559 457 l 1,12,13
 546 563 546 563 525 594 c 1,14,15
 477 620 477 620 373.5 620 c 128,-1,16
 270 620 270 620 209 541 c 128,-1,17
 148 462 148 462 148 335 c 128,-1,18
 148 208 148 208 216.5 119 c 128,-1,19
 285 30 285 30 395 30 c 0,20,21
 474 30 474 30 515.5 66.5 c 128,-1,22
 557 103 557 103 581 186 c 1,23,-1
 615 181 l 1,24,25
 614 106 614 106 594 17 c 1,26,27
 497 -16 497 -16 385 -16 c 0,0,1
EndSplineSet
EndChar

StartChar: D
Encoding: 68 68 39
Width: 750
GlyphClass: 2
Flags: W
LayerCount: 2
Fore
SplineSet
214 88 m 2,0,1
 214 36 214 36 342.5 36 c 128,-1,2
 471 36 471 36 536.5 115 c 128,-1,3
 602 194 602 194 602 334 c 0,4,5
 602 615 602 615 310 615 c 0,6,7
 250 615 250 615 214 606 c 1,8,-1
 214 88 l 2,0,1
95 652 m 2,9,-1
 329 660 l 1,10,11
 500 660 500 660 598 590 c 1,12,13
 703 517 703 517 703 353 c 128,-1,14
 703 189 703 189 611 90.5 c 128,-1,15
 519 -8 519 -8 357 -8 c 0,16,17
 311 -8 311 -8 248 -4 c 128,-1,18
 185 0 185 0 157 0 c 128,-1,19
 129 0 129 0 57 -8 c 1,20,-1
 50 25 l 1,21,22
 90 30 90 30 107.5 37.5 c 128,-1,23
 125 45 125 45 125 69 c 2,24,-1
 125 579 l 2,25,26
 125 592 125 592 122.5 596.5 c 128,-1,27
 120 601 120 601 110 606 c 0,28,29
 97 613 97 613 50 622 c 1,30,-1
 57 653 l 1,31,32
 72 652 72 652 95 652 c 2,9,-1
EndSplineSet
EndChar

StartChar: E
Encoding: 69 69 40
Width: 583
GlyphClass: 2
Flags: W
LayerCount: 2
Fore
SplineSet
214 312 m 1,0,-1
 214 48 l 1,1,-1
 444 48 l 1,2,3
 457 60 457 60 474.5 103.5 c 128,-1,4
 492 147 492 147 499 173 c 1,5,-1
 535 167 l 1,6,7
 534 139 534 139 527 79.5 c 128,-1,8
 520 20 520 20 514 0 c 1,9,-1
 170 0 l 2,10,11
 124 0 124 0 57 -8 c 1,12,-1
 50 25 l 1,13,14
 90 30 90 30 107.5 37.5 c 128,-1,15
 125 45 125 45 125 69 c 2,16,-1
 125 583 l 2,17,18
 125 607 125 607 109 613 c 1,19,20
 96 619 96 619 50 626 c 1,21,-1
 57 659 l 1,22,23
 133 650 133 650 170 650 c 2,24,-1
 421 650 l 2,25,26
 466 650 466 650 503 656 c 1,27,28
 506 620 506 620 506 581 c 128,-1,29
 506 542 506 542 503 501 c 1,30,-1
 466 495 l 1,31,32
 452 580 452 580 434 603 c 1,33,-1
 214 603 l 1,34,-1
 214 360 l 1,35,-1
 364 360 l 2,36,37
 392 360 392 360 397 375 c 1,38,39
 403 389 403 389 409 434 c 1,40,-1
 447 430 l 1,41,42
 439 380 439 380 439 336 c 128,-1,43
 439 292 439 292 447 242 c 1,44,-1
 409 238 l 1,45,46
 404 281 404 281 397.5 296.5 c 128,-1,47
 391 312 391 312 364 312 c 2,48,-1
 214 312 l 1,0,-1
EndSplineSet
EndChar

StartChar: F
Encoding: 70 70 41
Width: 512
GlyphClass: 2
Flags: W
LayerCount: 2
Fore
SplineSet
345 308 m 2,0,-1
 214 308 l 1,1,-1
 214 77 l 2,2,3
 214 62 214 62 218 54 c 128,-1,4
 222 46 222 46 236 42 c 1,5,-1
 319 28 l 1,6,-1
 312 -8 l 1,7,8
 242 0 242 0 186.5 0 c 128,-1,9
 131 0 131 0 57 -8 c 1,10,-1
 50 25 l 1,11,12
 90 30 90 30 107.5 37.5 c 128,-1,13
 125 45 125 45 125 69 c 2,14,-1
 125 583 l 2,15,16
 125 608 125 608 109 613 c 0,17,18
 83 622 83 622 50 626 c 1,19,-1
 57 659 l 1,20,21
 133 650 133 650 170 650 c 2,22,-1
 411 650 l 2,23,24
 455 650 455 650 493 656 c 1,25,26
 496 628 496 628 496 587.5 c 128,-1,27
 496 547 496 547 494 499 c 1,28,-1
 457 493 l 1,29,30
 438 585 438 585 423 603 c 1,31,-1
 214 603 l 1,32,-1
 214 356 l 1,33,-1
 345 356 l 2,34,35
 373 356 373 356 378 371 c 1,36,37
 384 385 384 385 390 430 c 1,38,-1
 428 426 l 1,39,40
 420 376 420 376 420 332 c 128,-1,41
 420 288 420 288 428 238 c 1,42,-1
 390 234 l 1,43,44
 385 277 385 277 378.5 292.5 c 128,-1,45
 372 308 372 308 345 308 c 2,0,-1
EndSplineSet
EndChar

StartChar: G
Encoding: 71 71 42
Width: 690
GlyphClass: 2
Flags: W
LayerCount: 2
Fore
SplineSet
514 202 m 2,0,1
 514 217 514 217 510 225 c 128,-1,2
 506 233 506 233 492 237 c 1,3,-1
 416 251 l 1,4,-1
 423 287 l 1,5,6
 493 279 493 279 557 279 c 128,-1,7
 621 279 621 279 658 287 c 1,8,-1
 664 254 l 1,9,10
 634 248 634 248 618.5 241 c 128,-1,11
 603 234 603 234 603 210 c 2,12,-1
 603 19 l 1,13,14
 511 -16 511 -16 385 -16 c 0,15,16
 236 -16 236 -16 141.5 69.5 c 128,-1,17
 47 155 47 155 47 308 c 128,-1,18
 47 461 47 461 141 563.5 c 128,-1,19
 235 666 235 666 393 666 c 0,20,21
 447 666 447 666 483 660 c 128,-1,22
 519 654 519 654 531.5 652 c 128,-1,23
 544 650 544 650 578 642.5 c 128,-1,24
 612 635 612 635 619 634 c 1,25,26
 609 535 609 535 593 473 c 1,27,-1
 559 467 l 1,28,29
 547 562 547 562 526 594 c 1,30,31
 478 620 478 620 374 620 c 128,-1,32
 270 620 270 620 209 541 c 128,-1,33
 148 462 148 462 148 335 c 128,-1,34
 148 208 148 208 216.5 119 c 128,-1,35
 285 30 285 30 395 30 c 0,36,37
 469 30 469 30 514 56 c 1,38,-1
 514 202 l 2,0,1
EndSplineSet
EndChar

StartChar: H
Encoding: 72 72 43
Width: 795
GlyphClass: 2
Flags: W
LayerCount: 2
Fore
SplineSet
581 364 m 1,0,-1
 581 580 l 2,1,2
 581 594 581 594 578.5 600 c 128,-1,3
 576 606 576 606 566 610 c 0,4,5
 548 619 548 619 497 625 c 1,6,-1
 504 658 l 1,7,8
 578 650 578 650 621 650 c 128,-1,9
 664 650 664 650 738 658 c 1,10,-1
 745 625 l 1,11,12
 679 617 679 617 672 602 c 0,13,14
 670 596 670 596 670 582 c 2,15,-1
 670 68 l 2,16,17
 670 54 670 54 672.5 48.5 c 128,-1,18
 675 43 675 43 684 38 c 1,19,20
 699 32 699 32 745 25 c 1,21,-1
 738 -8 l 1,22,23
 664 0 664 0 621 0 c 128,-1,24
 578 0 578 0 504 -8 c 1,25,-1
 497 25 l 1,26,27
 572 34 572 34 578 50 c 0,28,29
 581 56 581 56 581 70 c 2,30,-1
 581 311 l 1,31,-1
 214 311 l 1,32,-1
 214 70 l 2,33,34
 214 56 214 56 216.5 50 c 128,-1,35
 219 44 219 44 228 40 c 0,36,37
 247 31 247 31 298 25 c 1,38,-1
 291 -8 l 1,39,40
 217 0 217 0 174 0 c 128,-1,41
 131 0 131 0 57 -8 c 1,42,-1
 50 25 l 1,43,44
 116 33 116 33 122 48 c 0,45,46
 125 54 125 54 125 68 c 2,47,-1
 125 582 l 2,48,49
 125 596 125 596 122.5 601.5 c 128,-1,50
 120 607 120 607 110 612 c 0,51,52
 96 618 96 618 50 625 c 1,53,-1
 57 658 l 1,54,55
 131 650 131 650 174 650 c 128,-1,56
 217 650 217 650 291 658 c 1,57,-1
 298 625 l 1,58,59
 249 619 249 619 231.5 611.5 c 128,-1,60
 214 604 214 604 214 582 c 2,61,-1
 214 364 l 1,62,-1
 581 364 l 1,0,-1
EndSplineSet
EndChar

StartChar: I
Encoding: 73 73 44
Width: 339
GlyphClass: 2
Flags: W
LayerCount: 2
Fore
SplineSet
214 582 m 2,0,-1
 214 68 l 2,1,2
 214 54 214 54 216.5 48.5 c 128,-1,3
 219 43 219 43 228 38 c 1,4,5
 243 32 243 32 291 25 c 1,6,-1
 284 -8 l 1,7,8
 217 0 217 0 170.5 0 c 128,-1,9
 124 0 124 0 57 -8 c 1,10,-1
 50 25 l 1,11,12
 116 33 116 33 122 48 c 0,13,14
 125 54 125 54 125 68 c 2,15,-1
 125 582 l 2,16,17
 125 596 125 596 122.5 601.5 c 128,-1,18
 120 607 120 607 110 612 c 0,19,20
 96 618 96 618 50 625 c 1,21,-1
 57 658 l 1,22,23
 124 650 124 650 170.5 650 c 128,-1,24
 217 650 217 650 284 658 c 1,25,-1
 291 625 l 1,26,27
 224 617 224 617 216 602 c 1,28,29
 214 596 214 596 214 582 c 2,0,-1
EndSplineSet
EndChar

StartChar: J
Encoding: 74 74 45
Width: 303
GlyphClass: 2
Flags: W
LayerCount: 2
Fore
SplineSet
196 582 m 2,0,-1
 196 50 l 2,1,2
 196 -29 196 -29 179 -77 c 128,-1,3
 162 -125 162 -125 96 -189 c 2,4,-1
 24 -260 l 1,5,-1
 0 -235 l 1,6,7
 107 -111 107 -111 107 0 c 2,8,-1
 107 582 l 2,9,10
 107 596 107 596 104.5 601.5 c 128,-1,11
 102 607 102 607 92 612 c 0,12,13
 78 618 78 618 32 625 c 1,14,-1
 39 658 l 1,15,16
 106 650 106 650 152.5 650 c 128,-1,17
 199 650 199 650 266 658 c 1,18,-1
 273 625 l 1,19,20
 206 617 206 617 198 602 c 1,21,22
 196 596 196 596 196 582 c 2,0,-1
EndSplineSet
EndChar

StartChar: K
Encoding: 75 75 46
Width: 668
GlyphClass: 2
Flags: W
LayerCount: 2
Fore
SplineSet
464 602 m 0,0,1
 464 616 464 616 408 625 c 1,2,-1
 415 658 l 1,3,4
 462 650 462 650 509.5 650 c 128,-1,5
 557 650 557 650 602 658 c 1,6,-1
 609 625 l 1,7,8
 575 620 575 620 555.5 610 c 128,-1,9
 536 600 536 600 514 576 c 2,10,-1
 312 363 l 1,11,-1
 558 96 l 2,12,13
 592 59 592 59 614 46.5 c 128,-1,14
 636 34 636 34 672 25 c 1,15,-1
 665 -8 l 1,16,17
 612 0 612 0 541.5 0 c 128,-1,18
 471 0 471 0 420 -8 c 1,19,-1
 413 25 l 1,20,21
 417 26 417 26 425 27.5 c 128,-1,22
 433 29 433 29 437 30 c 128,-1,23
 441 31 441 31 447.5 32.5 c 128,-1,24
 454 34 454 34 457.5 35.5 c 128,-1,25
 461 37 461 37 464 39 c 0,26,27
 471 43 471 43 471 51.5 c 128,-1,28
 471 60 471 60 453 80 c 2,29,-1
 228 327 l 1,30,-1
 228 345 l 1,31,-1
 449 576 l 2,32,33
 464 592 464 592 464 602 c 0,0,1
214 582 m 2,34,-1
 214 75 l 2,35,36
 214 60 214 60 218 52 c 128,-1,37
 222 44 222 44 236 40 c 1,38,-1
 307 27 l 1,39,-1
 300 -8 l 1,40,41
 230 0 230 0 180.5 0 c 128,-1,42
 131 0 131 0 57 -8 c 1,43,-1
 50 25 l 1,44,45
 116 33 116 33 122 48 c 0,46,47
 125 54 125 54 125 68 c 2,48,-1
 125 582 l 2,49,50
 125 596 125 596 122.5 601.5 c 128,-1,51
 120 607 120 607 110 612 c 0,52,53
 96 618 96 618 50 625 c 1,54,-1
 57 658 l 1,55,56
 124 650 124 650 167 650 c 128,-1,57
 210 650 210 650 277 658 c 1,58,-1
 284 625 l 1,59,60
 223 616 223 616 216 602 c 0,61,62
 214 596 214 596 214 582 c 2,34,-1
EndSplineSet
EndChar

StartChar: L
Encoding: 76 76 47
Width: 528
GlyphClass: 2
Flags: W
LayerCount: 2
Fore
SplineSet
214 573 m 2,0,-1
 214 48 l 1,1,-1
 425 48 l 1,2,3
 437 60 437 60 458 104.5 c 128,-1,4
 479 149 479 149 486 173 c 1,5,-1
 520 166 l 1,6,7
 519 142 519 142 510.5 81.5 c 128,-1,8
 502 21 502 21 496 0 c 1,9,-1
 167 0 l 2,10,11
 139 0 139 0 57 -8 c 1,12,-1
 50 24 l 1,13,14
 90 29 90 29 107.5 36.5 c 128,-1,15
 125 44 125 44 125 69 c 2,16,-1
 125 581 l 2,17,18
 125 605 125 605 109 612 c 0,19,20
 96 618 96 618 50 625 c 1,21,-1
 57 658 l 1,22,23
 131 650 131 650 186.5 650 c 128,-1,24
 242 650 242 650 312 658 c 1,25,-1
 319 622 l 1,26,27
 255 614 255 614 238.5 609 c 128,-1,28
 222 604 222 604 218 596 c 128,-1,29
 214 588 214 588 214 573 c 2,0,-1
EndSplineSet
EndChar

StartChar: M
Encoding: 77 77 48
Width: 926
GlyphClass: 2
Flags: W
LayerCount: 2
Fore
SplineSet
669 659 m 1,0,1
 710 650 710 650 760 650 c 128,-1,2
 810 650 810 650 857 659 c 1,3,-1
 864 626 l 1,4,5
 825 621 825 621 807.5 614 c 128,-1,6
 790 607 790 607 790 579 c 1,7,-1
 820 72 l 2,8,9
 822 46 822 46 838 38 c 0,10,11
 851 32 851 32 893 25 c 1,12,-1
 886 -8 l 1,13,14
 819 0 819 0 767 0 c 128,-1,15
 715 0 715 0 649 -8 c 1,16,-1
 642 27 l 1,17,18
 694 33 694 33 713 42 c 1,19,20
 731 49 731 49 730 72 c 2,21,-1
 701 572 l 1,22,-1
 695 577 l 1,23,24
 684 527 684 527 674 503 c 2,25,-1
 530 142 l 2,26,27
 510 90 510 90 482 0 c 1,28,-1
 422 -17 l 1,29,30
 394 77 394 77 373 129 c 2,31,-1
 224 502 l 1,32,-1
 205 568 l 1,33,-1
 198 563 l 1,34,-1
 163 72 l 2,35,36
 162 59 162 59 165.5 53 c 128,-1,37
 169 47 169 47 178 42 c 1,38,39
 193 36 193 36 251 27 c 1,40,-1
 244 -8 l 1,41,42
 177 0 177 0 140 0 c 128,-1,43
 103 0 103 0 36 -8 c 1,44,-1
 29 25 l 1,45,46
 64 30 64 30 83 38 c 1,47,48
 99 46 99 46 100 69 c 2,49,-1
 137 582 l 2,50,51
 139 606 139 606 121 613 c 1,52,53
 108 620 108 620 63 626 c 1,54,-1
 70 659 l 1,55,56
 117 650 117 650 172 650 c 128,-1,57
 227 650 227 650 268 659 c 1,58,59
 276 623 276 623 288 591 c 2,60,-1
 454 158 l 1,61,-1
 467 111 l 1,62,-1
 474 109 l 1,63,64
 477 142 477 142 483 157 c 2,65,-1
 646 585 l 1,66,-1
 669 659 l 1,0,1
EndSplineSet
EndChar

StartChar: N
Encoding: 78 78 49
Width: 764
GlyphClass: 2
Flags: W
LayerCount: 2
Fore
SplineSet
191 77 m 2,0,1
 191 62 191 62 195 54 c 128,-1,2
 199 46 199 46 213 42 c 1,3,-1
 296 28 l 1,4,-1
 289 -8 l 1,5,6
 219 0 219 0 175 0 c 128,-1,7
 131 0 131 0 57 -8 c 1,8,-1
 50 25 l 1,9,10
 90 30 90 30 107.5 37.5 c 128,-1,11
 125 45 125 45 125 69 c 2,12,-1
 125 583 l 2,13,14
 125 607 125 607 109 613 c 1,15,16
 95 620 95 620 50 626 c 1,17,-1
 57 659 l 1,18,19
 104 650 104 650 152 650 c 128,-1,20
 200 650 200 650 241 659 c 1,21,22
 262 619 262 619 303 563 c 2,23,-1
 554 216 l 2,24,25
 571 191 571 191 586 145 c 1,26,-1
 591 149 l 1,27,-1
 591 580 l 2,28,29
 591 603 591 603 574 610 c 1,30,31
 558 618 558 618 507 624 c 1,32,-1
 514 659 l 1,33,34
 590 650 590 650 620.5 650 c 128,-1,35
 651 650 651 650 725 659 c 1,36,-1
 732 626 l 1,37,38
 693 621 693 621 675 613.5 c 128,-1,39
 657 606 657 606 657 583 c 2,40,-1
 657 193 l 2,41,42
 657 113 657 113 665 1 c 1,43,-1
 590 -14 l 1,44,45
 555 70 555 70 475 178 c 2,46,-1
 232 507 l 2,47,48
 215 531 215 531 196 572 c 1,49,-1
 191 568 l 1,50,-1
 191 77 l 2,0,1
EndSplineSet
EndChar

StartChar: O
Encoding: 79 79 50
Width: 755
GlyphClass: 2
Flags: W
LayerCount: 2
Fore
SplineSet
137 71 m 128,-1,1
 47 158 47 158 47 311 c 128,-1,2
 47 464 47 464 136.5 565 c 128,-1,3
 226 666 226 666 377 666 c 128,-1,4
 528 666 528 666 618 579 c 128,-1,5
 708 492 708 492 708 339 c 128,-1,6
 708 186 708 186 618.5 85 c 128,-1,7
 529 -16 529 -16 378 -16 c 128,-1,0
 227 -16 227 -16 137 71 c 128,-1,1
203 542 m 128,-1,9
 148 466 148 466 148 339 c 128,-1,10
 148 212 148 212 210 122 c 128,-1,11
 272 32 272 32 384.5 32 c 128,-1,12
 497 32 497 32 552 108 c 128,-1,13
 607 184 607 184 607 311 c 128,-1,14
 607 438 607 438 545 528 c 128,-1,15
 483 618 483 618 370.5 618 c 128,-1,8
 258 618 258 618 203 542 c 128,-1,9
EndSplineSet
EndChar

StartChar: P
Encoding: 80 80 51
Width: 537
GlyphClass: 2
Flags: W
LayerCount: 2
Fore
SplineSet
89 650 m 1,0,-1
 277 658 l 1,1,2
 521 658 521 658 521 474 c 0,3,4
 521 391 521 391 453 332 c 128,-1,5
 385 273 385 273 298 273 c 0,6,7
 284 273 284 273 263 282 c 128,-1,8
 242 291 242 291 232 298 c 1,9,-1
 228 314 l 1,10,11
 242 310 242 310 261 310 c 0,12,13
 422 310 422 310 422 461 c 0,14,15
 422 619 422 619 271 619 c 0,16,17
 244 619 244 619 214 612 c 1,18,-1
 214 77 l 2,19,20
 214 62 214 62 218 54 c 128,-1,21
 222 46 222 46 236 42 c 1,22,-1
 319 28 l 1,23,-1
 312 -8 l 1,24,25
 242 0 242 0 186.5 0 c 128,-1,26
 131 0 131 0 57 -8 c 1,27,-1
 50 25 l 1,28,29
 90 30 90 30 107.5 37.5 c 128,-1,30
 125 45 125 45 125 69 c 2,31,-1
 125 579 l 2,32,33
 125 602 125 602 109 609 c 0,34,35
 96 615 96 615 50 622 c 1,36,-1
 57 653 l 1,37,38
 62 650 62 650 89 650 c 1,0,-1
EndSplineSet
EndChar

StartChar: Q
Encoding: 81 81 52
Width: 755
GlyphClass: 2
Flags: W
LayerCount: 2
Fore
SplineSet
132 75.5 m 128,-1,1
 47 162 47 162 47 313 c 128,-1,2
 47 464 47 464 136.5 565 c 128,-1,3
 226 666 226 666 377 666 c 128,-1,4
 528 666 528 666 618 579 c 128,-1,5
 708 492 708 492 708 340.5 c 128,-1,6
 708 189 708 189 622 89 c 128,-1,7
 536 -11 536 -11 392 -15 c 1,8,9
 414 -22 414 -22 487 -78.5 c 128,-1,10
 560 -135 560 -135 596 -135 c 128,-1,11
 632 -135 632 -135 668 -92 c 1,12,-1
 691 -120 l 1,13,14
 642 -174 642 -174 615.5 -193.5 c 128,-1,15
 589 -213 589 -213 558 -213 c 128,-1,16
 527 -213 527 -213 487 -182.5 c 128,-1,17
 447 -152 447 -152 412.5 -121.5 c 128,-1,18
 378 -91 378 -91 359 -91 c 128,-1,19
 340 -91 340 -91 317 -106.5 c 128,-1,20
 294 -122 294 -122 279 -138 c 1,21,-1
 251 -115 l 1,22,23
 268 -93 268 -93 306 -59 c 128,-1,24
 344 -25 344 -25 363 -16 c 1,25,0
 217 -11 217 -11 132 75.5 c 128,-1,1
203 542 m 128,-1,27
 148 466 148 466 148 339 c 128,-1,28
 148 212 148 212 210 121 c 128,-1,29
 272 30 272 30 385 30 c 128,-1,30
 498 30 498 30 552.5 106.5 c 128,-1,31
 607 183 607 183 607 310.5 c 128,-1,32
 607 438 607 438 545 528 c 128,-1,33
 483 618 483 618 370.5 618 c 128,-1,26
 258 618 258 618 203 542 c 128,-1,27
EndSplineSet
EndChar

StartChar: R
Encoding: 82 82 53
Width: 649
GlyphClass: 2
Flags: W
LayerCount: 2
Fore
SplineSet
214 331 m 1,0,-1
 269 331 l 2,1,2
 343 331 343 331 382.5 367 c 128,-1,3
 422 403 422 403 422 476 c 128,-1,4
 422 549 422 549 387 584 c 128,-1,5
 352 619 352 619 279 619 c 0,6,7
 240 619 240 619 214 612 c 1,8,-1
 214 331 l 1,0,-1
87 650 m 1,9,-1
 279 658 l 1,10,11
 387 658 387 658 454 618.5 c 128,-1,12
 521 579 521 579 521 489 c 0,13,14
 521 423 521 423 475.5 374 c 128,-1,15
 430 325 430 325 368 320 c 1,16,-1
 368 313 l 1,17,18
 393 306 393 306 421.5 269 c 128,-1,19
 450 232 450 232 471 190 c 0,20,21
 529 74 529 74 566 50 c 128,-1,22
 603 26 603 26 651 26 c 1,23,-1
 646 -6 l 1,24,-1
 504 -6 l 2,25,26
 473 -6 473 -6 412 102 c 0,27,28
 397 127 397 127 377 162.5 c 128,-1,29
 357 198 357 198 350 210 c 128,-1,30
 343 222 343 222 337 231.5 c 128,-1,31
 331 241 331 241 328.5 245 c 128,-1,32
 326 249 326 249 321.5 255.5 c 128,-1,33
 317 262 317 262 314.5 265 c 128,-1,34
 312 268 312 268 308 272 c 0,35,36
 294 289 294 289 257 289 c 2,37,-1
 214 289 l 1,38,-1
 214 77 l 2,39,40
 214 62 214 62 218 54 c 128,-1,41
 222 46 222 46 236 42 c 1,42,-1
 319 28 l 1,43,-1
 312 -8 l 1,44,45
 242 0 242 0 186.5 0 c 128,-1,46
 131 0 131 0 57 -8 c 1,47,-1
 50 25 l 1,48,49
 90 30 90 30 107.5 37.5 c 128,-1,50
 125 45 125 45 125 69 c 2,51,-1
 125 579 l 2,52,53
 125 602 125 602 109 609 c 0,54,55
 96 615 96 615 50 622 c 1,56,-1
 57 653 l 1,57,58
 62 650 62 650 87 650 c 1,9,-1
EndSplineSet
EndChar

StartChar: S
Encoding: 83 83 54
Width: 524
GlyphClass: 2
Flags: W
LayerCount: 2
Fore
SplineSet
137.5 75 m 128,-1,1
 175 30 175 30 239.5 30 c 128,-1,2
 304 30 304 30 340.5 61 c 128,-1,3
 377 92 377 92 377 145 c 0,4,5
 377 195 377 195 335 231 c 0,6,7
 295 265 295 265 206 312 c 0,8,9
 197 317 197 317 173 332.5 c 128,-1,10
 149 348 149 348 139.5 356.5 c 128,-1,11
 130 365 130 365 113 381.5 c 128,-1,12
 96 398 96 398 89 412 c 0,13,14
 70 450 70 450 70 487 c 0,15,16
 70 571 70 571 128.5 618.5 c 128,-1,17
 187 666 187 666 277 666 c 0,18,19
 310 666 310 666 454 640 c 1,20,21
 446 553 446 553 428 486 c 1,22,-1
 394 480 l 1,23,24
 387 565 387 565 375 597 c 1,25,26
 338 622 338 622 278 622 c 128,-1,27
 218 622 218 622 186 595 c 128,-1,28
 154 568 154 568 154 520 c 0,29,30
 154 457 154 457 252 402 c 0,31,32
 266 395 266 395 302 375.5 c 128,-1,33
 338 356 338 356 360.5 342 c 128,-1,34
 383 328 383 328 412 304 c 0,35,36
 469 257 469 257 469 187 c 0,37,38
 469 88 469 88 402.5 36 c 128,-1,39
 336 -16 336 -16 238 -16 c 128,-1,40
 140 -16 140 -16 55 21 c 1,41,42
 53 32 53 32 53 94 c 128,-1,43
 53 156 53 156 57 183 c 1,44,-1
 94 192 l 1,45,0
 100 120 100 120 137.5 75 c 128,-1,1
EndSplineSet
EndChar

StartChar: T
Encoding: 84 84 55
Width: 573
GlyphClass: 2
Flags: W
LayerCount: 2
Fore
SplineSet
422 -8 m 1,0,1
 356 0 356 0 286.5 0 c 128,-1,2
 217 0 217 0 151 -8 c 1,3,-1
 143 26 l 1,4,5
 207 34 207 34 221.5 40.5 c 128,-1,6
 236 47 236 47 239 53 c 128,-1,7
 242 59 242 59 242 72 c 2,8,-1
 242 603 l 1,9,-1
 75 603 l 1,10,11
 60 561 60 561 54 478 c 1,12,-1
 17 484 l 1,13,14
 8 553 8 553 8 595 c 128,-1,15
 8 637 8 637 9 657 c 1,16,17
 65 650 65 650 110 650 c 2,18,-1
 463 650 l 2,19,20
 508 650 508 650 564 657 c 1,21,22
 565 639 565 639 565 598.5 c 128,-1,23
 565 558 565 558 555 484 c 1,24,-1
 519 478 l 1,25,26
 513 561 513 561 498 603 c 1,27,-1
 331 603 l 1,28,-1
 331 72 l 2,29,30
 331 59 331 59 334 53 c 128,-1,31
 337 47 337 47 346 43 c 0,32,33
 361 37 361 37 430 26 c 1,34,-1
 422 -8 l 1,0,1
EndSplineSet
EndChar

StartChar: U
Encoding: 85 85 56
Width: 724
GlyphClass: 2
Flags: W
LayerCount: 2
Fore
SplineSet
558 229 m 2,0,-1
 558 581 l 2,1,2
 558 594 558 594 555.5 599.5 c 128,-1,3
 553 605 553 605 544 610 c 1,4,5
 525 618 525 618 480 624 c 1,6,-1
 487 658 l 1,7,8
 554 650 554 650 590 650 c 128,-1,9
 626 650 626 650 693 658 c 1,10,-1
 700 624 l 1,11,12
 658 619 658 619 640.5 611.5 c 128,-1,13
 623 604 623 604 623 582 c 2,14,-1
 623 245 l 2,15,16
 623 118 623 118 554.5 52 c 128,-1,17
 486 -14 486 -14 356.5 -14 c 128,-1,18
 227 -14 227 -14 164 45.5 c 128,-1,19
 101 105 101 105 101 233 c 2,20,-1
 101 582 l 2,21,22
 101 596 101 596 98.5 601.5 c 128,-1,23
 96 607 96 607 86 612 c 0,24,25
 72 618 72 618 26 625 c 1,26,-1
 33 658 l 1,27,28
 100 650 100 650 148 650 c 128,-1,29
 196 650 196 650 263 658 c 1,30,-1
 270 625 l 1,31,32
 199 616 199 616 192 600 c 0,33,34
 190 595 190 595 190 581 c 2,35,-1
 190 249 l 2,36,37
 190 145 190 145 236 95.5 c 128,-1,38
 282 46 282 46 374 46 c 128,-1,39
 466 46 466 46 512 95 c 128,-1,40
 558 144 558 144 558 229 c 2,0,-1
EndSplineSet
EndChar

StartChar: V
Encoding: 86 86 57
Width: 643
GlyphClass: 2
Flags: W
LayerCount: 2
Fore
SplineSet
506 585 m 0,0,1
 506 605 506 605 480 612 c 1,2,-1
 419 625 l 1,3,-1
 425 658 l 1,4,5
 480 650 480 650 530.5 650 c 128,-1,6
 581 650 581 650 634 658 c 1,7,-1
 641 625 l 1,8,9
 600 616 600 616 590 605.5 c 128,-1,10
 580 595 580 595 563 549 c 2,11,-1
 352 -7 l 1,12,-1
 278 -7 l 1,13,-1
 78 549 l 2,14,15
 62 593 62 593 50.5 604.5 c 128,-1,16
 39 616 39 616 -2 625 c 1,17,-1
 5 658 l 1,18,19
 58 650 58 650 122.5 650 c 128,-1,20
 187 650 187 650 243 658 c 1,21,-1
 249 625 l 1,22,23
 212 619 212 619 188 611.5 c 128,-1,24
 164 604 164 604 164 585 c 0,25,26
 164 578 164 578 167 571 c 2,27,-1
 321 124 l 1,28,-1
 331 83 l 1,29,-1
 338 80 l 1,30,-1
 344 124 l 1,31,-1
 503 571 l 2,32,33
 506 579 506 579 506 585 c 0,0,1
EndSplineSet
EndChar

StartChar: W
Encoding: 87 87 58
Width: 1018
GlyphClass: 2
Flags: W
LayerCount: 2
Fore
SplineSet
5 658 m 1,0,1
 58 650 58 650 122.5 650 c 128,-1,2
 187 650 187 650 243 658 c 1,3,-1
 249 625 l 1,4,5
 212 619 212 619 188.5 611.5 c 128,-1,6
 165 604 165 604 165 584 c 0,7,8
 165 578 165 578 167 571 c 2,9,-1
 309 139 l 1,10,-1
 315 110 l 1,11,-1
 321 109 l 1,12,-1
 325 142 l 1,13,-1
 492 649 l 1,14,-1
 564 649 l 1,15,-1
 732 135 l 1,16,-1
 738 109 l 1,17,-1
 743 108 l 1,18,-1
 749 138 l 1,19,-1
 884 571 l 2,20,21
 887 579 887 579 887 585 c 0,22,23
 887 605 887 605 861 612 c 1,24,-1
 800 625 l 1,25,-1
 806 658 l 1,26,27
 861 650 861 650 910.5 650 c 128,-1,28
 960 650 960 650 1013 658 c 1,29,-1
 1020 625 l 1,30,31
 979 616 979 616 968.5 605 c 128,-1,32
 958 594 958 594 942 549 c 2,33,-1
 753 -8 l 1,34,-1
 685 -8 l 1,35,-1
 516 493 l 1,36,-1
 510 520 l 1,37,-1
 505 521 l 1,38,-1
 497 487 l 1,39,-1
 332 -8 l 1,40,-1
 263 -8 l 1,41,-1
 78 549 l 2,42,43
 63 593 63 593 51.5 604.5 c 128,-1,44
 40 616 40 616 -2 625 c 1,45,-1
 5 658 l 1,0,1
EndSplineSet
EndChar

StartChar: X
Encoding: 88 88 59
Width: 669
GlyphClass: 2
Flags: W
LayerCount: 2
Fore
SplineSet
234 -8 m 1,0,1
 179 0 179 0 127 0 c 128,-1,2
 75 0 75 0 15 -9 c 1,3,-1
 8 24 l 1,4,5
 34 30 34 30 52 42.5 c 128,-1,6
 70 55 70 55 95 88 c 2,7,-1
 285 330 l 1,8,-1
 125 551 l 1,9,10
 91 593 91 593 75 606 c 128,-1,11
 59 619 59 619 27 625 c 1,12,-1
 34 658 l 1,13,14
 87 650 87 650 159 650 c 128,-1,15
 231 650 231 650 286 658 c 1,16,-1
 292 625 l 1,17,18
 227 618 227 618 217 596 c 0,19,20
 212 584 212 584 220 571 c 1,21,-1
 358 384 l 1,22,-1
 496 571 l 1,23,24
 503 584 503 584 498 596 c 128,-1,25
 493 608 493 608 484 612 c 0,26,27
 462 621 462 621 422 625 c 1,28,-1
 428 658 l 1,29,30
 483 650 483 650 533.5 650 c 128,-1,31
 584 650 584 650 637 658 c 1,32,-1
 644 625 l 1,33,34
 604 616 604 616 592.5 608 c 128,-1,35
 581 600 581 600 552 562 c 2,36,-1
 386 346 l 1,37,-1
 568 99 l 2,38,39
 598 57 598 57 614.5 43.5 c 128,-1,40
 631 30 631 30 661 25 c 1,41,-1
 654 -8 l 1,42,43
 601 0 601 0 524.5 0 c 128,-1,44
 448 0 448 0 392 -8 c 1,45,-1
 386 25 l 1,46,47
 423 31 423 31 448.5 39.5 c 128,-1,48
 474 48 474 48 474 63 c 0,49,50
 474 70 474 70 468 79 c 2,51,-1
 314 290 l 1,52,-1
 156 79 l 1,53,54
 147 65 147 65 154.5 54 c 128,-1,55
 162 43 162 43 179 38 c 1,56,-1
 240 25 l 1,57,-1
 234 -8 l 1,0,1
EndSplineSet
EndChar

StartChar: Y
Encoding: 89 89 60
Width: 592
GlyphClass: 2
Flags: W
LayerCount: 2
Fore
SplineSet
-2 659 m 1,0,1
 52 650 52 650 117.5 650 c 128,-1,2
 183 650 183 650 251 659 c 1,3,-1
 248 627 l 1,4,5
 218 621 218 621 197 613.5 c 128,-1,6
 176 606 176 606 176 591.5 c 128,-1,7
 176 577 176 577 184 563 c 2,8,-1
 316 330 l 1,9,-1
 447 564 l 2,10,11
 454 576 454 576 454 587 c 128,-1,12
 454 598 454 598 443 606 c 0,13,14
 431 614 431 614 374 627 c 1,15,-1
 371 659 l 1,16,17
 441 650 441 650 487 650 c 128,-1,18
 533 650 533 650 594 659 c 1,19,-1
 590 627 l 1,20,21
 559 624 559 624 542 611.5 c 128,-1,22
 525 599 525 599 505 562 c 1,23,-1
 339 276 l 1,24,-1
 339 68 l 2,25,26
 339 44 339 44 355 37 c 0,27,28
 371 29 371 29 427 23 c 1,29,-1
 419 -8 l 1,30,31
 353 0 353 0 295.5 0 c 128,-1,32
 238 0 238 0 172 -8 c 1,33,-1
 165 24 l 1,34,35
 215 29 215 29 232.5 36.5 c 128,-1,36
 250 44 250 44 250 68 c 2,37,-1
 250 274 l 1,38,-1
 79 569 l 2,39,40
 61 602 61 602 46 613 c 128,-1,41
 31 624 31 624 2 627 c 1,42,-1
 -2 659 l 1,0,1
EndSplineSet
EndChar

StartChar: Z
Encoding: 90 90 61
Width: 587
GlyphClass: 2
Flags: W
LayerCount: 2
Fore
SplineSet
58 463 m 1,0,1
 57 473 57 473 57 493.5 c 128,-1,2
 57 514 57 514 60.5 568 c 128,-1,3
 64 622 64 622 69 650 c 1,4,-1
 93 662 l 1,5,6
 123 650 123 650 164 650 c 2,7,-1
 511 650 l 1,8,-1
 525 600 l 1,9,-1
 149 53 l 1,10,-1
 434 53 l 1,11,12
 450 69 450 69 478.5 123 c 128,-1,13
 507 177 507 177 517 206 c 1,14,-1
 553 197 l 1,15,16
 552 170 552 170 539 98 c 128,-1,17
 526 26 526 26 518 0 c 1,18,-1
 49 0 l 1,19,-1
 40 47 l 1,20,-1
 418 597 l 1,21,-1
 144 597 l 1,22,23
 115 556 115 556 93 456 c 1,24,-1
 58 463 l 1,0,1
EndSplineSet
EndChar

StartChar: bracketleft
Encoding: 91 91 62
Width: 327
GlyphClass: 2
Flags: W
LayerCount: 2
Fore
SplineSet
112 -156 m 1,0,-1
 112 650 l 1,1,-1
 308 650 l 1,2,-1
 308 596 l 1,3,-1
 179 596 l 1,4,-1
 179 -102 l 1,5,-1
 308 -102 l 1,6,-1
 308 -156 l 1,7,-1
 112 -156 l 1,0,-1
EndSplineSet
EndChar

StartChar: backslash
Encoding: 92 92 63
Width: 441
GlyphClass: 2
Flags: W
LayerCount: 2
Fore
SplineSet
78 667 m 1,0,-1
 418 -142 l 1,1,-1
 363 -170 l 1,2,-1
 23 639 l 1,3,-1
 78 667 l 1,0,-1
EndSplineSet
EndChar

StartChar: bracketright
Encoding: 93 93 64
Width: 327
GlyphClass: 2
Flags: W
LayerCount: 2
Fore
SplineSet
309 650 m 1,0,-1
 309 -156 l 1,1,-1
 112 -156 l 1,2,-1
 112 -101 l 1,3,-1
 237 -101 l 1,4,-1
 237 595 l 1,5,-1
 112 595 l 1,6,-1
 112 650 l 1,7,-1
 309 650 l 1,0,-1
EndSplineSet
EndChar

StartChar: asciicircum
Encoding: 94 94 65
Width: 474
GlyphClass: 2
Flags: W
LayerCount: 2
Fore
SplineSet
36 311 m 1,0,-1
 213 666 l 1,1,-1
 261 666 l 1,2,-1
 438 311 l 1,3,-1
 384 285 l 1,4,-1
 237 590 l 1,5,-1
 90 285 l 1,6,-1
 36 311 l 1,0,-1
EndSplineSet
EndChar

StartChar: underscore
Encoding: 95 95 66
Width: 500
GlyphClass: 2
Flags: W
LayerCount: 2
Fore
SplineSet
0 -156 m 1,0,-1
 0 -107 l 1,1,-1
 500 -107 l 1,2,-1
 500 -156 l 1,3,-1
 0 -156 l 1,0,-1
EndSplineSet
EndChar

StartChar: grave
Encoding: 96 96 67
Width: 322
GlyphClass: 2
Flags: W
LayerCount: 2
Fore
SplineSet
86 676 m 1,0,1
 90 676 90 676 99 676 c 0,2,3
 144 676 144 676 171 670 c 1,4,5
 179 661 179 661 214 598.5 c 128,-1,6
 249 536 249 536 259 517 c 1,7,-1
 227 498 l 1,8,-1
 76 660 l 1,9,-1
 86 676 l 1,0,1
EndSplineSet
EndChar

StartChar: a
Encoding: 97 97 68
Width: 455
GlyphClass: 2
Flags: W
LayerCount: 2
Fore
SplineSet
145 64 m 128,-1,1
 163 44 163 44 197 44 c 128,-1,2
 231 44 231 44 283 84 c 1,3,-1
 283 198 l 1,4,-1
 206 184 l 1,5,6
 127 171 127 171 127 112 c 0,7,0
 127 84 127 84 145 64 c 128,-1,1
363 286 m 2,8,-1
 363 82 l 2,9,10
 363 46 363 46 402 46 c 1,11,-1
 429 47 l 1,12,-1
 437 18 l 1,13,14
 388 7 388 7 333 -16 c 1,15,16
 296 9 296 9 286 51 c 1,17,18
 241 13 241 13 212.5 -1.5 c 128,-1,19
 184 -16 184 -16 156 -16 c 0,20,21
 105 -16 105 -16 74.5 16 c 128,-1,22
 44 48 44 48 44 102.5 c 128,-1,23
 44 157 44 157 83 183.5 c 128,-1,24
 122 210 122 210 191 217 c 2,25,-1
 283 227 l 1,26,-1
 283 272 l 2,27,28
 283 329 283 329 266 358 c 128,-1,29
 249 387 249 387 204.5 387 c 128,-1,30
 160 387 160 387 138 375 c 1,31,32
 132 354 132 354 132 283 c 1,33,-1
 90 271 l 1,34,35
 68 344 68 344 65 383 c 1,36,37
 173 432 173 432 221 432 c 0,38,39
 295 432 295 432 329 396.5 c 128,-1,40
 363 361 363 361 363 286 c 2,8,-1
EndSplineSet
EndChar

StartChar: b
Encoding: 98 98 69
Width: 517
GlyphClass: 2
Flags: W
LayerCount: 2
Fore
SplineSet
163 375 m 1,0,1
 248 432 248 432 308 432 c 0,2,3
 391 432 391 432 433 376 c 128,-1,4
 475 320 475 320 475 220 c 128,-1,5
 475 120 475 120 414.5 52 c 128,-1,6
 354 -16 354 -16 268.5 -16 c 128,-1,7
 183 -16 183 -16 83 25 c 1,8,-1
 83 622 l 2,9,10
 83 640 83 640 78 648 c 128,-1,11
 73 656 73 656 58 656 c 1,12,-1
 16 650 l 1,13,-1
 10 680 l 1,14,15
 82 712 82 712 156 718 c 1,16,-1
 171 700 l 1,17,18
 163 670 163 670 163 602 c 2,19,-1
 163 375 l 1,0,1
267 373 m 0,20,21
 241 373 241 373 215 363.5 c 128,-1,22
 189 354 189 354 163 336 c 1,23,-1
 163 107 l 2,24,25
 163 70 163 70 191.5 47.5 c 128,-1,26
 220 25 220 25 269 25 c 128,-1,27
 318 25 318 25 352 69 c 128,-1,28
 386 113 386 113 386 201 c 0,29,30
 386 373 386 373 267 373 c 0,20,21
EndSplineSet
EndChar

StartChar: c
Encoding: 99 99 70
Width: 435
GlyphClass: 2
Flags: W
LayerCount: 2
Fore
SplineSet
328 265 m 1,0,1
 329 275 329 275 329 289 c 0,2,3
 329 349 329 349 318 371 c 1,4,5
 291 390 291 390 235 390 c 0,6,7
 131 390 131 390 131 223 c 0,8,9
 131 137 131 137 170 92 c 128,-1,10
 209 47 209 47 269 47 c 128,-1,11
 329 47 329 47 389 88 c 1,12,-1
 405 64 l 1,13,14
 316 -16 316 -16 242 -16 c 0,15,16
 153 -16 153 -16 97.5 43 c 128,-1,17
 42 102 42 102 42 199.5 c 128,-1,18
 42 297 42 297 96.5 364.5 c 128,-1,19
 151 432 151 432 243 432 c 0,20,21
 274 432 274 432 323 418.5 c 128,-1,22
 372 405 372 405 398 394 c 1,23,24
 396 373 396 373 383.5 325.5 c 128,-1,25
 371 278 371 278 362 259 c 1,26,-1
 328 265 l 1,0,1
EndSplineSet
EndChar

StartChar: d
Encoding: 100 100 71
Width: 528
GlyphClass: 2
Flags: W
LayerCount: 2
Fore
SplineSet
432 85 m 2,0,1
 432 59 432 59 447 52.5 c 128,-1,2
 462 46 462 46 479 46 c 128,-1,3
 496 46 496 46 511 48 c 1,4,-1
 518 18 l 1,5,6
 453 5 453 5 401 -16 c 1,7,8
 364 12 364 12 355 52 c 1,9,10
 272 -16 272 -16 223 -16 c 0,11,12
 135 -16 135 -16 88.5 40 c 128,-1,13
 42 96 42 96 42 197 c 128,-1,14
 42 298 42 298 100.5 365 c 128,-1,15
 159 432 159 432 258 432 c 0,16,17
 308 432 308 432 352 411 c 1,18,-1
 352 622 l 2,19,20
 352 653 352 653 334 656 c 0,21,22
 317 658 317 658 271 650 c 1,23,-1
 266 680 l 1,24,25
 294 693 294 693 343 704.5 c 128,-1,26
 392 716 392 716 424 718 c 1,27,-1
 439 700 l 1,28,29
 432 670 432 670 432 602 c 2,30,-1
 432 85 l 2,0,1
164 85.5 m 128,-1,32
 197 43 197 43 249 43 c 128,-1,33
 301 43 301 43 352 83 c 1,34,-1
 352 332 l 1,35,36
 335 359 335 359 306 375 c 128,-1,37
 277 391 277 391 249 391 c 0,38,39
 196 391 196 391 163.5 347 c 128,-1,40
 131 303 131 303 131 215.5 c 128,-1,31
 131 128 131 128 164 85.5 c 128,-1,32
EndSplineSet
EndChar

StartChar: e
Encoding: 101 101 72
Width: 450
GlyphClass: 2
Flags: W
LayerCount: 2
Fore
SplineSet
275 47 m 0,0,1
 335 47 335 47 395 90 c 1,2,-1
 411 68 l 1,3,4
 320 -16 320 -16 235.5 -16 c 128,-1,5
 151 -16 151 -16 96.5 42.5 c 128,-1,6
 42 101 42 101 42 198 c 128,-1,7
 42 295 42 295 97 363.5 c 128,-1,8
 152 432 152 432 239.5 432 c 128,-1,9
 327 432 327 432 370 377.5 c 128,-1,10
 413 323 413 323 413 230 c 1,11,-1
 131 210 l 1,12,13
 139 47 139 47 275 47 c 0,0,1
234 391 m 0,14,15
 181 391 181 391 156 348.5 c 128,-1,16
 131 306 131 306 131 246 c 1,17,-1
 323 270 l 1,18,19
 323 391 323 391 234 391 c 0,14,15
EndSplineSet
EndChar

StartChar: f
Encoding: 102 102 73
Width: 327
GlyphClass: 2
Flags: W
LayerCount: 2
Fore
SplineSet
107 474 m 2,0,1
 107 575 107 575 156.5 646.5 c 128,-1,2
 206 718 206 718 296 718 c 0,3,4
 339 718 339 718 406 700 c 1,5,6
 399 649 399 649 371 575 c 1,7,-1
 342 573 l 1,8,9
 342 615 342 615 322 645 c 128,-1,10
 302 675 302 675 263.5 675 c 128,-1,11
 225 675 225 675 206 631.5 c 128,-1,12
 187 588 187 588 187 531 c 2,13,-1
 187 412 l 1,14,-1
 306 420 l 1,15,-1
 297 367 l 1,16,-1
 187 370 l 1,17,-1
 187 67 l 2,18,19
 187 54 187 54 190 49 c 128,-1,20
 193 44 193 44 202 39 c 0,21,22
 219 30 219 30 276 22 c 1,23,-1
 268 -8 l 1,24,25
 183 0 183 0 153.5 0 c 128,-1,26
 124 0 124 0 42 -8 c 1,27,-1
 34 22 l 1,28,29
 96 32 96 32 104 48 c 0,30,31
 107 53 107 53 107 66 c 2,32,-1
 107 372 l 1,33,-1
 44 373 l 1,34,-1
 41 401 l 1,35,-1
 107 416 l 1,36,-1
 107 474 l 2,0,1
EndSplineSet
EndChar

StartChar: g
Encoding: 103 103 74
Width: 471
GlyphClass: 2
Flags: W
LayerCount: 2
Fore
SplineSet
48 277 m 0,0,1
 48 351 48 351 99 391.5 c 128,-1,2
 150 432 150 432 230 432 c 0,3,4
 282 432 282 432 326 410 c 1,5,6
 393 416 393 416 450 442 c 1,7,-1
 463 428 l 1,8,-1
 452 380 l 1,9,10
 433 377 433 377 411.5 377 c 128,-1,11
 390 377 390 377 367 379 c 1,12,13
 384 362 384 362 395.5 334 c 128,-1,14
 407 306 407 306 407 277 c 0,15,16
 407 203 407 203 356 161.5 c 128,-1,17
 305 120 305 120 225 120 c 1,18,-1
 186 124 l 1,19,20
 144 92 144 92 144 75 c 0,21,22
 144 48 144 48 220 43 c 2,23,-1
 319 36 l 2,24,25
 382 31 382 31 415 1 c 128,-1,26
 448 -29 448 -29 448 -78 c 128,-1,27
 448 -127 448 -127 408 -170.5 c 128,-1,28
 368 -214 368 -214 310 -237 c 128,-1,29
 252 -260 252 -260 183 -260 c 128,-1,30
 114 -260 114 -260 67 -229.5 c 128,-1,31
 20 -199 20 -199 20 -140 c 0,32,33
 20 -112 20 -112 29 -94 c 1,34,-1
 128 -19 l 1,35,36
 62 -1 62 -1 62 45 c 0,37,38
 62 58 62 58 69 72 c 1,39,-1
 147 134 l 1,40,41
 137 137 137 137 116 150.5 c 128,-1,42
 95 164 95 164 82 178.5 c 128,-1,43
 69 193 69 193 58.5 219.5 c 128,-1,44
 48 246 48 246 48 277 c 0,0,1
100 -125 m 0,45,46
 100 -162 100 -162 137 -186.5 c 128,-1,47
 174 -211 174 -211 236 -211 c 128,-1,48
 298 -211 298 -211 339.5 -183 c 128,-1,49
 381 -155 381 -155 381 -116 c 128,-1,50
 381 -77 381 -77 360.5 -58.5 c 128,-1,51
 340 -40 340 -40 292 -36 c 2,52,-1
 172 -27 l 1,53,54
 131 -60 131 -60 115.5 -80 c 128,-1,55
 100 -100 100 -100 100 -125 c 0,45,46
132 283 m 0,56,57
 132 230 132 230 157.5 194.5 c 128,-1,58
 183 159 183 159 230 159 c 0,59,60
 322 159 322 159 322 270 c 0,61,62
 322 323 322 323 296.5 358.5 c 128,-1,63
 271 394 271 394 225 394 c 0,64,65
 132 394 132 394 132 283 c 0,56,57
EndSplineSet
EndChar

StartChar: h
Encoding: 104 104 75
Width: 567
GlyphClass: 2
Flags: W
LayerCount: 2
Fore
SplineSet
474 281 m 2,0,-1
 474 66 l 2,1,2
 474 53 474 53 476.5 48 c 128,-1,3
 479 43 479 43 488 38 c 0,4,5
 502 31 502 31 547 22 c 1,6,-1
 540 -8 l 1,7,8
 458 0 458 0 436.5 0 c 128,-1,9
 415 0 415 0 333 -8 c 1,10,-1
 326 21 l 1,11,12
 384 31 384 31 392 47 c 0,13,14
 394 52 394 52 394 64 c 2,15,-1
 394 261 l 2,16,17
 394 319 394 319 373.5 345 c 128,-1,18
 353 371 353 371 302 371 c 128,-1,19
 251 371 251 371 187 321 c 1,20,-1
 187 64 l 2,21,22
 187 51 187 51 189.5 46.5 c 128,-1,23
 192 42 192 42 202 37 c 0,24,25
 221 27 221 27 256 21 c 1,26,-1
 249 -8 l 1,27,28
 167 0 167 0 145.5 0 c 128,-1,29
 124 0 124 0 42 -8 c 1,30,-1
 34 22 l 1,31,32
 96 32 96 32 104 48 c 0,33,34
 107 53 107 53 107 66 c 2,35,-1
 107 622 l 2,36,37
 107 652 107 652 90 655 c 1,38,39
 72 657 72 657 34 650 c 1,40,-1
 29 680 l 1,41,42
 57 693 57 693 103.5 704.5 c 128,-1,43
 150 716 150 716 180 718 c 1,44,-1
 194 700 l 1,45,46
 187 670 187 670 187 602 c 2,47,-1
 187 358 l 1,48,-1
 224 387 l 2,49,50
 281 432 281 432 344 432 c 128,-1,51
 407 432 407 432 440.5 397 c 128,-1,52
 474 362 474 362 474 281 c 2,0,-1
EndSplineSet
EndChar

StartChar: i
Encoding: 105 105 76
Width: 284
GlyphClass: 2
Flags: W
LayerCount: 2
Fore
SplineSet
187 66 m 2,0,1
 187 53 187 53 189.5 48 c 128,-1,2
 192 43 192 43 202 38 c 0,3,4
 221 28 221 28 260 22 c 1,5,-1
 253 -8 l 1,6,7
 186 0 186 0 147 0 c 128,-1,8
 108 0 108 0 42 -8 c 1,9,-1
 34 22 l 1,10,11
 96 32 96 32 104 48 c 0,12,13
 107 53 107 53 107 66 c 2,14,-1
 107 341 l 2,15,16
 107 370 107 370 90 373 c 0,17,18
 75 375 75 375 43 369 c 1,19,-1
 37 399 l 1,20,21
 67 411 67 411 112 421.5 c 128,-1,22
 157 432 157 432 183 432 c 1,23,-1
 198 414 l 1,24,25
 187 372 187 372 187 316 c 2,26,-1
 187 66 l 2,0,1
72 599 m 128,-1,28
 72 623 72 623 88 639 c 128,-1,29
 104 655 104 655 130 655 c 128,-1,30
 156 655 156 655 172.5 639 c 128,-1,31
 189 623 189 623 189 599 c 128,-1,32
 189 575 189 575 172.5 559.5 c 128,-1,33
 156 544 156 544 130.5 544 c 128,-1,34
 105 544 105 544 88.5 559.5 c 128,-1,27
 72 575 72 575 72 599 c 128,-1,28
EndSplineSet
EndChar

StartChar: j
Encoding: 106 106 77
Width: 249
GlyphClass: 2
Flags: W
LayerCount: 2
Fore
SplineSet
60 599 m 128,-1,1
 60 623 60 623 76 639 c 128,-1,2
 92 655 92 655 118 655 c 128,-1,3
 144 655 144 655 160.5 639 c 128,-1,4
 177 623 177 623 177 599 c 128,-1,5
 177 575 177 575 160.5 559.5 c 128,-1,6
 144 544 144 544 118.5 544 c 128,-1,7
 93 544 93 544 76.5 559.5 c 128,-1,0
 60 575 60 575 60 599 c 128,-1,1
95 -28 m 2,8,-1
 95 341 l 2,9,10
 95 370 95 370 78 373 c 0,11,12
 64 375 64 375 30 369 c 1,13,-1
 25 399 l 1,14,15
 55 411 55 411 99.5 421.5 c 128,-1,16
 144 432 144 432 171 432 c 1,17,-1
 185 414 l 1,18,19
 175 369 175 369 175 316 c 2,20,-1
 175 2 l 2,21,22
 175 -69 175 -69 162 -96 c 0,23,24
 127 -171 127 -171 35 -260 c 1,25,-1
 14 -239 l 1,26,27
 66 -175 66 -175 88 -103 c 1,28,29
 95 -75 95 -75 95 -28 c 2,8,-1
EndSplineSet
EndChar

StartChar: k
Encoding: 107 107 78
Width: 513
GlyphClass: 2
Flags: W
LayerCount: 2
Fore
SplineSet
325 22 m 1,0,1
 357 26 357 26 357 44 c 0,2,3
 357 54 357 54 346 66 c 2,4,-1
 187 234 l 1,5,-1
 187 66 l 2,6,7
 187 53 187 53 189.5 48 c 128,-1,8
 192 43 192 43 203 37 c 1,9,-1
 249 22 l 1,10,-1
 241 -8 l 1,11,12
 156 0 156 0 138 0 c 128,-1,13
 120 0 120 0 42 -8 c 1,14,-1
 34 22 l 1,15,16
 96 32 96 32 104 48 c 0,17,18
 107 53 107 53 107 66 c 2,19,-1
 107 622 l 2,20,21
 107 651 107 651 90 656 c 1,22,23
 76 658 76 658 34 650 c 1,24,-1
 29 681 l 1,25,26
 108 714 108 714 180 718 c 1,27,-1
 194 700 l 1,28,29
 187 670 187 670 187 603 c 2,30,-1
 187 236 l 1,31,-1
 331 360 l 2,32,33
 365 390 365 390 307 394 c 1,34,-1
 304 423 l 1,35,36
 345 417 345 417 392.5 417 c 128,-1,37
 440 417 440 417 477 423 c 1,38,-1
 474 393 l 1,39,40
 450 390 450 390 434 385.5 c 128,-1,41
 418 381 418 381 396 361 c 2,42,-1
 270 251 l 1,43,-1
 445 66 l 2,44,45
 470 39 470 39 489 32 c 1,46,-1
 524 22 l 1,47,-1
 517 -8 l 1,48,49
 467 0 467 0 422.5 0 c 128,-1,50
 378 0 378 0 332 -8 c 1,51,-1
 325 22 l 1,0,1
EndSplineSet
EndChar

StartChar: l
Encoding: 108 108 79
Width: 284
GlyphClass: 2
Flags: W
LayerCount: 2
Fore
SplineSet
187 66 m 2,0,1
 187 53 187 53 189.5 48 c 128,-1,2
 192 43 192 43 202 38 c 0,3,4
 221 28 221 28 260 22 c 1,5,-1
 253 -8 l 1,6,7
 168 0 168 0 146 0 c 128,-1,8
 124 0 124 0 42 -8 c 1,9,-1
 34 22 l 1,10,11
 96 32 96 32 104 48 c 0,12,13
 107 53 107 53 107 66 c 2,14,-1
 107 622 l 2,15,16
 107 651 107 651 90 656 c 1,17,18
 76 658 76 658 34 650 c 1,19,-1
 29 681 l 1,20,21
 108 714 108 714 180 718 c 1,22,-1
 194 700 l 1,23,24
 187 670 187 670 187 642 c 128,-1,25
 187 614 187 614 187 603 c 2,26,-1
 187 66 l 2,0,1
EndSplineSet
EndChar

StartChar: m
Encoding: 109 109 80
Width: 836
GlyphClass: 2
Flags: W
LayerCount: 2
Fore
SplineSet
339 432 m 0,0,1
 435 432 435 432 457 353 c 1,2,-1
 503 388 l 2,3,4
 560 432 560 432 621 432 c 128,-1,5
 682 432 682 432 712.5 397.5 c 128,-1,6
 743 363 743 363 743 281 c 2,7,-1
 743 66 l 2,8,9
 743 53 743 53 745.5 48 c 128,-1,10
 748 43 748 43 757 38 c 0,11,12
 769 31 769 31 815 22 c 1,13,-1
 808 -8 l 1,14,15
 726 0 726 0 704.5 0 c 128,-1,16
 683 0 683 0 601 -8 c 1,17,-1
 594 21 l 1,18,19
 652 31 652 31 660 47 c 0,20,21
 662 52 662 52 662 64 c 2,22,-1
 662 261 l 2,23,24
 662 321 662 321 644.5 346 c 128,-1,25
 627 371 627 371 580.5 371 c 128,-1,26
 534 371 534 371 463 317 c 1,27,28
 465 295 465 295 465 281 c 2,29,-1
 465 66 l 2,30,31
 465 53 465 53 467.5 48 c 128,-1,32
 470 43 470 43 479 38 c 0,33,34
 497 28 497 28 532 22 c 1,35,-1
 525 -8 l 1,36,37
 443 0 443 0 424.5 0 c 128,-1,38
 406 0 406 0 324 -8 c 1,39,-1
 317 21 l 1,40,41
 374 31 374 31 382 46 c 0,42,43
 385 51 385 51 385 64 c 2,44,-1
 385 261 l 2,45,46
 385 321 385 321 367.5 346 c 128,-1,47
 350 371 350 371 300.5 371 c 128,-1,48
 251 371 251 371 187 321 c 1,49,-1
 187 64 l 2,50,51
 187 51 187 51 189.5 46.5 c 128,-1,52
 192 42 192 42 202 37 c 0,53,54
 221 27 221 27 256 21 c 1,55,-1
 249 -8 l 1,56,57
 167 0 167 0 145.5 0 c 128,-1,58
 124 0 124 0 42 -8 c 1,59,-1
 34 22 l 1,60,61
 96 32 96 32 104 48 c 0,62,63
 107 53 107 53 107 66 c 2,64,-1
 107 336 l 2,65,66
 107 366 107 366 90 369 c 0,67,68
 73 371 73 371 35 364 c 1,69,-1
 30 394 l 1,70,71
 101 425 101 425 160 432 c 1,72,-1
 176 414 l 1,73,74
 176 388 176 388 186 358 c 1,75,-1
 224 387 l 1,76,77
 281 432 281 432 339 432 c 0,0,1
EndSplineSet
EndChar

StartChar: n
Encoding: 110 110 81
Width: 567
GlyphClass: 2
Flags: W
LayerCount: 2
Fore
SplineSet
187 64 m 2,0,1
 187 51 187 51 189.5 46.5 c 128,-1,2
 192 42 192 42 202 37 c 0,3,4
 221 27 221 27 256 21 c 1,5,-1
 249 -8 l 1,6,7
 167 0 167 0 145.5 0 c 128,-1,8
 124 0 124 0 42 -8 c 1,9,-1
 34 22 l 1,10,11
 96 32 96 32 104 48 c 0,12,13
 107 53 107 53 107 66 c 2,14,-1
 107 336 l 2,15,16
 107 366 107 366 90 369 c 0,17,18
 73 371 73 371 35 364 c 1,19,-1
 30 394 l 1,20,21
 101 425 101 425 160 432 c 1,22,-1
 176 414 l 1,23,24
 176 388 176 388 186 358 c 1,25,-1
 224 387 l 1,26,27
 281 432 281 432 344 432 c 128,-1,28
 407 432 407 432 440.5 397 c 128,-1,29
 474 362 474 362 474 281 c 2,30,-1
 474 66 l 2,31,32
 474 53 474 53 476.5 48 c 128,-1,33
 479 43 479 43 488 38 c 0,34,35
 502 31 502 31 547 22 c 1,36,-1
 540 -8 l 1,37,38
 458 0 458 0 436.5 0 c 128,-1,39
 415 0 415 0 333 -8 c 1,40,-1
 326 21 l 1,41,42
 384 31 384 31 392 47 c 0,43,44
 394 52 394 52 394 64 c 2,45,-1
 394 261 l 2,46,47
 394 319 394 319 373.5 345 c 128,-1,48
 353 371 353 371 302 371 c 128,-1,49
 251 371 251 371 187 321 c 1,50,-1
 187 64 l 2,0,1
EndSplineSet
EndChar

StartChar: o
Encoding: 111 111 82
Width: 502
GlyphClass: 2
Flags: W
LayerCount: 2
Fore
SplineSet
96 42 m 128,-1,1
 42 100 42 100 42 200.5 c 128,-1,2
 42 301 42 301 99.5 366.5 c 128,-1,3
 157 432 157 432 253.5 432 c 128,-1,4
 350 432 350 432 405 373.5 c 128,-1,5
 460 315 460 315 460 215.5 c 128,-1,6
 460 116 460 116 402 50 c 128,-1,7
 344 -16 344 -16 247 -16 c 128,-1,0
 150 -16 150 -16 96 42 c 128,-1,1
131 219 m 0,8,9
 131 125 131 125 166 75 c 128,-1,10
 201 25 201 25 264 25 c 0,11,12
 370 25 370 25 370 197 c 0,13,14
 370 290 370 290 334.5 340.5 c 128,-1,15
 299 391 299 391 236 391 c 0,16,17
 131 391 131 391 131 219 c 0,8,9
EndSplineSet
EndChar

StartChar: p
Encoding: 112 112 83
Width: 532
GlyphClass: 2
Flags: W
LayerCount: 2
Fore
SplineSet
99 336 m 2,0,1
 99 366 99 366 82 369 c 0,2,3
 65 371 65 371 27 364 c 1,4,-1
 22 394 l 1,5,6
 89 425 89 425 154 432 c 1,7,-1
 170 414 l 1,8,-1
 176 360 l 1,9,-1
 225 395 l 1,10,11
 275 432 275 432 328 432 c 0,12,13
 410 432 410 432 450 376.5 c 128,-1,14
 490 321 490 321 490 220 c 128,-1,15
 490 119 490 119 429 51.5 c 128,-1,16
 368 -16 368 -16 273 -16 c 0,17,18
 222 -16 222 -16 179 10 c 1,19,-1
 179 -178 l 2,20,21
 179 -200 179 -200 200 -207 c 1,22,-1
 272 -220 l 1,23,-1
 264 -253 l 1,24,25
 185 -244 185 -244 149.5 -244 c 128,-1,26
 114 -244 114 -244 40 -253 c 1,27,-1
 32 -223 l 1,28,29
 90 -211 90 -211 96 -197 c 0,30,31
 99 -192 99 -192 99 -179 c 2,32,-1
 99 336 l 2,0,1
282 25 m 0,33,34
 333 25 333 25 367 69.5 c 128,-1,35
 401 114 401 114 401 201 c 0,36,37
 401 372 401 372 285 372 c 0,38,39
 240 372 240 372 179 320 c 1,40,-1
 179 84 l 1,41,42
 195 59 195 59 223.5 42 c 128,-1,43
 252 25 252 25 282 25 c 0,33,34
EndSplineSet
EndChar

StartChar: q
Encoding: 113 113 84
Width: 505
GlyphClass: 2
Flags: W
LayerCount: 2
Fore
SplineSet
435 314 m 2,0,-1
 435 -179 l 2,1,2
 435 -192 435 -192 437.5 -197 c 128,-1,3
 440 -202 440 -202 450 -207 c 1,4,-1
 498 -223 l 1,5,-1
 491 -253 l 1,6,7
 438 -244 438 -244 394 -244 c 128,-1,8
 350 -244 350 -244 269 -253 c 1,9,-1
 262 -220 l 1,10,11
 317 -213 317 -213 336 -206 c 128,-1,12
 355 -199 355 -199 355 -178 c 2,13,-1
 355 45 l 1,14,15
 283 -16 283 -16 223 -16 c 0,16,17
 136 -16 136 -16 89 39.5 c 128,-1,18
 42 95 42 95 42 195.5 c 128,-1,19
 42 296 42 296 100 364 c 128,-1,20
 158 432 158 432 257 432 c 0,21,22
 284 432 284 432 319.5 424 c 128,-1,23
 355 416 355 416 372.5 416 c 128,-1,24
 390 416 390 416 427 432 c 1,25,-1
 442 424 l 1,26,27
 435 394 435 394 435 314 c 2,0,-1
164.5 84.5 m 128,-1,29
 198 43 198 43 250 43 c 128,-1,30
 302 43 302 43 353 79 c 1,31,-1
 353 310 l 2,32,33
 353 347 353 347 323.5 369 c 128,-1,34
 294 391 294 391 245 391 c 128,-1,35
 196 391 196 391 163.5 346 c 128,-1,36
 131 301 131 301 131 213.5 c 128,-1,28
 131 126 131 126 164.5 84.5 c 128,-1,29
EndSplineSet
EndChar

StartChar: r
Encoding: 114 114 85
Width: 381
GlyphClass: 2
Flags: W
LayerCount: 2
Fore
SplineSet
278 364 m 0,0,1
 240 364 240 364 187 289 c 1,2,-1
 187 67 l 2,3,4
 187 54 187 54 191 48.5 c 128,-1,5
 195 43 195 43 206 39 c 0,6,7
 223 32 223 32 283 26 c 1,8,-1
 276 -8 l 1,9,10
 186 0 186 0 147 0 c 128,-1,11
 108 0 108 0 42 -8 c 1,12,-1
 34 22 l 1,13,14
 96 32 96 32 104 48 c 0,15,16
 107 53 107 53 107 66 c 2,17,-1
 107 336 l 2,18,19
 107 366 107 366 90 369 c 0,20,21
 73 371 73 371 35 364 c 1,22,-1
 30 394 l 1,23,24
 100 425 100 425 162 432 c 1,25,-1
 178 414 l 1,26,27
 178 382 178 382 187 337 c 1,28,-1
 220 379 l 1,29,30
 263 432 263 432 310 432 c 0,31,32
 330 432 330 432 381 413 c 1,33,34
 367 334 367 334 347 284 c 1,35,-1
 320 282 l 1,36,37
 320 318 320 318 309.5 341 c 128,-1,38
 299 364 299 364 278 364 c 0,0,1
EndSplineSet
EndChar

StartChar: s
Encoding: 115 115 86
Width: 381
GlyphClass: 2
Flags: W
LayerCount: 2
Fore
SplineSet
179 22 m 0,0,1
 260 22 260 22 260 92 c 0,2,3
 260 123 260 123 237 142 c 128,-1,4
 214 161 214 161 172 181 c 128,-1,5
 130 201 130 201 115 209.5 c 128,-1,6
 100 218 100 218 84 232 c 0,7,8
 51 261 51 261 51 314 c 128,-1,9
 51 367 51 367 91.5 399.5 c 128,-1,10
 132 432 132 432 200 432 c 0,11,12
 232 432 232 432 321 409 c 1,13,14
 315 348 315 348 304 309 c 1,15,-1
 284 305 l 1,16,17
 260 396 260 396 193 396 c 0,18,19
 158 396 158 396 140.5 379 c 128,-1,20
 123 362 123 362 123 335.5 c 128,-1,21
 123 309 123 309 141 293.5 c 128,-1,22
 159 278 159 278 184 266 c 128,-1,23
 209 254 209 254 227 245 c 0,24,25
 279 219 279 219 285.5 212.5 c 128,-1,26
 292 206 292 206 303 197.5 c 128,-1,27
 314 189 314 189 317.5 181.5 c 128,-1,28
 321 174 321 174 327 164 c 0,29,30
 337 146 337 146 337 118 c 0,31,32
 337 52 337 52 291 18 c 128,-1,33
 245 -16 245 -16 173.5 -16 c 128,-1,34
 102 -16 102 -16 48 11 c 1,35,36
 46 25 46 25 46 65.5 c 128,-1,37
 46 106 46 106 48 120 c 1,38,-1
 77 126 l 1,39,40
 85 80 85 80 112 51 c 128,-1,41
 139 22 139 22 179 22 c 0,0,1
EndSplineSet
EndChar

StartChar: t
Encoding: 116 116 87
Width: 336
GlyphClass: 2
Flags: W
LayerCount: 2
Fore
SplineSet
165 124 m 2,0,1
 165 77 165 77 182 61 c 128,-1,2
 199 45 199 45 233.5 45 c 128,-1,3
 268 45 268 45 315 76 c 1,4,-1
 330 53 l 1,5,6
 246 -16 246 -16 191 -16 c 0,7,8
 85 -16 85 -16 85 109 c 2,9,-1
 85 372 l 1,10,-1
 27 372 l 1,11,-1
 22 398 l 1,12,-1
 85 416 l 1,13,-1
 85 483 l 1,14,-1
 165 520 l 1,15,-1
 165 410 l 1,16,-1
 293 419 l 1,17,-1
 285 366 l 1,18,-1
 165 370 l 1,19,-1
 165 124 l 2,0,1
EndSplineSet
EndChar

StartChar: u
Encoding: 117 117 88
Width: 550
GlyphClass: 2
Flags: W
LayerCount: 2
Fore
SplineSet
453 85 m 2,0,1
 453 59 453 59 468 52.5 c 128,-1,2
 483 46 483 46 500 46 c 128,-1,3
 517 46 517 46 532 48 c 1,4,-1
 539 18 l 1,5,6
 470 4 470 4 422 -16 c 1,7,8
 375 18 375 18 375 57 c 1,9,-1
 339 30 l 1,10,11
 280 -16 280 -16 220 -16 c 0,12,13
 93 -16 93 -16 93 135 c 2,14,-1
 93 338 l 2,15,16
 93 370 93 370 76 373 c 0,17,18
 61 375 61 375 26 368 c 1,19,-1
 21 398 l 1,20,21
 80 423 80 423 166 432 c 1,22,-1
 180 414 l 1,23,24
 173 384 173 384 173 316 c 2,25,-1
 173 155 l 2,26,27
 173 98 173 98 194.5 71.5 c 128,-1,28
 216 45 216 45 263 45 c 128,-1,29
 310 45 310 45 372 92 c 1,30,-1
 372 338 l 2,31,32
 372 370 372 370 356 373 c 1,33,34
 338 375 338 375 299 368 c 1,35,-1
 293 398 l 1,36,37
 359 427 359 427 445 432 c 1,38,-1
 460 414 l 1,39,40
 453 384 453 384 453 316 c 2,41,-1
 453 85 l 2,0,1
EndSplineSet
EndChar

StartChar: v
Encoding: 118 118 89
Width: 451
GlyphClass: 2
Flags: W
LayerCount: 2
Fore
SplineSet
352 367 m 0,0,1
 352 380 352 380 336 385 c 1,2,-1
 291 394 l 1,3,-1
 289 423 l 1,4,5
 339 417 339 417 373 417 c 128,-1,6
 407 417 407 417 457 423 c 1,7,-1
 450 392 l 1,8,9
 429 391 429 391 421 383.5 c 128,-1,10
 413 376 413 376 402 350 c 2,11,-1
 251 -9 l 1,12,-1
 205 -9 l 1,13,-1
 51 353 l 2,14,15
 40 378 40 378 32.5 384.5 c 128,-1,16
 25 391 25 391 3 392 c 1,17,-1
 -3 423 l 1,18,19
 63 416 63 416 97 416 c 128,-1,20
 131 416 131 416 197 423 c 1,21,-1
 194 394 l 1,22,23
 162 389 162 389 148 384.5 c 128,-1,24
 134 380 134 380 134 367 c 0,25,26
 134 361 134 361 137 353 c 2,27,-1
 236 112 l 1,28,-1
 242 87 l 1,29,-1
 248 86 l 1,30,-1
 255 114 l 1,31,-1
 348 353 l 2,32,33
 352 361 352 361 352 367 c 0,0,1
EndSplineSet
EndChar

StartChar: w
Encoding: 119 119 90
Width: 686
GlyphClass: 2
Flags: W
LayerCount: 2
Fore
SplineSet
-2 423 m 1,0,1
 64 416 64 416 101 416 c 128,-1,2
 138 416 138 416 204 423 c 1,3,-1
 202 394 l 1,4,5
 162 389 162 389 148 384.5 c 128,-1,6
 134 380 134 380 134 370 c 128,-1,7
 134 360 134 360 137 353 c 2,8,-1
 223 118 l 1,9,-1
 228 92 l 1,10,-1
 233 90 l 1,11,-1
 240 119 l 1,12,-1
 341 416 l 1,13,-1
 389 416 l 1,14,-1
 489 119 l 1,15,-1
 494 92 l 1,16,-1
 500 90 l 1,17,-1
 509 122 l 1,18,-1
 593 353 l 2,19,20
 596 360 596 360 596 366 c 0,21,22
 596 380 596 380 580 385 c 1,23,-1
 528 394 l 1,24,-1
 526 423 l 1,25,26
 576 417 576 417 611 417 c 128,-1,27
 646 417 646 417 696 423 c 1,28,-1
 690 392 l 1,29,30
 667 391 667 391 659 384 c 128,-1,31
 651 377 651 377 642 353 c 2,32,-1
 506 -9 l 1,33,-1
 459 -9 l 1,34,-1
 358 283 l 1,35,-1
 353 309 l 1,36,-1
 347 311 l 1,37,-1
 340 282 l 1,38,-1
 241 -9 l 1,39,-1
 193 -9 l 1,40,-1
 52 353 l 2,41,42
 43 377 43 377 34.5 384 c 128,-1,43
 26 391 26 391 4 392 c 1,44,-1
 -2 423 l 1,0,1
EndSplineSet
EndChar

StartChar: x
Encoding: 120 120 91
Width: 483
GlyphClass: 2
Flags: W
LayerCount: 2
Fore
SplineSet
187 -8 m 1,0,1
 135 0 135 0 96.5 0 c 128,-1,2
 58 0 58 0 10 -8 c 1,3,-1
 3 22 l 1,4,5
 36 24 36 24 77 64 c 1,6,-1
 205 210 l 1,7,-1
 87 358 l 2,8,9
 71 378 71 378 58 384.5 c 128,-1,10
 45 391 45 391 24 393 c 1,11,-1
 20 423 l 1,12,13
 64 416 64 416 125 416 c 128,-1,14
 186 416 186 416 228 423 c 1,15,-1
 226 393 l 1,16,17
 204 390 204 390 192.5 386.5 c 128,-1,18
 181 383 181 383 177.5 374 c 128,-1,19
 174 365 174 365 182 354 c 2,20,-1
 261 254 l 1,21,-1
 340 353 l 2,22,23
 347 363 347 363 342 372.5 c 128,-1,24
 337 382 337 382 325 385 c 2,25,-1
 290 392 l 1,26,-1
 288 422 l 1,27,28
 325 416 325 416 375.5 416 c 128,-1,29
 426 416 426 416 462 422 c 1,30,-1
 459 392 l 1,31,32
 449 392 449 392 444.5 390 c 128,-1,33
 440 388 440 388 437.5 387 c 128,-1,34
 435 386 435 386 431 383.5 c 128,-1,35
 427 381 427 381 425.5 380 c 128,-1,36
 424 379 424 379 420 374 c 1,37,38
 412 367 412 367 406 360 c 0,39,40
 396 350 396 350 287 222 c 1,41,-1
 417 60 l 1,42,43
 448 24 448 24 480 22 c 1,44,-1
 473 -8 l 1,45,46
 423 0 423 0 371.5 0 c 128,-1,47
 320 0 320 0 270 -8 c 1,48,-1
 263 22 l 1,49,50
 295 28 295 28 307 32 c 128,-1,51
 319 36 319 36 323 45.5 c 128,-1,52
 327 55 327 55 319 68 c 1,53,-1
 231 178 l 1,54,-1
 140 68 l 1,55,56
 131 55 131 55 134 45 c 128,-1,57
 137 35 137 35 147 32 c 2,58,-1
 194 22 l 1,59,-1
 187 -8 l 1,0,1
EndSplineSet
EndChar

StartChar: y
Encoding: 121 121 92
Width: 466
GlyphClass: 2
Flags: W
LayerCount: 2
Fore
SplineSet
65 -244 m 2,0,-1
 53 -244 l 1,1,2
 30 -206 30 -206 21 -147 c 1,3,-1
 39 -138 l 1,4,5
 67 -151 67 -151 90 -151 c 0,6,7
 138 -151 138 -151 165 -93 c 2,8,-1
 207 -1 l 1,9,-1
 47 353 l 2,10,11
 35 378 35 378 28 384.5 c 128,-1,12
 21 391 21 391 -1 392 c 1,13,-1
 -7 423 l 1,14,15
 57 416 57 416 92.5 416 c 128,-1,16
 128 416 128 416 192 423 c 1,17,-1
 190 394 l 1,18,19
 158 389 158 389 144 384.5 c 128,-1,20
 130 380 130 380 130 367 c 0,21,22
 130 361 130 361 133 353 c 2,23,-1
 238 113 l 1,24,-1
 243 88 l 1,25,-1
 249 88 l 1,26,-1
 256 118 l 1,27,-1
 350 352 l 2,28,29
 354 360 354 360 354 366 c 0,30,31
 354 379 354 379 338 384 c 1,32,-1
 293 393 l 1,33,-1
 291 422 l 1,34,35
 341 416 341 416 375 416 c 128,-1,36
 409 416 409 416 459 422 c 1,37,-1
 452 391 l 1,38,39
 430 390 430 390 423 383.5 c 128,-1,40
 416 377 416 377 406 352 c 2,41,-1
 195 -139 l 2,42,43
 150 -244 150 -244 65 -244 c 2,0,-1
EndSplineSet
EndChar

StartChar: z
Encoding: 122 122 93
Width: 405
GlyphClass: 2
Flags: W
LayerCount: 2
Fore
SplineSet
165 416 m 2,0,-1
 358 416 l 1,1,-1
 369 393 l 1,2,-1
 131 43 l 1,3,-1
 296 43 l 1,4,5
 305 52 305 52 323 86.5 c 128,-1,6
 341 121 341 121 347 138 c 1,7,-1
 378 132 l 1,8,9
 376 93 376 93 351 0 c 1,10,-1
 35 0 l 1,11,-1
 29 23 l 1,12,-1
 268 375 l 1,13,-1
 114 375 l 1,14,15
 106 365 106 365 93.5 334.5 c 128,-1,16
 81 304 81 304 76 284 c 1,17,-1
 47 289 l 1,18,19
 47 309 47 309 51 356.5 c 128,-1,20
 55 404 55 404 58 419 c 1,21,-1
 78 430 l 1,22,23
 122 416 122 416 165 416 c 2,0,-1
EndSplineSet
EndChar

StartChar: braceleft
Encoding: 123 123 94
Width: 327
GlyphClass: 2
Flags: W
LayerCount: 2
Fore
SplineSet
138 411 m 1,0,-1
 129 564 l 1,1,2
 129 619 129 619 180 642 c 0,3,4
 199 651 199 651 229.5 658 c 128,-1,5
 260 665 260 665 264 666 c 1,6,-1
 277 642 l 1,7,8
 275 641 275 641 263.5 637 c 128,-1,9
 252 633 252 633 248 631 c 128,-1,10
 244 629 244 629 234 624.5 c 128,-1,11
 224 620 224 620 219 616 c 128,-1,12
 214 612 214 612 208 606 c 0,13,14
 197 595 197 595 197 574.5 c 128,-1,15
 197 554 197 554 204 499 c 128,-1,16
 211 444 211 444 211 421 c 0,17,18
 211 364 211 364 180 318 c 128,-1,19
 149 272 149 272 112 261 c 1,20,-1
 112 252 l 1,21,22
 149 241 149 241 180 193.5 c 128,-1,23
 211 146 211 146 211 87 c 0,24,25
 211 61 211 61 204 2.5 c 128,-1,26
 197 -56 197 -56 197 -73 c 128,-1,27
 197 -90 197 -90 199.5 -97 c 128,-1,28
 202 -104 202 -104 208 -110 c 128,-1,29
 214 -116 214 -116 219 -120 c 128,-1,30
 224 -124 224 -124 234 -128.5 c 128,-1,31
 244 -133 244 -133 248 -135 c 128,-1,32
 252 -137 252 -137 263.5 -141 c 128,-1,33
 275 -145 275 -145 277 -146 c 1,34,-1
 264 -170 l 1,35,36
 260 -169 260 -169 238.5 -164 c 128,-1,37
 217 -159 217 -159 207 -156.5 c 128,-1,38
 197 -154 197 -154 179.5 -146 c 128,-1,39
 162 -138 162 -138 153 -128 c 0,40,41
 129 -103 129 -103 129 -68 c 1,42,-1
 138 97 l 1,43,44
 138 152 138 152 116 194.5 c 128,-1,45
 94 237 94 237 53 237 c 1,46,-1
 53 276 l 1,47,48
 94 276 94 276 116 316.5 c 128,-1,49
 138 357 138 357 138 411 c 1,0,-1
EndSplineSet
EndChar

StartChar: bar
Encoding: 124 124 95
Width: 317
GlyphClass: 2
Flags: W
LayerCount: 2
Fore
SplineSet
125 -170 m 1,0,-1
 125 666 l 1,1,-1
 192 666 l 1,2,-1
 192 -170 l 1,3,-1
 125 -170 l 1,0,-1
EndSplineSet
EndChar

StartChar: braceright
Encoding: 125 125 96
Width: 327
GlyphClass: 2
Flags: W
LayerCount: 2
Fore
SplineSet
189 97 m 1,0,-1
 198 -68 l 1,1,2
 198 -123 198 -123 148 -146 c 0,3,4
 128 -155 128 -155 97.5 -162 c 128,-1,5
 67 -169 67 -169 63 -170 c 1,6,-1
 50 -146 l 1,7,8
 52 -145 52 -145 63.5 -141 c 128,-1,9
 75 -137 75 -137 79 -135 c 128,-1,10
 83 -133 83 -133 93 -128.5 c 128,-1,11
 103 -124 103 -124 108 -120 c 128,-1,12
 113 -116 113 -116 119 -110 c 0,13,14
 130 -99 130 -99 130 -77.5 c 128,-1,15
 130 -56 130 -56 123 2.5 c 128,-1,16
 116 61 116 61 116 87 c 0,17,18
 116 146 116 146 147 193.5 c 128,-1,19
 178 241 178 241 215 252 c 1,20,-1
 215 261 l 1,21,22
 178 272 178 272 147 318 c 128,-1,23
 116 364 116 364 116 421 c 0,24,25
 116 444 116 444 123 499 c 128,-1,26
 130 554 130 554 130 570 c 128,-1,27
 130 586 130 586 127.5 593 c 128,-1,28
 125 600 125 600 119 606 c 128,-1,29
 113 612 113 612 108 616 c 128,-1,30
 103 620 103 620 93 624.5 c 128,-1,31
 83 629 83 629 79 631 c 128,-1,32
 75 633 75 633 63.5 637 c 128,-1,33
 52 641 52 641 50 642 c 1,34,-1
 63 666 l 1,35,36
 67 665 67 665 88.5 660 c 128,-1,37
 110 655 110 655 120 652.5 c 128,-1,38
 130 650 130 650 147.5 642 c 128,-1,39
 165 634 165 634 174 624 c 0,40,41
 198 599 198 599 198 564 c 1,42,-1
 189 411 l 1,43,44
 189 357 189 357 211 316.5 c 128,-1,45
 233 276 233 276 274 276 c 1,46,-1
 274 237 l 1,47,48
 233 237 233 237 211 194.5 c 128,-1,49
 189 152 189 152 189 97 c 1,0,-1
EndSplineSet
EndChar

StartChar: asciitilde
Encoding: 126 126 97
Width: 499
GlyphClass: 2
Flags: W
LayerCount: 2
Fore
SplineSet
155 247 m 0,0,1
 114 247 114 247 67 181 c 1,2,-1
 33 203 l 1,3,4
 47 227 47 227 81.5 265.5 c 128,-1,5
 116 304 116 304 135 318 c 1,6,-1
 170 324 l 1,7,8
 187 320 187 320 251.5 286.5 c 128,-1,9
 316 253 316 253 344 253 c 0,10,11
 384 253 384 253 432 320 c 1,12,-1
 466 302 l 1,13,14
 451 276 451 276 416.5 234 c 128,-1,15
 382 192 382 192 364 180 c 1,16,-1
 329 174 l 1,17,18
 311 178 311 178 246.5 212.5 c 128,-1,19
 182 247 182 247 155 247 c 0,0,1
EndSplineSet
EndChar

StartChar: exclamdown
Encoding: 161 161 98
Width: 253
GlyphClass: 2
Flags: W
LayerCount: 2
Fore
SplineSet
71 370 m 128,-1,1
 71 394 71 394 86 409 c 128,-1,2
 101 424 101 424 126.5 424 c 128,-1,3
 152 424 152 424 168 408.5 c 128,-1,4
 184 393 184 393 184 370 c 128,-1,5
 184 347 184 347 168 331.5 c 128,-1,6
 152 316 152 316 127 316 c 128,-1,7
 102 316 102 316 86.5 331 c 128,-1,0
 71 346 71 346 71 370 c 128,-1,1
177 -244 m 1,8,-1
 163 -260 l 1,9,10
 146 -260 146 -260 111 -254 c 128,-1,11
 76 -248 76 -248 68 -242 c 1,12,13
 84 -47 84 -47 108 215 c 1,14,-1
 136 223 l 1,15,-1
 149 216 l 1,16,-1
 156 58 l 1,17,-1
 177 -244 l 1,8,-1
EndSplineSet
EndChar

StartChar: cent
Encoding: 162 162 99
Width: 441
GlyphClass: 2
Flags: W
LayerCount: 2
Fore
SplineSet
90 157 m 128,-1,1
 45 211 45 211 45 297 c 128,-1,2
 45 383 45 383 93.5 446 c 128,-1,3
 142 509 142 509 226 517 c 1,4,-1
 229 605 l 1,5,-1
 267 610 l 1,6,-1
 263 517 l 1,7,8
 329 510 329 510 401 480 c 1,9,10
 399 461 399 461 386.5 416.5 c 128,-1,11
 374 372 374 372 365 355 c 1,12,-1
 328 362 l 1,13,14
 329 372 329 372 329 385 c 0,15,16
 329 440 329 440 318 458 c 1,17,18
 302 469 302 469 262 474 c 1,19,-1
 251 155 l 1,20,21
 259 153 259 153 278 153 c 0,22,23
 331 153 331 153 392 189 c 1,24,-1
 408 165 l 1,25,26
 320 92 320 92 248 90 c 1,27,-1
 245 -12 l 1,28,-1
 207 -16 l 1,29,-1
 211 92 l 1,30,0
 135 103 135 103 90 157 c 128,-1,1
134 319 m 0,31,32
 134 200 134 200 213 165 c 1,33,-1
 224 475 l 1,34,35
 134 465 134 465 134 319 c 0,31,32
EndSplineSet
EndChar

StartChar: sterling
Encoding: 163 163 100
Width: 511
GlyphClass: 2
Flags: W
LayerCount: 2
Fore
SplineSet
127 330 m 1,0,-1
 127 366 l 2,1,2
 127 467 127 467 181 538.5 c 128,-1,3
 235 610 235 610 331 610 c 0,4,5
 376 610 376 610 446 592 c 1,6,7
 438 530 438 530 411 450 c 1,8,-1
 377 448 l 1,9,10
 377 486 377 486 367 548 c 1,11,12
 343 565 343 565 298.5 565 c 128,-1,13
 254 565 254 565 233 522 c 128,-1,14
 212 479 212 479 212 423 c 2,15,-1
 212 330 l 1,16,-1
 362 330 l 1,17,-1
 354 288 l 1,18,-1
 212 288 l 1,19,-1
 212 187 l 2,20,21
 212 109 212 109 174 69 c 1,22,-1
 153 62 l 1,23,-1
 156 56 l 1,24,-1
 388 56 l 1,25,26
 399 67 399 67 416.5 108 c 128,-1,27
 434 149 434 149 439 171 c 1,28,-1
 473 164 l 1,29,30
 472 140 472 140 465 80.5 c 128,-1,31
 458 21 458 21 454 0 c 1,32,-1
 150 0 l 2,33,34
 122 0 122 0 40 -8 c 1,35,-1
 33 24 l 1,36,37
 45 25 45 25 66 32 c 0,38,39
 127 54 127 54 127 125 c 2,40,-1
 127 288 l 1,41,-1
 49 288 l 1,42,-1
 57 330 l 1,43,-1
 127 330 l 1,0,-1
EndSplineSet
EndChar

StartChar: currency
Encoding: 164 164 101
Width: 574
GlyphClass: 2
Flags: W
LayerCount: 2
Fore
SplineSet
91 303 m 128,-1,1
 91 374 91 374 132 428 c 1,2,3
 88 459 88 459 58 485 c 1,4,-1
 61 504 l 1,5,6
 74 523 74 523 87 529 c 1,7,-1
 106 533 l 1,8,9
 136 497 136 497 161 459 c 1,10,11
 215 505 215 505 286.5 505 c 128,-1,12
 358 505 358 505 412 459 c 1,13,14
 442 502 442 502 468 533 c 1,15,-1
 487 529 l 1,16,17
 500 523 500 523 513 504 c 1,18,-1
 516 485 l 1,19,20
 476 451 476 451 442 429 c 1,21,22
 484 372 484 372 484 301.5 c 128,-1,23
 484 231 484 231 442 178 c 1,24,25
 486 147 486 147 516 122 c 1,26,-1
 513 103 l 1,27,28
 500 84 500 84 487 78 c 1,29,-1
 468 74 l 1,30,31
 438 110 438 110 412 147 c 1,32,33
 359 102 359 102 287.5 102 c 128,-1,34
 216 102 216 102 161 147 c 1,35,36
 139 113 139 113 106 74 c 1,37,-1
 87 78 l 1,38,39
 74 84 74 84 61 103 c 1,40,-1
 58 122 l 1,41,42
 92 152 92 152 132 178 c 1,43,0
 91 232 91 232 91 303 c 128,-1,1
194.5 406.5 m 128,-1,45
 157 365 157 365 157 303.5 c 128,-1,46
 157 242 157 242 194.5 200.5 c 128,-1,47
 232 159 232 159 287.5 159 c 128,-1,48
 343 159 343 159 380.5 200.5 c 128,-1,49
 418 242 418 242 418 303.5 c 128,-1,50
 418 365 418 365 380.5 406.5 c 128,-1,51
 343 448 343 448 287.5 448 c 128,-1,44
 232 448 232 448 194.5 406.5 c 128,-1,45
EndSplineSet
EndChar

StartChar: yen
Encoding: 165 165 102
Width: 592
GlyphClass: 2
Flags: W
LayerCount: 2
Fore
SplineSet
250 251 m 1,0,-1
 250 279 l 1,1,-1
 89 515 l 1,2,3
 70 548 70 548 53.5 559 c 128,-1,4
 37 570 37 570 7 573 c 1,5,-1
 3 605 l 1,6,7
 49 596 49 596 118.5 596 c 128,-1,8
 188 596 188 596 256 605 c 1,9,-1
 253 573 l 1,10,11
 222 568 222 568 207 561.5 c 128,-1,12
 192 555 192 555 187 542.5 c 128,-1,13
 182 530 182 530 192 514 c 1,14,-1
 316 340 l 1,15,-1
 439 514 l 2,16,17
 448 526 448 526 446.5 538.5 c 128,-1,18
 445 551 445 551 437.5 555 c 128,-1,19
 430 559 430 559 379 573 c 1,20,-1
 376 605 l 1,21,22
 443 596 443 596 488 596 c 128,-1,23
 533 596 533 596 594 605 c 1,24,-1
 590 573 l 1,25,26
 556 570 556 570 537 557.5 c 128,-1,27
 518 545 518 545 495 508 c 1,28,-1
 339 281 l 1,29,-1
 339 251 l 1,30,-1
 477 251 l 1,31,-1
 469 209 l 1,32,-1
 339 209 l 1,33,-1
 339 156 l 1,34,-1
 463 156 l 1,35,-1
 455 114 l 1,36,-1
 339 114 l 1,37,-1
 339 68 l 2,38,39
 339 44 339 44 355 37 c 0,40,41
 371 29 371 29 427 23 c 1,42,-1
 419 -8 l 1,43,44
 353 0 353 0 295.5 0 c 128,-1,45
 238 0 238 0 172 -8 c 1,46,-1
 165 24 l 1,47,48
 215 29 215 29 232.5 36.5 c 128,-1,49
 250 44 250 44 250 68 c 2,50,-1
 250 114 l 1,51,-1
 115 114 l 1,52,-1
 123 156 l 1,53,-1
 250 156 l 1,54,-1
 250 209 l 1,55,-1
 129 209 l 1,56,-1
 137 251 l 1,57,-1
 250 251 l 1,0,-1
EndSplineSet
EndChar

StartChar: brokenbar
Encoding: 166 166 103
Width: 317
GlyphClass: 2
Flags: W
LayerCount: 2
Fore
SplineSet
125 -170 m 1,0,-1
 125 119 l 1,1,-1
 192 119 l 1,2,-1
 192 -170 l 1,3,-1
 125 -170 l 1,0,-1
125 384 m 1,4,-1
 125 666 l 1,5,-1
 192 666 l 1,6,-1
 192 384 l 1,7,-1
 125 384 l 1,4,-1
EndSplineSet
EndChar

StartChar: section
Encoding: 167 167 104
Width: 448
GlyphClass: 2
Flags: W
LayerCount: 2
Fore
SplineSet
53 266 m 0,0,1
 53 300 53 300 73 332.5 c 128,-1,2
 93 365 93 365 123 384 c 1,3,4
 50 434 50 434 50 509 c 128,-1,5
 50 584 50 584 100.5 625 c 128,-1,6
 151 666 151 666 236 666 c 0,7,8
 278 666 278 666 373 639 c 1,9,10
 372 618 372 618 365.5 572 c 128,-1,11
 359 526 359 526 354 510 c 1,12,-1
 327 505 l 1,13,14
 313 582 313 582 304 600 c 1,15,16
 277 623 277 623 228.5 623 c 128,-1,17
 180 623 180 623 157 599.5 c 128,-1,18
 134 576 134 576 134 541 c 128,-1,19
 134 506 134 506 157 485.5 c 128,-1,20
 180 465 180 465 214.5 444 c 128,-1,21
 249 423 249 423 273.5 408.5 c 128,-1,22
 298 394 298 394 306 388.5 c 128,-1,23
 314 383 314 383 333 369 c 128,-1,24
 352 355 352 355 359 345 c 128,-1,25
 366 335 366 335 376 318 c 0,26,27
 395 289 395 289 395 248 c 128,-1,28
 395 207 395 207 371.5 172 c 128,-1,29
 348 137 348 137 315 119 c 1,30,31
 392 65 392 65 392 -11 c 128,-1,32
 392 -87 392 -87 336.5 -129 c 128,-1,33
 281 -171 281 -171 193.5 -171 c 128,-1,34
 106 -171 106 -171 48 -136 c 1,35,36
 46 -94 46 -94 46 -59 c 128,-1,37
 46 -24 46 -24 48 3 c 1,38,-1
 81 10 l 1,39,40
 89 -51 89 -51 121.5 -88.5 c 128,-1,41
 154 -126 154 -126 202 -126 c 0,42,43
 303 -126 303 -126 303 -36 c 0,44,45
 303 4 303 4 268 33 c 0,46,47
 237 58 237 58 173 96 c 1,48,49
 109 138 109 138 90 159 c 0,50,51
 53 200 53 200 53 266 c 0,0,1
313 214 m 0,52,53
 313 255 313 255 285 282 c 0,54,55
 253 312 253 312 165 358 c 1,56,57
 130 334 130 334 130 291 c 0,58,59
 130 265 130 265 144 244 c 128,-1,60
 158 223 158 223 172 212.5 c 128,-1,61
 186 202 186 202 214 184 c 1,62,63
 267 147 267 147 274 144 c 1,64,65
 292 155 292 155 302.5 175.5 c 128,-1,66
 313 196 313 196 313 214 c 0,52,53
EndSplineSet
EndChar

StartChar: dieresis
Encoding: 168 168 105
Width: 384
GlyphClass: 2
Flags: W
LayerCount: 2
Fore
SplineSet
40 591 m 128,-1,1
 40 614 40 614 55.5 629 c 128,-1,2
 71 644 71 644 95.5 644 c 128,-1,3
 120 644 120 644 135.5 629 c 128,-1,4
 151 614 151 614 151 591 c 128,-1,5
 151 568 151 568 135.5 553.5 c 128,-1,6
 120 539 120 539 95.5 539 c 128,-1,7
 71 539 71 539 55.5 553.5 c 128,-1,0
 40 568 40 568 40 591 c 128,-1,1
232 591 m 128,-1,9
 232 614 232 614 247.5 629 c 128,-1,10
 263 644 263 644 287.5 644 c 128,-1,11
 312 644 312 644 327.5 629 c 128,-1,12
 343 614 343 614 343 591 c 128,-1,13
 343 568 343 568 327.5 553.5 c 128,-1,14
 312 539 312 539 287.5 539 c 128,-1,15
 263 539 263 539 247.5 553.5 c 128,-1,8
 232 568 232 568 232 591 c 128,-1,9
EndSplineSet
EndChar

StartChar: copyright
Encoding: 169 169 106
Width: 706
GlyphClass: 2
Flags: W
LayerCount: 2
Fore
SplineSet
361 133 m 0,0,1
 285 133 285 133 236 176 c 128,-1,2
 187 219 187 219 187 295 c 128,-1,3
 187 371 187 371 235.5 422 c 128,-1,4
 284 473 284 473 364 473 c 0,5,6
 400 473 400 473 477 456 c 1,7,8
 473 401 473 401 464 364 c 1,9,-1
 441 360 l 1,10,11
 435 417 435 417 431 427 c 1,12,13
 405 439 405 439 357.5 439 c 128,-1,14
 310 439 310 439 284 403 c 128,-1,15
 258 367 258 367 258 308.5 c 128,-1,16
 258 250 258 250 288 208.5 c 128,-1,17
 318 167 318 167 360.5 167 c 128,-1,18
 403 167 403 167 422.5 184 c 128,-1,19
 442 201 442 201 455 241 c 1,20,-1
 475 239 l 1,21,22
 475 206 475 206 465 150 c 1,23,24
 414 133 414 133 361 133 c 0,0,1
40 297 m 128,-1,26
 40 427 40 427 131.5 518.5 c 128,-1,27
 223 610 223 610 353 610 c 128,-1,28
 483 610 483 610 574.5 518.5 c 128,-1,29
 666 427 666 427 666 297 c 128,-1,30
 666 167 666 167 574.5 75.5 c 128,-1,31
 483 -16 483 -16 353 -16 c 128,-1,32
 223 -16 223 -16 131.5 75.5 c 128,-1,25
 40 167 40 167 40 297 c 128,-1,26
84 297 m 128,-1,34
 84 183 84 183 162.5 103 c 128,-1,35
 241 23 241 23 353 23 c 128,-1,36
 465 23 465 23 543.5 103 c 128,-1,37
 622 183 622 183 622 297 c 128,-1,38
 622 411 622 411 543.5 491 c 128,-1,39
 465 571 465 571 353 571 c 128,-1,40
 241 571 241 571 162.5 491 c 128,-1,33
 84 411 84 411 84 297 c 128,-1,34
EndSplineSet
EndChar

StartChar: ordfeminine
Encoding: 170 170 107
Width: 381
GlyphClass: 2
Flags: W
LayerCount: 2
Fore
SplineSet
283 511 m 2,0,-1
 283 386 l 2,1,2
 283 371 283 371 290 365 c 1,3,4
 297 362 297 362 307 362 c 128,-1,5
 317 362 317 362 329 364 c 1,6,-1
 335 333 l 1,7,8
 297 326 297 326 252 306 c 1,9,10
 242 311 242 311 231.5 324.5 c 128,-1,11
 221 338 221 338 218 351 c 1,12,13
 181 323 181 323 162 314.5 c 128,-1,14
 143 306 143 306 127 306 c 0,15,16
 91 306 91 306 70.5 327.5 c 128,-1,17
 50 349 50 349 50 387.5 c 128,-1,18
 50 426 50 426 77.5 443 c 128,-1,19
 105 460 105 460 157 466 c 2,20,-1
 213 473 l 1,21,-1
 213 502 l 2,22,23
 213 574 213 574 165 574 c 0,24,25
 141 574 141 574 123 566 c 1,26,27
 118 549 118 549 118 533.5 c 128,-1,28
 118 518 118 518 119 507 c 1,29,-1
 86 499 l 1,30,31
 82 509 82 509 75 536.5 c 128,-1,32
 68 564 68 564 67 575 c 1,33,34
 142 610 142 610 182 610 c 0,35,36
 283 610 283 610 283 511 c 2,0,-1
126 392 m 0,37,38
 126 377 126 377 135 367.5 c 128,-1,39
 144 358 144 358 166 358 c 128,-1,40
 188 358 188 358 213 378 c 1,41,-1
 213 443 l 1,42,-1
 172 436 l 1,43,44
 126 427 126 427 126 392 c 0,37,38
EndSplineSet
EndChar

StartChar: guillemotleft
Encoding: 171 171 108
Width: 466
GlyphClass: 2
Flags: W
LayerCount: 2
Fore
SplineSet
218 28 m 1,0,-1
 45 196 l 1,1,-1
 45 220 l 1,2,-1
 218 388 l 1,3,-1
 241 366 l 1,4,-1
 138 208 l 1,5,-1
 241 50 l 1,6,-1
 218 28 l 1,0,-1
396 28 m 1,7,-1
 223 196 l 1,8,-1
 223 220 l 1,9,-1
 396 388 l 1,10,-1
 419 366 l 1,11,-1
 316 208 l 1,12,-1
 419 50 l 1,13,-1
 396 28 l 1,7,-1
EndSplineSet
EndChar

StartChar: logicalnot
Encoding: 172 172 109
Width: 567
GlyphClass: 2
Flags: W
LayerCount: 2
Fore
SplineSet
54 234 m 1,0,-1
 54 299 l 1,1,-1
 513 299 l 1,2,-1
 513 100 l 1,3,-1
 453 100 l 1,4,-1
 453 234 l 1,5,-1
 54 234 l 1,0,-1
EndSplineSet
EndChar

StartChar: registered
Encoding: 174 174 110
Width: 497
GlyphClass: 2
Flags: W
LayerCount: 2
Fore
SplineSet
223 468 m 1,0,-1
 241 468 l 2,1,2
 279 468 279 468 279 504.5 c 128,-1,3
 279 541 279 541 244 541 c 0,4,5
 230 541 230 541 223 538 c 1,6,-1
 223 468 l 1,0,-1
163 377 m 1,7,8
 185 377 185 377 185 389 c 2,9,-1
 185 529 l 2,10,11
 185 536 185 536 180 537 c 2,12,-1
 163 541 l 1,13,-1
 164 557 l 1,14,15
 168 557 168 557 176 557 c 2,16,-1
 244 559 l 2,17,18
 277 559 277 559 298 546.5 c 128,-1,19
 319 534 319 534 319 511.5 c 128,-1,20
 319 489 319 489 305.5 475 c 128,-1,21
 292 461 292 461 273 460 c 1,22,-1
 273 457 l 1,23,24
 285 454 285 454 305.5 421.5 c 128,-1,25
 326 389 326 389 335 383 c 128,-1,26
 344 377 344 377 360 377 c 1,27,-1
 357 361 l 1,28,-1
 310 361 l 2,29,30
 301 361 301 361 293 373.5 c 128,-1,31
 285 386 285 386 280.5 393.5 c 128,-1,32
 276 401 276 401 269 412 c 0,33,34
 250 444 250 444 245 446.5 c 128,-1,35
 240 449 240 449 238 449 c 2,36,-1
 223 449 l 1,37,-1
 223 392 l 2,38,39
 223 383 223 383 230 381 c 2,40,-1
 255 377 l 1,41,-1
 253 360 l 1,42,43
 221 362 221 362 208.5 362 c 128,-1,44
 196 362 196 362 164 360 c 1,45,-1
 163 377 l 1,7,8
32 449 m 128,-1,47
 32 540 32 540 95 603 c 128,-1,48
 158 666 158 666 249 666 c 128,-1,49
 340 666 340 666 402.5 603 c 128,-1,50
 465 540 465 540 465 449 c 128,-1,51
 465 358 465 358 402.5 295.5 c 128,-1,52
 340 233 340 233 249 233 c 128,-1,53
 158 233 158 233 95 295.5 c 128,-1,46
 32 358 32 358 32 449 c 128,-1,47
73 449 m 128,-1,55
 73 373 73 373 124.5 319 c 128,-1,56
 176 265 176 265 248.5 265 c 128,-1,57
 321 265 321 265 372.5 319 c 128,-1,58
 424 373 424 373 424 449 c 128,-1,59
 424 525 424 525 372.5 579.5 c 128,-1,60
 321 634 321 634 248.5 634 c 128,-1,61
 176 634 176 634 124.5 579.5 c 128,-1,54
 73 525 73 525 73 449 c 128,-1,55
EndSplineSet
EndChar

StartChar: degree
Encoding: 176 176 111
Width: 299
GlyphClass: 2
Flags: W
LayerCount: 2
Fore
SplineSet
27 548 m 128,-1,1
 27 597 27 597 62.5 631.5 c 128,-1,2
 98 666 98 666 148.5 666 c 128,-1,3
 199 666 199 666 235.5 631.5 c 128,-1,4
 272 597 272 597 272 548 c 128,-1,5
 272 499 272 499 235.5 464.5 c 128,-1,6
 199 430 199 430 148.5 430 c 128,-1,7
 98 430 98 430 62.5 464.5 c 128,-1,0
 27 499 27 499 27 548 c 128,-1,1
78 548 m 128,-1,9
 78 520 78 520 98.5 499 c 128,-1,10
 119 478 119 478 148.5 478 c 128,-1,11
 178 478 178 478 199.5 499 c 128,-1,12
 221 520 221 520 221 548 c 128,-1,13
 221 576 221 576 199.5 597 c 128,-1,14
 178 618 178 618 148.5 618 c 128,-1,15
 119 618 119 618 98.5 597 c 128,-1,8
 78 576 78 576 78 548 c 128,-1,9
EndSplineSet
EndChar

StartChar: plusminus
Encoding: 177 177 112
Width: 460
GlyphClass: 2
Flags: W
LayerCount: 2
Fore
SplineSet
261 496 m 1,0,-1
 261 341 l 1,1,-1
 410 341 l 1,2,-1
 410 285 l 1,3,-1
 261 285 l 1,4,-1
 261 127 l 1,5,-1
 199 127 l 1,6,-1
 199 285 l 1,7,-1
 50 285 l 1,8,-1
 50 341 l 1,9,-1
 199 341 l 1,10,-1
 199 496 l 1,11,-1
 261 496 l 1,0,-1
414 18 m 1,12,-1
 46 18 l 1,13,-1
 46 74 l 1,14,-1
 414 74 l 1,15,-1
 414 18 l 1,12,-1
EndSplineSet
EndChar

StartChar: twosuperior
Encoding: 178 178 113
Width: 367
GlyphClass: 2
Flags: W
LayerCount: 2
Fore
SplineSet
106 612 m 1,0,1
 103 596 103 596 103 578.5 c 128,-1,2
 103 561 103 561 105 543 c 1,3,-1
 73 539 l 1,4,5
 54 575 54 575 45 635 c 1,6,7
 123 665 123 665 170.5 665 c 128,-1,8
 218 665 218 665 251.5 641 c 128,-1,9
 285 617 285 617 285 568 c 0,10,11
 285 540 285 540 273 515 c 128,-1,12
 261 490 261 490 248 476 c 0,13,14
 208 431 208 431 127 368 c 1,15,-1
 130 361 l 1,16,-1
 251 361 l 1,17,18
 259 368 259 368 274 389.5 c 128,-1,19
 289 411 289 411 293 422 c 1,20,-1
 320 417 l 1,21,22
 320 406 320 406 312 367.5 c 128,-1,23
 304 329 304 329 299 315 c 1,24,-1
 50 315 l 1,25,-1
 45 355 l 1,26,27
 115 416 115 416 150 459 c 1,28,29
 206 517 206 517 206 563 c 0,30,31
 206 590 206 590 193.5 607 c 128,-1,32
 181 624 181 624 154.5 624 c 128,-1,33
 128 624 128 624 106 612 c 1,0,1
EndSplineSet
EndChar

StartChar: threesuperior
Encoding: 179 179 114
Width: 347
GlyphClass: 2
Flags: W
LayerCount: 2
Fore
SplineSet
203 574 m 128,-1,1
 203 598 203 598 190 611.5 c 128,-1,2
 177 625 177 625 147 625 c 128,-1,3
 117 625 117 625 102 618 c 1,4,5
 99 585 99 585 99 572.5 c 128,-1,6
 99 560 99 560 99 556 c 1,7,-1
 71 551 l 1,8,9
 55 578 55 578 48 641 c 1,10,11
 137 666 137 666 175.5 666 c 128,-1,12
 214 666 214 666 246 646 c 128,-1,13
 278 626 278 626 278 592.5 c 128,-1,14
 278 559 278 559 253.5 537 c 128,-1,15
 229 515 229 515 198 509 c 1,16,-1
 198 502 l 1,17,18
 239 502 239 502 269.5 481 c 128,-1,19
 300 460 300 460 300 414.5 c 128,-1,20
 300 369 300 369 257.5 337.5 c 128,-1,21
 215 306 215 306 162 306 c 128,-1,22
 109 306 109 306 43 324 c 1,23,24
 44 338 44 338 52.5 373.5 c 128,-1,25
 61 409 61 409 67 425 c 1,26,-1
 96 421 l 1,27,28
 95 406 95 406 95 385.5 c 128,-1,29
 95 365 95 365 99 354 c 1,30,31
 120 347 120 347 149.5 347 c 128,-1,32
 179 347 179 347 200 363.5 c 128,-1,33
 221 380 221 380 221 406 c 0,34,35
 221 476 221 476 143 476 c 0,36,37
 135 476 135 476 126 475 c 1,38,-1
 128 505 l 1,39,40
 154 510 154 510 178.5 530 c 128,-1,0
 203 550 203 550 203 574 c 128,-1,1
EndSplineSet
EndChar

StartChar: acute
Encoding: 180 180 115
Width: 322
GlyphClass: 2
Flags: W
LayerCount: 2
Fore
SplineSet
151 670 m 1,0,1
 178 676 178 676 205 676 c 128,-1,2
 232 676 232 676 236 676 c 1,3,-1
 246 660 l 1,4,-1
 95 498 l 1,5,-1
 63 517 l 1,6,7
 73 536 73 536 108 598.5 c 128,-1,8
 143 661 143 661 151 670 c 1,0,1
EndSplineSet
EndChar

StartChar: mu
Encoding: 181 181 116
AltUni2: 0003bc.ffffffff.0
Width: 523
GlyphClass: 2
Flags: W
LayerCount: 2
Fore
SplineSet
116 14 m 1,0,1
 116 -181 116 -181 156 -249 c 1,2,-1
 142 -260 l 1,3,4
 126 -260 126 -260 102 -254.5 c 128,-1,5
 78 -249 78 -249 68 -243 c 1,6,7
 69 -94 69 -94 83 117 c 1,8,-1
 83 401 l 1,9,-1
 93 416 l 1,10,11
 119 428 119 428 155 432 c 1,12,-1
 170 414 l 1,13,14
 163 388 163 388 163 316 c 2,15,-1
 163 155 l 2,16,17
 163 101 163 101 178.5 75.5 c 128,-1,18
 194 50 194 50 232.5 50 c 128,-1,19
 271 50 271 50 306.5 98.5 c 128,-1,20
 342 147 342 147 342 194 c 2,21,-1
 342 401 l 1,22,-1
 352 416 l 1,23,24
 378 427 378 427 415 432 c 1,25,-1
 430 414 l 1,26,27
 423 384 423 384 423 316 c 2,28,-1
 423 95 l 2,29,30
 423 52 423 52 447 52 c 0,31,32
 461 52 461 52 481 69.5 c 128,-1,33
 501 87 501 87 515 105 c 1,34,-1
 535 88 l 1,35,36
 471 -16 471 -16 414 -16 c 0,37,38
 383 -16 383 -16 364 7 c 128,-1,39
 345 30 345 30 345 63 c 2,40,-1
 345 96 l 1,41,42
 310 38 310 38 275 11 c 128,-1,43
 240 -16 240 -16 191.5 -16 c 128,-1,44
 143 -16 143 -16 116 14 c 1,0,1
EndSplineSet
EndChar

StartChar: paragraph
Encoding: 182 182 117
Width: 481
GlyphClass: 2
Flags: W
LayerCount: 2
Fore
SplineSet
70.5 293.5 m 128,-1,1
 22 339 22 339 22 420.5 c 128,-1,2
 22 502 22 502 71.5 556 c 128,-1,3
 121 610 121 610 203 610 c 2,4,-1
 233 610 l 1,5,-1
 256 591 l 1,6,-1
 256 267 l 1,7,-1
 233 248 l 1,8,-1
 203 248 l 2,9,0
 119 248 119 248 70.5 293.5 c 128,-1,1
373 565 m 2,10,-1
 373 42 l 2,11,12
 373 -79 373 -79 306 -138 c 0,13,14
 270 -170 270 -170 223 -170 c 2,15,-1
 211 -170 l 1,16,17
 185 -138 185 -138 164 -53 c 1,18,-1
 184 -43 l 1,19,20
 216 -62 216 -62 239.5 -62 c 128,-1,21
 263 -62 263 -62 281.5 -44.5 c 128,-1,22
 300 -27 300 -27 306 0 c 1,23,24
 313 22 313 22 313 77 c 2,25,-1
 313 522 l 2,26,27
 313 609 313 609 300 643 c 1,28,-1
 320 666 l 1,29,30
 402 658 402 658 471 631 c 1,31,-1
 462 591 l 1,32,33
 423 599 423 599 402.5 599 c 128,-1,34
 382 599 382 599 377.5 591.5 c 128,-1,35
 373 584 373 584 373 565 c 2,10,-1
EndSplineSet
EndChar

StartChar: periodcentered
Encoding: 183 183 118
Width: 285
GlyphClass: 2
Flags: W
LayerCount: 2
Fore
SplineSet
87 271 m 128,-1,1
 87 294 87 294 102.5 309 c 128,-1,2
 118 324 118 324 142.5 324 c 128,-1,3
 167 324 167 324 182.5 309 c 128,-1,4
 198 294 198 294 198 271 c 128,-1,5
 198 248 198 248 182.5 233.5 c 128,-1,6
 167 219 167 219 142.5 219 c 128,-1,7
 118 219 118 219 102.5 233.5 c 128,-1,0
 87 248 87 248 87 271 c 128,-1,1
EndSplineSet
EndChar

StartChar: cedilla
Encoding: 184 184 119
Width: 322
GlyphClass: 2
Flags: W
LayerCount: 2
Fore
SplineSet
223.5 -93.5 m 128,-1,1
 246 -116 246 -116 246 -153.5 c 128,-1,2
 246 -191 246 -191 218.5 -214.5 c 128,-1,3
 191 -238 191 -238 149.5 -239 c 128,-1,4
 108 -240 108 -240 57 -211 c 1,5,-1
 72 -180 l 1,6,7
 112 -198 112 -198 140 -198 c 0,8,9
 193 -198 193 -198 193 -158 c 0,10,11
 193 -132 193 -132 170 -118 c 0,12,13
 155 -110 155 -110 140 -110 c 128,-1,14
 125 -110 125 -110 112 -113 c 1,15,-1
 99 -92 l 1,16,-1
 151 0 l 1,17,-1
 191 0 l 1,18,-1
 169 -71 l 1,19,0
 201 -71 201 -71 223.5 -93.5 c 128,-1,1
EndSplineSet
EndChar

StartChar: onesuperior
Encoding: 185 185 120
Width: 293
GlyphClass: 2
Flags: W
LayerCount: 2
Fore
SplineSet
188 379 m 2,0,1
 188 362 188 362 202 355 c 0,2,3
 214 348 214 348 253 342 c 1,4,-1
 248 310 l 1,5,6
 210 315 210 315 150.5 315 c 128,-1,7
 91 315 91 315 55 310 c 1,8,-1
 48 342 l 1,9,10
 88 347 88 347 103 354.5 c 128,-1,11
 118 362 118 362 118 379 c 2,12,-1
 118 575 l 2,13,14
 118 591 118 591 112 597.5 c 128,-1,15
 106 604 106 604 90 604 c 2,16,-1
 50 604 l 1,17,-1
 46 628 l 1,18,19
 115 657 115 657 171 666 c 1,20,-1
 188 649 l 1,21,-1
 188 379 l 2,0,1
EndSplineSet
EndChar

StartChar: ordmasculine
Encoding: 186 186 121
Width: 382
GlyphClass: 2
Flags: W
LayerCount: 2
Fore
SplineSet
81.5 345 m 128,-1,1
 43 385 43 385 43 453 c 128,-1,2
 43 521 43 521 84 565.5 c 128,-1,3
 125 610 125 610 193 610 c 128,-1,4
 261 610 261 610 300 570.5 c 128,-1,5
 339 531 339 531 339 463 c 128,-1,6
 339 395 339 395 298 350 c 128,-1,7
 257 305 257 305 188.5 305 c 128,-1,0
 120 305 120 305 81.5 345 c 128,-1,1
122 466 m 0,8,9
 122 408 122 408 142.5 377 c 128,-1,10
 163 346 163 346 200 346 c 0,11,12
 259 346 259 346 259 452 c 0,13,14
 259 508 259 508 238.5 538.5 c 128,-1,15
 218 569 218 569 181 569 c 0,16,17
 122 569 122 569 122 466 c 0,8,9
EndSplineSet
EndChar

StartChar: guillemotright
Encoding: 187 187 122
Width: 466
GlyphClass: 2
Flags: W
LayerCount: 2
Fore
SplineSet
421 196 m 1,0,-1
 248 28 l 1,1,-1
 225 50 l 1,2,-1
 328 208 l 1,3,-1
 225 366 l 1,4,-1
 248 388 l 1,5,-1
 421 220 l 1,6,-1
 421 196 l 1,0,-1
243 196 m 1,7,-1
 70 28 l 1,8,-1
 47 50 l 1,9,-1
 150 208 l 1,10,-1
 47 366 l 1,11,-1
 70 388 l 1,12,-1
 243 220 l 1,13,-1
 243 196 l 1,7,-1
EndSplineSet
EndChar

StartChar: onequarter
Encoding: 188 188 123
Width: 731
GlyphClass: 2
Flags: W
LayerCount: 2
Fore
SplineSet
183 8 m 1,0,-1
 543 687 l 1,1,-1
 583 663 l 1,2,-1
 223 -16 l 1,3,-1
 183 8 l 1,0,-1
204 379 m 2,4,5
 204 362 204 362 218 355 c 0,6,7
 230 348 230 348 269 342 c 1,8,-1
 264 310 l 1,9,10
 226 315 226 315 166.5 315 c 128,-1,11
 107 315 107 315 71 310 c 1,12,-1
 64 342 l 1,13,14
 104 347 104 347 119 354.5 c 128,-1,15
 134 362 134 362 134 379 c 2,16,-1
 134 575 l 2,17,18
 134 591 134 591 128 597.5 c 128,-1,19
 122 604 122 604 106 604 c 2,20,-1
 66 604 l 1,21,-1
 62 628 l 1,22,23
 131 657 131 657 187 666 c 1,24,-1
 204 649 l 1,25,-1
 204 379 l 2,4,5
616 100 m 1,26,-1
 616 55 l 2,27,28
 616 42 616 42 627 36 c 1,29,-1
 656 27 l 1,30,-1
 652 -5 l 1,31,32
 602 0 602 0 579 0 c 128,-1,33
 556 0 556 0 496 -5 c 1,34,-1
 492 27 l 1,35,36
 524 31 524 31 535 36.5 c 128,-1,37
 546 42 546 42 546 55 c 2,38,-1
 546 100 l 1,39,-1
 419 100 l 1,40,-1
 397 137 l 1,41,-1
 553 351 l 1,42,-1
 616 351 l 1,43,-1
 616 146 l 1,44,-1
 665 146 l 1,45,-1
 655 100 l 1,46,-1
 616 100 l 1,26,-1
546 146 m 1,47,-1
 546 284 l 1,48,-1
 544 285 l 1,49,-1
 538 271 l 1,50,-1
 451 151 l 1,51,-1
 454 146 l 1,52,-1
 546 146 l 1,47,-1
EndSplineSet
EndChar

StartChar: onehalf
Encoding: 189 189 124
Width: 779
GlyphClass: 2
Flags: W
LayerCount: 2
Fore
SplineSet
161 8 m 1,0,-1
 521 687 l 1,1,-1
 561 663 l 1,2,-1
 201 -16 l 1,3,-1
 161 8 l 1,0,-1
204 379 m 2,4,5
 204 362 204 362 218 355 c 0,6,7
 230 348 230 348 269 342 c 1,8,-1
 264 310 l 1,9,10
 226 315 226 315 166.5 315 c 128,-1,11
 107 315 107 315 71 310 c 1,12,-1
 64 342 l 1,13,14
 104 347 104 347 119 354.5 c 128,-1,15
 134 362 134 362 134 379 c 2,16,-1
 134 575 l 2,17,18
 134 591 134 591 128 597.5 c 128,-1,19
 122 604 122 604 106 604 c 2,20,-1
 66 604 l 1,21,-1
 62 628 l 1,22,23
 131 657 131 657 187 666 c 1,24,-1
 204 649 l 1,25,-1
 204 379 l 2,4,5
497 297 m 1,26,27
 494 281 494 281 494 263.5 c 128,-1,28
 494 246 494 246 496 228 c 1,29,-1
 464 224 l 1,30,31
 445 260 445 260 436 320 c 1,32,33
 514 350 514 350 561.5 350 c 128,-1,34
 609 350 609 350 642.5 326 c 128,-1,35
 676 302 676 302 676 253 c 0,36,37
 676 225 676 225 664 200 c 128,-1,38
 652 175 652 175 639 160 c 0,39,40
 603 120 603 120 518 53 c 1,41,-1
 521 46 l 1,42,-1
 642 46 l 1,43,44
 650 53 650 53 665 74.5 c 128,-1,45
 680 96 680 96 684 107 c 1,46,-1
 711 102 l 1,47,48
 711 91 711 91 703 52.5 c 128,-1,49
 695 14 695 14 690 0 c 1,50,-1
 441 0 l 1,51,-1
 436 40 l 1,52,53
 506 101 506 101 541 144 c 1,54,55
 597 202 597 202 597 248 c 0,56,57
 597 275 597 275 584.5 292 c 128,-1,58
 572 309 572 309 545.5 309 c 128,-1,59
 519 309 519 309 497 297 c 1,26,27
EndSplineSet
EndChar

StartChar: threequarters
Encoding: 190 190 125
Width: 738
GlyphClass: 2
Flags: W
LayerCount: 2
Fore
SplineSet
190 8 m 1,0,-1
 550 687 l 1,1,-1
 590 663 l 1,2,-1
 230 -16 l 1,3,-1
 190 8 l 1,0,-1
216 574 m 128,-1,5
 216 598 216 598 203 611.5 c 128,-1,6
 190 625 190 625 160 625 c 128,-1,7
 130 625 130 625 115 618 c 1,8,9
 112 585 112 585 112 572.5 c 128,-1,10
 112 560 112 560 112 556 c 1,11,-1
 84 551 l 1,12,13
 68 578 68 578 61 641 c 1,14,15
 150 666 150 666 188.5 666 c 128,-1,16
 227 666 227 666 259 646 c 128,-1,17
 291 626 291 626 291 592.5 c 128,-1,18
 291 559 291 559 266.5 537 c 128,-1,19
 242 515 242 515 211 509 c 1,20,-1
 211 502 l 1,21,22
 252 502 252 502 282.5 481 c 128,-1,23
 313 460 313 460 313 414.5 c 128,-1,24
 313 369 313 369 270.5 337.5 c 128,-1,25
 228 306 228 306 175 306 c 128,-1,26
 122 306 122 306 56 324 c 1,27,28
 57 338 57 338 65.5 373.5 c 128,-1,29
 74 409 74 409 80 425 c 1,30,-1
 109 421 l 1,31,32
 108 406 108 406 108 385.5 c 128,-1,33
 108 365 108 365 112 354 c 1,34,35
 133 347 133 347 162.5 347 c 128,-1,36
 192 347 192 347 213 363.5 c 128,-1,37
 234 380 234 380 234 406 c 0,38,39
 234 476 234 476 156 476 c 0,40,41
 148 476 148 476 139 475 c 1,42,-1
 141 505 l 1,43,44
 167 510 167 510 191.5 530 c 128,-1,4
 216 550 216 550 216 574 c 128,-1,5
623 100 m 1,45,-1
 623 55 l 2,46,47
 623 42 623 42 634 36 c 1,48,-1
 663 27 l 1,49,-1
 659 -5 l 1,50,51
 609 0 609 0 586 0 c 128,-1,52
 563 0 563 0 503 -5 c 1,53,-1
 499 27 l 1,54,55
 531 31 531 31 542 36.5 c 128,-1,56
 553 42 553 42 553 55 c 2,57,-1
 553 100 l 1,58,-1
 426 100 l 1,59,-1
 404 137 l 1,60,-1
 560 351 l 1,61,-1
 623 351 l 1,62,-1
 623 146 l 1,63,-1
 672 146 l 1,64,-1
 662 100 l 1,65,-1
 623 100 l 1,45,-1
553 146 m 1,66,-1
 553 284 l 1,67,-1
 551 285 l 1,68,-1
 545 271 l 1,69,-1
 458 151 l 1,70,-1
 461 146 l 1,71,-1
 553 146 l 1,66,-1
EndSplineSet
EndChar

StartChar: questiondown
Encoding: 191 191 126
Width: 432
GlyphClass: 2
Flags: W
LayerCount: 2
Fore
SplineSet
227.5 131 m 128,-1,1
 243 153 243 153 243 170.5 c 128,-1,2
 243 188 243 188 231 220 c 1,3,-1
 255 240 l 1,4,5
 302 196 302 196 320 149 c 1,6,7
 320 129 320 129 308.5 112.5 c 128,-1,8
 297 96 297 96 290.5 87.5 c 128,-1,9
 284 79 284 79 270 65 c 0,10,11
 242 37 242 37 224.5 21.5 c 128,-1,12
 207 6 207 6 202 1 c 0,13,14
 130 -65 130 -65 130 -107.5 c 128,-1,15
 130 -150 130 -150 158 -176 c 128,-1,16
 186 -202 186 -202 230.5 -202 c 128,-1,17
 275 -202 275 -202 296.5 -172.5 c 128,-1,18
 318 -143 318 -143 320 -74 c 1,19,-1
 354 -66 l 1,20,21
 380 -155 380 -155 380 -196 c 1,22,23
 276 -243 276 -243 204.5 -243 c 128,-1,24
 133 -243 133 -243 91.5 -205.5 c 128,-1,25
 50 -168 50 -168 50 -94 c 0,26,27
 50 -66 50 -66 66.5 -37 c 128,-1,28
 83 -8 83 -8 100 9 c 128,-1,29
 117 26 117 26 149 53 c 128,-1,30
 181 80 181 80 196.5 94.5 c 128,-1,0
 212 109 212 109 227.5 131 c 128,-1,1
317 370 m 128,-1,32
 317 346 317 346 301.5 331 c 128,-1,33
 286 316 286 316 260.5 316 c 128,-1,34
 235 316 235 316 219 331.5 c 128,-1,35
 203 347 203 347 203 370 c 128,-1,36
 203 393 203 393 219 408.5 c 128,-1,37
 235 424 235 424 260.5 424 c 128,-1,38
 286 424 286 424 301.5 409 c 128,-1,31
 317 394 317 394 317 370 c 128,-1,32
EndSplineSet
EndChar

StartChar: Agrave
Encoding: 192 192 127
Width: 650
GlyphClass: 2
Flags: W
LayerCount: 2
Fore
SplineSet
134 65 m 0,0,1
 134 45 134 45 159 38 c 1,2,-1
 218 25 l 1,3,-1
 212 -8 l 1,4,5
 157 0 157 0 108 0 c 128,-1,6
 59 0 59 0 3 -8 c 1,7,-1
 -4 25 l 1,8,9
 38 34 38 34 50 45.5 c 128,-1,10
 62 57 62 57 78 101 c 2,11,-1
 277 645 l 1,12,13
 321 655 321 655 353 674 c 1,14,-1
 568 101 l 2,15,16
 584 58 584 58 597 46 c 128,-1,17
 610 34 610 34 652 25 c 1,18,-1
 645 -8 l 1,19,20
 589 0 589 0 525.5 0 c 128,-1,21
 462 0 462 0 406 -8 c 1,22,-1
 400 25 l 1,23,24
 435 31 435 31 459 38.5 c 128,-1,25
 483 46 483 46 483 65 c 0,26,27
 483 72 483 72 480 79 c 2,28,-1
 423 237 l 1,29,-1
 190 237 l 1,30,-1
 136 79 l 2,31,32
 134 74 134 74 134 65 c 0,0,1
294 537 m 1,33,-1
 207 287 l 1,34,-1
 405 287 l 1,35,-1
 317 530 l 1,36,-1
 306 572 l 1,37,-1
 299 575 l 1,38,-1
 294 537 l 1,33,-1
156 799 m 1,39,-1
 162 817 l 1,40,41
 174 822 174 822 203.5 827.5 c 128,-1,42
 233 833 233 833 246 833 c 1,43,44
 257 826 257 826 308 773.5 c 128,-1,45
 359 721 359 721 370 708 c 1,46,-1
 344 681 l 1,47,-1
 156 799 l 1,39,-1
EndSplineSet
EndChar

StartChar: Aacute
Encoding: 193 193 128
Width: 650
GlyphClass: 2
Flags: W
LayerCount: 2
Fore
SplineSet
134 65 m 0,0,1
 134 45 134 45 159 38 c 1,2,-1
 218 25 l 1,3,-1
 212 -8 l 1,4,5
 157 0 157 0 108 0 c 128,-1,6
 59 0 59 0 3 -8 c 1,7,-1
 -4 25 l 1,8,9
 38 34 38 34 50 45.5 c 128,-1,10
 62 57 62 57 78 101 c 2,11,-1
 277 645 l 1,12,13
 321 655 321 655 353 674 c 1,14,-1
 568 101 l 2,15,16
 584 58 584 58 597 46 c 128,-1,17
 610 34 610 34 652 25 c 1,18,-1
 645 -8 l 1,19,20
 589 0 589 0 525.5 0 c 128,-1,21
 462 0 462 0 406 -8 c 1,22,-1
 400 25 l 1,23,24
 435 31 435 31 459 38.5 c 128,-1,25
 483 46 483 46 483 65 c 0,26,27
 483 72 483 72 480 79 c 2,28,-1
 423 237 l 1,29,-1
 190 237 l 1,30,-1
 136 79 l 2,31,32
 134 74 134 74 134 65 c 0,0,1
294 537 m 1,33,-1
 207 287 l 1,34,-1
 405 287 l 1,35,-1
 317 530 l 1,36,-1
 306 572 l 1,37,-1
 299 575 l 1,38,-1
 294 537 l 1,33,-1
429 817 m 1,39,-1
 435 799 l 1,40,-1
 247 681 l 1,41,-1
 221 708 l 1,42,43
 232 721 232 721 283 773.5 c 128,-1,44
 334 826 334 826 345 833 c 1,45,46
 358 833 358 833 387.5 827.5 c 128,-1,47
 417 822 417 822 429 817 c 1,39,-1
EndSplineSet
EndChar

StartChar: Acircumflex
Encoding: 194 194 129
Width: 650
GlyphClass: 2
Flags: W
LayerCount: 2
Fore
SplineSet
134 65 m 0,0,1
 134 45 134 45 159 38 c 1,2,-1
 218 25 l 1,3,-1
 212 -8 l 1,4,5
 157 0 157 0 108 0 c 128,-1,6
 59 0 59 0 3 -8 c 1,7,-1
 -4 25 l 1,8,9
 38 34 38 34 50 45.5 c 128,-1,10
 62 57 62 57 78 101 c 2,11,-1
 277 645 l 1,12,13
 321 655 321 655 353 674 c 1,14,-1
 568 101 l 2,15,16
 584 58 584 58 597 46 c 128,-1,17
 610 34 610 34 652 25 c 1,18,-1
 645 -8 l 1,19,20
 589 0 589 0 525.5 0 c 128,-1,21
 462 0 462 0 406 -8 c 1,22,-1
 400 25 l 1,23,24
 435 31 435 31 459 38.5 c 128,-1,25
 483 46 483 46 483 65 c 0,26,27
 483 72 483 72 480 79 c 2,28,-1
 423 237 l 1,29,-1
 190 237 l 1,30,-1
 136 79 l 2,31,32
 134 74 134 74 134 65 c 0,0,1
294 537 m 1,33,-1
 207 287 l 1,34,-1
 405 287 l 1,35,-1
 317 530 l 1,36,-1
 306 572 l 1,37,-1
 299 575 l 1,38,-1
 294 537 l 1,33,-1
303 831 m 128,-1,40
 328 831 328 831 344 829 c 1,41,42
 356 820 356 820 398 766.5 c 128,-1,43
 440 713 440 713 446 702 c 1,44,-1
 418 681 l 1,45,-1
 303 771 l 1,46,-1
 188 681 l 1,47,-1
 160 702 l 1,48,49
 166 713 166 713 208 766.5 c 128,-1,50
 250 820 250 820 262 829 c 1,51,39
 278 831 278 831 303 831 c 128,-1,40
EndSplineSet
EndChar

StartChar: Atilde
Encoding: 195 195 130
Width: 650
GlyphClass: 2
Flags: W
LayerCount: 2
Fore
SplineSet
134 65 m 0,0,1
 134 45 134 45 159 38 c 1,2,-1
 218 25 l 1,3,-1
 212 -8 l 1,4,5
 157 0 157 0 108 0 c 128,-1,6
 59 0 59 0 3 -8 c 1,7,-1
 -4 25 l 1,8,9
 38 34 38 34 50 45.5 c 128,-1,10
 62 57 62 57 78 101 c 2,11,-1
 277 645 l 1,12,13
 321 655 321 655 353 674 c 1,14,-1
 568 101 l 2,15,16
 584 58 584 58 597 46 c 128,-1,17
 610 34 610 34 652 25 c 1,18,-1
 645 -8 l 1,19,20
 589 0 589 0 525.5 0 c 128,-1,21
 462 0 462 0 406 -8 c 1,22,-1
 400 25 l 1,23,24
 435 31 435 31 459 38.5 c 128,-1,25
 483 46 483 46 483 65 c 0,26,27
 483 72 483 72 480 79 c 2,28,-1
 423 237 l 1,29,-1
 190 237 l 1,30,-1
 136 79 l 2,31,32
 134 74 134 74 134 65 c 0,0,1
294 537 m 1,33,-1
 207 287 l 1,34,-1
 405 287 l 1,35,-1
 317 530 l 1,36,-1
 306 572 l 1,37,-1
 299 575 l 1,38,-1
 294 537 l 1,33,-1
234 733 m 128,-1,40
 210 733 210 733 176 691 c 1,41,-1
 149 707 l 1,42,43
 159 725 159 725 184.5 754 c 128,-1,44
 210 783 210 783 224 794 c 1,45,-1
 247 798 l 1,46,47
 259 796 259 796 304 776.5 c 128,-1,48
 349 757 349 757 372.5 757 c 128,-1,49
 396 757 396 757 431 800 c 1,50,-1
 458 783 l 1,51,52
 447 765 447 765 421.5 735 c 128,-1,53
 396 705 396 705 383 695 c 1,54,-1
 360 691 l 1,55,56
 348 693 348 693 303 713 c 128,-1,39
 258 733 258 733 234 733 c 128,-1,40
EndSplineSet
EndChar

StartChar: Adieresis
Encoding: 196 196 131
Width: 650
GlyphClass: 2
Flags: W
LayerCount: 2
Fore
SplineSet
134 65 m 0,0,1
 134 45 134 45 159 38 c 1,2,-1
 218 25 l 1,3,-1
 212 -8 l 1,4,5
 157 0 157 0 108 0 c 128,-1,6
 59 0 59 0 3 -8 c 1,7,-1
 -4 25 l 1,8,9
 38 34 38 34 50 45.5 c 128,-1,10
 62 57 62 57 78 101 c 2,11,-1
 277 645 l 1,12,13
 321 655 321 655 353 674 c 1,14,-1
 568 101 l 2,15,16
 584 58 584 58 597 46 c 128,-1,17
 610 34 610 34 652 25 c 1,18,-1
 645 -8 l 1,19,20
 589 0 589 0 525.5 0 c 128,-1,21
 462 0 462 0 406 -8 c 1,22,-1
 400 25 l 1,23,24
 435 31 435 31 459 38.5 c 128,-1,25
 483 46 483 46 483 65 c 0,26,27
 483 72 483 72 480 79 c 2,28,-1
 423 237 l 1,29,-1
 190 237 l 1,30,-1
 136 79 l 2,31,32
 134 74 134 74 134 65 c 0,0,1
294 537 m 1,33,-1
 207 287 l 1,34,-1
 405 287 l 1,35,-1
 317 530 l 1,36,-1
 306 572 l 1,37,-1
 299 575 l 1,38,-1
 294 537 l 1,33,-1
151 739 m 128,-1,40
 151 762 151 762 166.5 777 c 128,-1,41
 182 792 182 792 206.5 792 c 128,-1,42
 231 792 231 792 246.5 777 c 128,-1,43
 262 762 262 762 262 739 c 128,-1,44
 262 716 262 716 246.5 701.5 c 128,-1,45
 231 687 231 687 206.5 687 c 128,-1,46
 182 687 182 687 166.5 701.5 c 128,-1,39
 151 716 151 716 151 739 c 128,-1,40
343 739 m 128,-1,48
 343 762 343 762 358.5 777 c 128,-1,49
 374 792 374 792 398.5 792 c 128,-1,50
 423 792 423 792 438.5 777 c 128,-1,51
 454 762 454 762 454 739 c 128,-1,52
 454 716 454 716 438.5 701.5 c 128,-1,53
 423 687 423 687 398.5 687 c 128,-1,54
 374 687 374 687 358.5 701.5 c 128,-1,47
 343 716 343 716 343 739 c 128,-1,48
EndSplineSet
EndChar

StartChar: Aring
Encoding: 197 197 132
Width: 650
GlyphClass: 2
Flags: W
LayerCount: 2
Fore
SplineSet
134 65 m 0,0,1
 134 45 134 45 159 38 c 1,2,-1
 218 25 l 1,3,-1
 212 -8 l 1,4,5
 157 0 157 0 108 0 c 128,-1,6
 59 0 59 0 3 -8 c 1,7,-1
 -4 25 l 1,8,9
 38 34 38 34 50 45.5 c 128,-1,10
 62 57 62 57 78 101 c 2,11,-1
 277 645 l 1,12,13
 321 655 321 655 353 674 c 1,14,-1
 568 101 l 2,15,16
 584 58 584 58 597 46 c 128,-1,17
 610 34 610 34 652 25 c 1,18,-1
 645 -8 l 1,19,20
 589 0 589 0 525.5 0 c 128,-1,21
 462 0 462 0 406 -8 c 1,22,-1
 400 25 l 1,23,24
 435 31 435 31 459 38.5 c 128,-1,25
 483 46 483 46 483 65 c 0,26,27
 483 72 483 72 480 79 c 2,28,-1
 423 237 l 1,29,-1
 190 237 l 1,30,-1
 136 79 l 2,31,32
 134 74 134 74 134 65 c 0,0,1
294 537 m 1,33,-1
 207 287 l 1,34,-1
 405 287 l 1,35,-1
 317 530 l 1,36,-1
 306 572 l 1,37,-1
 299 575 l 1,38,-1
 294 537 l 1,33,-1
262 766 m 128,-1,40
 262 744 262 744 276 729 c 128,-1,41
 290 714 290 714 310 714 c 128,-1,42
 330 714 330 714 344 729 c 128,-1,43
 358 744 358 744 358 766 c 128,-1,44
 358 788 358 788 344 803 c 128,-1,45
 330 818 330 818 310 818 c 128,-1,46
 290 818 290 818 276 803 c 128,-1,39
 262 788 262 788 262 766 c 128,-1,40
224 766 m 128,-1,48
 224 800 224 800 249.5 825.5 c 128,-1,49
 275 851 275 851 310 851 c 128,-1,50
 345 851 345 851 370.5 825.5 c 128,-1,51
 396 800 396 800 396 766 c 128,-1,52
 396 732 396 732 370.5 706.5 c 128,-1,53
 345 681 345 681 310 681 c 128,-1,54
 275 681 275 681 249.5 706.5 c 128,-1,47
 224 732 224 732 224 766 c 128,-1,48
EndSplineSet
EndChar

StartChar: AE
Encoding: 198 198 133
Width: 857
GlyphClass: 2
Flags: W
LayerCount: 2
Fore
SplineSet
459 650 m 2,0,-1
 695 650 l 2,1,2
 741 650 741 650 777 656 c 1,3,-1
 777 501 l 1,4,-1
 740 495 l 1,5,6
 726 580 726 580 708 603 c 1,7,-1
 503 603 l 1,8,-1
 503 360 l 1,9,-1
 638 360 l 2,10,11
 666 360 666 360 671 375 c 1,12,13
 677 389 677 389 683 434 c 1,14,-1
 721 430 l 1,15,16
 713 380 713 380 713 336 c 128,-1,17
 713 292 713 292 721 242 c 1,18,-1
 683 238 l 1,19,20
 678 281 678 281 671.5 296.5 c 128,-1,21
 665 312 665 312 638 312 c 2,22,-1
 503 312 l 1,23,-1
 503 48 l 1,24,-1
 718 48 l 1,25,26
 731 60 731 60 748.5 103.5 c 128,-1,27
 766 147 766 147 773 173 c 1,28,-1
 809 167 l 1,29,30
 808 139 808 139 801 79.5 c 128,-1,31
 794 20 794 20 788 0 c 1,32,-1
 459 0 l 2,33,34
 413 0 413 0 346 -8 c 1,35,-1
 339 25 l 1,36,37
 379 30 379 30 396.5 37.5 c 128,-1,38
 414 45 414 45 414 69 c 2,39,-1
 414 312 l 1,40,-1
 259 312 l 1,41,-1
 153 79 l 2,42,43
 144 60 144 60 144 50.5 c 128,-1,44
 144 41 144 41 152 37 c 0,45,46
 165 31 165 31 210 25 c 1,47,-1
 204 -8 l 1,48,49
 144 0 144 0 95 0 c 128,-1,50
 46 0 46 0 -5 -8 c 1,51,-1
 -12 25 l 1,52,53
 31 33 31 33 45 42 c 1,54,55
 62 51 62 51 85 101 c 2,56,-1
 346 656 l 1,57,58
 393 650 393 650 459 650 c 2,0,-1
414 603 m 1,59,-1
 392 603 l 1,60,-1
 281 360 l 1,61,-1
 414 360 l 1,62,-1
 414 603 l 1,59,-1
EndSplineSet
EndChar

StartChar: Ccedilla
Encoding: 199 199 134
Width: 660
GlyphClass: 2
Flags: W
LayerCount: 2
Fore
SplineSet
47 299 m 0,0,1
 47 461 47 461 141 563.5 c 128,-1,2
 235 666 235 666 393 666 c 0,3,4
 455 666 455 666 499 658 c 128,-1,5
 543 650 543 650 579 642.5 c 128,-1,6
 615 635 615 635 620 634 c 1,7,8
 610 525 610 525 593 463 c 1,9,-1
 559 457 l 1,10,11
 546 563 546 563 525 594 c 1,12,13
 477 620 477 620 373.5 620 c 128,-1,14
 270 620 270 620 209 541 c 128,-1,15
 148 462 148 462 148 335 c 128,-1,16
 148 208 148 208 216.5 119 c 128,-1,17
 285 30 285 30 395 30 c 0,18,19
 474 30 474 30 515.5 66.5 c 128,-1,20
 557 103 557 103 581 186 c 1,21,-1
 615 181 l 1,22,23
 614 106 614 106 594 17 c 1,24,25
 497 -16 497 -16 385 -16 c 2,26,-1
 382 -16 l 1,27,-1
 365 -71 l 1,28,29
 397 -71 397 -71 419.5 -93.5 c 128,-1,30
 442 -116 442 -116 442 -153.5 c 128,-1,31
 442 -191 442 -191 414.5 -214.5 c 128,-1,32
 387 -238 387 -238 345.5 -239 c 128,-1,33
 304 -240 304 -240 253 -211 c 1,34,-1
 268 -180 l 1,35,36
 308 -198 308 -198 336 -198 c 0,37,38
 389 -198 389 -198 389 -158 c 0,39,40
 389 -132 389 -132 366 -118 c 0,41,42
 351 -110 351 -110 336 -110 c 128,-1,43
 321 -110 321 -110 308 -113 c 1,44,-1
 295 -92 l 1,45,-1
 339 -13 l 1,46,47
 208 0 208 0 127.5 83.5 c 128,-1,48
 47 167 47 167 47 299 c 0,0,1
EndSplineSet
EndChar

StartChar: Egrave
Encoding: 200 200 135
Width: 583
GlyphClass: 2
Flags: W
LayerCount: 2
Fore
SplineSet
214 312 m 1,0,-1
 214 48 l 1,1,-1
 444 48 l 1,2,3
 457 60 457 60 474.5 103.5 c 128,-1,4
 492 147 492 147 499 173 c 1,5,-1
 535 167 l 1,6,7
 534 139 534 139 527 79.5 c 128,-1,8
 520 20 520 20 514 0 c 1,9,-1
 170 0 l 2,10,11
 124 0 124 0 57 -8 c 1,12,-1
 50 25 l 1,13,14
 90 30 90 30 107.5 37.5 c 128,-1,15
 125 45 125 45 125 69 c 2,16,-1
 125 583 l 2,17,18
 125 607 125 607 109 613 c 1,19,20
 96 619 96 619 50 626 c 1,21,-1
 57 659 l 1,22,23
 133 650 133 650 170 650 c 2,24,-1
 421 650 l 2,25,26
 466 650 466 650 503 656 c 1,27,28
 506 620 506 620 506 581 c 128,-1,29
 506 542 506 542 503 501 c 1,30,-1
 466 495 l 1,31,32
 452 580 452 580 434 603 c 1,33,-1
 214 603 l 1,34,-1
 214 360 l 1,35,-1
 364 360 l 2,36,37
 392 360 392 360 397 375 c 1,38,39
 403 389 403 389 409 434 c 1,40,-1
 447 430 l 1,41,42
 439 380 439 380 439 336 c 128,-1,43
 439 292 439 292 447 242 c 1,44,-1
 409 238 l 1,45,46
 404 281 404 281 397.5 296.5 c 128,-1,47
 391 312 391 312 364 312 c 2,48,-1
 214 312 l 1,0,-1
147 799 m 1,49,-1
 153 817 l 1,50,51
 165 822 165 822 194.5 827.5 c 128,-1,52
 224 833 224 833 237 833 c 1,53,54
 248 826 248 826 299 773.5 c 128,-1,55
 350 721 350 721 361 708 c 1,56,-1
 335 681 l 1,57,-1
 147 799 l 1,49,-1
EndSplineSet
EndChar

StartChar: Eacute
Encoding: 201 201 136
Width: 583
GlyphClass: 2
Flags: W
LayerCount: 2
Fore
SplineSet
214 312 m 1,0,-1
 214 48 l 1,1,-1
 444 48 l 1,2,3
 457 60 457 60 474.5 103.5 c 128,-1,4
 492 147 492 147 499 173 c 1,5,-1
 535 167 l 1,6,7
 534 139 534 139 527 79.5 c 128,-1,8
 520 20 520 20 514 0 c 1,9,-1
 170 0 l 2,10,11
 124 0 124 0 57 -8 c 1,12,-1
 50 25 l 1,13,14
 90 30 90 30 107.5 37.5 c 128,-1,15
 125 45 125 45 125 69 c 2,16,-1
 125 583 l 2,17,18
 125 607 125 607 109 613 c 1,19,20
 96 619 96 619 50 626 c 1,21,-1
 57 659 l 1,22,23
 133 650 133 650 170 650 c 2,24,-1
 421 650 l 2,25,26
 466 650 466 650 503 656 c 1,27,28
 506 620 506 620 506 581 c 128,-1,29
 506 542 506 542 503 501 c 1,30,-1
 466 495 l 1,31,32
 452 580 452 580 434 603 c 1,33,-1
 214 603 l 1,34,-1
 214 360 l 1,35,-1
 364 360 l 2,36,37
 392 360 392 360 397 375 c 1,38,39
 403 389 403 389 409 434 c 1,40,-1
 447 430 l 1,41,42
 439 380 439 380 439 336 c 128,-1,43
 439 292 439 292 447 242 c 1,44,-1
 409 238 l 1,45,46
 404 281 404 281 397.5 296.5 c 128,-1,47
 391 312 391 312 364 312 c 2,48,-1
 214 312 l 1,0,-1
420 817 m 1,49,-1
 426 799 l 1,50,-1
 238 681 l 1,51,-1
 212 708 l 1,52,53
 223 721 223 721 274 773.5 c 128,-1,54
 325 826 325 826 336 833 c 1,55,56
 349 833 349 833 378.5 827.5 c 128,-1,57
 408 822 408 822 420 817 c 1,49,-1
EndSplineSet
EndChar

StartChar: Ecircumflex
Encoding: 202 202 137
Width: 583
GlyphClass: 2
Flags: W
LayerCount: 2
Fore
SplineSet
214 312 m 1,0,-1
 214 48 l 1,1,-1
 444 48 l 1,2,3
 457 60 457 60 474.5 103.5 c 128,-1,4
 492 147 492 147 499 173 c 1,5,-1
 535 167 l 1,6,7
 534 139 534 139 527 79.5 c 128,-1,8
 520 20 520 20 514 0 c 1,9,-1
 170 0 l 2,10,11
 124 0 124 0 57 -8 c 1,12,-1
 50 25 l 1,13,14
 90 30 90 30 107.5 37.5 c 128,-1,15
 125 45 125 45 125 69 c 2,16,-1
 125 583 l 2,17,18
 125 607 125 607 109 613 c 1,19,20
 96 619 96 619 50 626 c 1,21,-1
 57 659 l 1,22,23
 133 650 133 650 170 650 c 2,24,-1
 421 650 l 2,25,26
 466 650 466 650 503 656 c 1,27,28
 506 620 506 620 506 581 c 128,-1,29
 506 542 506 542 503 501 c 1,30,-1
 466 495 l 1,31,32
 452 580 452 580 434 603 c 1,33,-1
 214 603 l 1,34,-1
 214 360 l 1,35,-1
 364 360 l 2,36,37
 392 360 392 360 397 375 c 1,38,39
 403 389 403 389 409 434 c 1,40,-1
 447 430 l 1,41,42
 439 380 439 380 439 336 c 128,-1,43
 439 292 439 292 447 242 c 1,44,-1
 409 238 l 1,45,46
 404 281 404 281 397.5 296.5 c 128,-1,47
 391 312 391 312 364 312 c 2,48,-1
 214 312 l 1,0,-1
294 831 m 128,-1,50
 319 831 319 831 335 829 c 1,51,52
 347 820 347 820 389 766.5 c 128,-1,53
 431 713 431 713 437 702 c 1,54,-1
 409 681 l 1,55,-1
 294 771 l 1,56,-1
 179 681 l 1,57,-1
 151 702 l 1,58,59
 157 713 157 713 199 766.5 c 128,-1,60
 241 820 241 820 253 829 c 1,61,49
 269 831 269 831 294 831 c 128,-1,50
EndSplineSet
EndChar

StartChar: Edieresis
Encoding: 203 203 138
Width: 583
GlyphClass: 2
Flags: W
LayerCount: 2
Fore
SplineSet
214 312 m 1,0,-1
 214 48 l 1,1,-1
 444 48 l 1,2,3
 457 60 457 60 474.5 103.5 c 128,-1,4
 492 147 492 147 499 173 c 1,5,-1
 535 167 l 1,6,7
 534 139 534 139 527 79.5 c 128,-1,8
 520 20 520 20 514 0 c 1,9,-1
 170 0 l 2,10,11
 124 0 124 0 57 -8 c 1,12,-1
 50 25 l 1,13,14
 90 30 90 30 107.5 37.5 c 128,-1,15
 125 45 125 45 125 69 c 2,16,-1
 125 583 l 2,17,18
 125 607 125 607 109 613 c 1,19,20
 96 619 96 619 50 626 c 1,21,-1
 57 659 l 1,22,23
 133 650 133 650 170 650 c 2,24,-1
 421 650 l 2,25,26
 466 650 466 650 503 656 c 1,27,28
 506 620 506 620 506 581 c 128,-1,29
 506 542 506 542 503 501 c 1,30,-1
 466 495 l 1,31,32
 452 580 452 580 434 603 c 1,33,-1
 214 603 l 1,34,-1
 214 360 l 1,35,-1
 364 360 l 2,36,37
 392 360 392 360 397 375 c 1,38,39
 403 389 403 389 409 434 c 1,40,-1
 447 430 l 1,41,42
 439 380 439 380 439 336 c 128,-1,43
 439 292 439 292 447 242 c 1,44,-1
 409 238 l 1,45,46
 404 281 404 281 397.5 296.5 c 128,-1,47
 391 312 391 312 364 312 c 2,48,-1
 214 312 l 1,0,-1
142 738 m 128,-1,50
 142 761 142 761 157.5 776 c 128,-1,51
 173 791 173 791 197.5 791 c 128,-1,52
 222 791 222 791 237.5 776 c 128,-1,53
 253 761 253 761 253 738 c 128,-1,54
 253 715 253 715 237.5 700.5 c 128,-1,55
 222 686 222 686 197.5 686 c 128,-1,56
 173 686 173 686 157.5 700.5 c 128,-1,49
 142 715 142 715 142 738 c 128,-1,50
334 738 m 128,-1,58
 334 761 334 761 349.5 776 c 128,-1,59
 365 791 365 791 389.5 791 c 128,-1,60
 414 791 414 791 429.5 776 c 128,-1,61
 445 761 445 761 445 738 c 128,-1,62
 445 715 445 715 429.5 700.5 c 128,-1,63
 414 686 414 686 389.5 686 c 128,-1,64
 365 686 365 686 349.5 700.5 c 128,-1,57
 334 715 334 715 334 738 c 128,-1,58
EndSplineSet
EndChar

StartChar: Igrave
Encoding: 204 204 139
Width: 339
GlyphClass: 2
Flags: W
LayerCount: 2
Fore
SplineSet
214 582 m 2,0,-1
 214 68 l 2,1,2
 214 54 214 54 216.5 48.5 c 128,-1,3
 219 43 219 43 228 38 c 1,4,5
 243 32 243 32 291 25 c 1,6,-1
 284 -8 l 1,7,8
 217 0 217 0 170.5 0 c 128,-1,9
 124 0 124 0 57 -8 c 1,10,-1
 50 25 l 1,11,12
 116 33 116 33 122 48 c 0,13,14
 125 54 125 54 125 68 c 2,15,-1
 125 582 l 2,16,17
 125 596 125 596 122.5 601.5 c 128,-1,18
 120 607 120 607 110 612 c 0,19,20
 96 618 96 618 50 625 c 1,21,-1
 57 658 l 1,22,23
 124 650 124 650 170.5 650 c 128,-1,24
 217 650 217 650 284 658 c 1,25,-1
 291 625 l 1,26,27
 224 617 224 617 216 602 c 1,28,29
 214 596 214 596 214 582 c 2,0,-1
24 799 m 1,30,-1
 30 817 l 1,31,32
 42 822 42 822 71.5 827.5 c 128,-1,33
 101 833 101 833 114 833 c 1,34,35
 125 826 125 826 176 773.5 c 128,-1,36
 227 721 227 721 238 708 c 1,37,-1
 212 681 l 1,38,-1
 24 799 l 1,30,-1
EndSplineSet
EndChar

StartChar: Iacute
Encoding: 205 205 140
Width: 339
GlyphClass: 2
Flags: W
LayerCount: 2
Fore
SplineSet
214 582 m 2,0,-1
 214 68 l 2,1,2
 214 54 214 54 216.5 48.5 c 128,-1,3
 219 43 219 43 228 38 c 1,4,5
 243 32 243 32 291 25 c 1,6,-1
 284 -8 l 1,7,8
 217 0 217 0 170.5 0 c 128,-1,9
 124 0 124 0 57 -8 c 1,10,-1
 50 25 l 1,11,12
 116 33 116 33 122 48 c 0,13,14
 125 54 125 54 125 68 c 2,15,-1
 125 582 l 2,16,17
 125 596 125 596 122.5 601.5 c 128,-1,18
 120 607 120 607 110 612 c 0,19,20
 96 618 96 618 50 625 c 1,21,-1
 57 658 l 1,22,23
 124 650 124 650 170.5 650 c 128,-1,24
 217 650 217 650 284 658 c 1,25,-1
 291 625 l 1,26,27
 224 617 224 617 216 602 c 1,28,29
 214 596 214 596 214 582 c 2,0,-1
297 817 m 1,30,-1
 303 799 l 1,31,-1
 115 681 l 1,32,-1
 89 708 l 1,33,34
 100 721 100 721 151 773.5 c 128,-1,35
 202 826 202 826 213 833 c 1,36,37
 226 833 226 833 255.5 827.5 c 128,-1,38
 285 822 285 822 297 817 c 1,30,-1
EndSplineSet
EndChar

StartChar: Icircumflex
Encoding: 206 206 141
Width: 339
GlyphClass: 2
Flags: W
LayerCount: 2
Fore
SplineSet
214 582 m 2,0,-1
 214 68 l 2,1,2
 214 54 214 54 216.5 48.5 c 128,-1,3
 219 43 219 43 228 38 c 1,4,5
 243 32 243 32 291 25 c 1,6,-1
 284 -8 l 1,7,8
 217 0 217 0 170.5 0 c 128,-1,9
 124 0 124 0 57 -8 c 1,10,-1
 50 25 l 1,11,12
 116 33 116 33 122 48 c 0,13,14
 125 54 125 54 125 68 c 2,15,-1
 125 582 l 2,16,17
 125 596 125 596 122.5 601.5 c 128,-1,18
 120 607 120 607 110 612 c 0,19,20
 96 618 96 618 50 625 c 1,21,-1
 57 658 l 1,22,23
 124 650 124 650 170.5 650 c 128,-1,24
 217 650 217 650 284 658 c 1,25,-1
 291 625 l 1,26,27
 224 617 224 617 216 602 c 1,28,29
 214 596 214 596 214 582 c 2,0,-1
171 831 m 128,-1,31
 196 831 196 831 212 829 c 1,32,33
 224 820 224 820 266 766.5 c 128,-1,34
 308 713 308 713 314 702 c 1,35,-1
 286 681 l 1,36,-1
 171 771 l 1,37,-1
 56 681 l 1,38,-1
 28 702 l 1,39,40
 34 713 34 713 76 766.5 c 128,-1,41
 118 820 118 820 130 829 c 1,42,30
 146 831 146 831 171 831 c 128,-1,31
EndSplineSet
EndChar

StartChar: Idieresis
Encoding: 207 207 142
Width: 339
GlyphClass: 2
Flags: W
LayerCount: 2
Fore
SplineSet
214 582 m 2,0,-1
 214 68 l 2,1,2
 214 54 214 54 216.5 48.5 c 128,-1,3
 219 43 219 43 228 38 c 1,4,5
 243 32 243 32 291 25 c 1,6,-1
 284 -8 l 1,7,8
 217 0 217 0 170.5 0 c 128,-1,9
 124 0 124 0 57 -8 c 1,10,-1
 50 25 l 1,11,12
 116 33 116 33 122 48 c 0,13,14
 125 54 125 54 125 68 c 2,15,-1
 125 582 l 2,16,17
 125 596 125 596 122.5 601.5 c 128,-1,18
 120 607 120 607 110 612 c 0,19,20
 96 618 96 618 50 625 c 1,21,-1
 57 658 l 1,22,23
 124 650 124 650 170.5 650 c 128,-1,24
 217 650 217 650 284 658 c 1,25,-1
 291 625 l 1,26,27
 224 617 224 617 216 602 c 1,28,29
 214 596 214 596 214 582 c 2,0,-1
19 738 m 128,-1,31
 19 761 19 761 34.5 776 c 128,-1,32
 50 791 50 791 74.5 791 c 128,-1,33
 99 791 99 791 114.5 776 c 128,-1,34
 130 761 130 761 130 738 c 128,-1,35
 130 715 130 715 114.5 700.5 c 128,-1,36
 99 686 99 686 74.5 686 c 128,-1,37
 50 686 50 686 34.5 700.5 c 128,-1,30
 19 715 19 715 19 738 c 128,-1,31
211 738 m 128,-1,39
 211 761 211 761 226.5 776 c 128,-1,40
 242 791 242 791 266.5 791 c 128,-1,41
 291 791 291 791 306.5 776 c 128,-1,42
 322 761 322 761 322 738 c 128,-1,43
 322 715 322 715 306.5 700.5 c 128,-1,44
 291 686 291 686 266.5 686 c 128,-1,45
 242 686 242 686 226.5 700.5 c 128,-1,38
 211 715 211 715 211 738 c 128,-1,39
EndSplineSet
EndChar

StartChar: Eth
Encoding: 208 208 143
Width: 750
GlyphClass: 2
Flags: W
LayerCount: 2
Fore
SplineSet
95 652 m 2,0,-1
 329 660 l 1,1,2
 500 660 500 660 598 590 c 1,3,4
 703 517 703 517 703 353 c 128,-1,5
 703 189 703 189 611 90.5 c 128,-1,6
 519 -8 519 -8 357 -8 c 0,7,8
 311 -8 311 -8 248 -4 c 128,-1,9
 185 0 185 0 157 0 c 128,-1,10
 129 0 129 0 57 -8 c 1,11,-1
 50 25 l 1,12,13
 90 30 90 30 107.5 37.5 c 128,-1,14
 125 45 125 45 125 69 c 2,15,-1
 125 315 l 1,16,-1
 46 315 l 1,17,-1
 55 361 l 1,18,-1
 125 361 l 1,19,-1
 125 579 l 2,20,21
 125 592 125 592 122.5 596.5 c 128,-1,22
 120 601 120 601 110 606 c 0,23,24
 97 613 97 613 50 622 c 1,25,-1
 57 653 l 1,26,27
 72 652 72 652 95 652 c 2,0,-1
214 88 m 2,28,29
 214 36 214 36 342.5 36 c 128,-1,30
 471 36 471 36 536.5 115 c 128,-1,31
 602 194 602 194 602 334 c 0,32,33
 602 615 602 615 310 615 c 0,34,35
 250 615 250 615 214 606 c 1,36,-1
 214 361 l 1,37,-1
 395 361 l 1,38,-1
 386 315 l 1,39,-1
 214 315 l 1,40,-1
 214 88 l 2,28,29
EndSplineSet
EndChar

StartChar: Ntilde
Encoding: 209 209 144
Width: 764
GlyphClass: 2
Flags: W
LayerCount: 2
Fore
SplineSet
191 77 m 2,0,1
 191 62 191 62 195 54 c 128,-1,2
 199 46 199 46 213 42 c 1,3,-1
 296 28 l 1,4,-1
 289 -8 l 1,5,6
 219 0 219 0 175 0 c 128,-1,7
 131 0 131 0 57 -8 c 1,8,-1
 50 25 l 1,9,10
 90 30 90 30 107.5 37.5 c 128,-1,11
 125 45 125 45 125 69 c 2,12,-1
 125 583 l 2,13,14
 125 607 125 607 109 613 c 1,15,16
 95 620 95 620 50 626 c 1,17,-1
 57 659 l 1,18,19
 104 650 104 650 152 650 c 128,-1,20
 200 650 200 650 241 659 c 1,21,22
 262 619 262 619 303 563 c 2,23,-1
 554 216 l 2,24,25
 571 191 571 191 586 145 c 1,26,-1
 591 149 l 1,27,-1
 591 580 l 2,28,29
 591 603 591 603 574 610 c 1,30,31
 558 618 558 618 507 624 c 1,32,-1
 514 659 l 1,33,34
 590 650 590 650 620.5 650 c 128,-1,35
 651 650 651 650 725 659 c 1,36,-1
 732 626 l 1,37,38
 693 621 693 621 675 613.5 c 128,-1,39
 657 606 657 606 657 583 c 2,40,-1
 657 193 l 2,41,42
 657 113 657 113 665 1 c 1,43,-1
 590 -14 l 1,44,45
 555 70 555 70 475 178 c 2,46,-1
 232 507 l 2,47,48
 215 531 215 531 196 572 c 1,49,-1
 191 568 l 1,50,-1
 191 77 l 2,0,1
323 734 m 128,-1,52
 299 734 299 734 265 692 c 1,53,-1
 238 708 l 1,54,55
 248 726 248 726 273.5 755 c 128,-1,56
 299 784 299 784 313 795 c 1,57,-1
 336 799 l 1,58,59
 348 797 348 797 393 777.5 c 128,-1,60
 438 758 438 758 461.5 758 c 128,-1,61
 485 758 485 758 520 801 c 1,62,-1
 547 784 l 1,63,64
 536 766 536 766 510.5 736 c 128,-1,65
 485 706 485 706 472 696 c 1,66,-1
 449 692 l 1,67,68
 437 694 437 694 392 714 c 128,-1,51
 347 734 347 734 323 734 c 128,-1,52
EndSplineSet
EndChar

StartChar: Ograve
Encoding: 210 210 145
Width: 755
GlyphClass: 2
Flags: W
LayerCount: 2
Fore
SplineSet
137 71 m 128,-1,1
 47 158 47 158 47 311 c 128,-1,2
 47 464 47 464 136.5 565 c 128,-1,3
 226 666 226 666 377 666 c 128,-1,4
 528 666 528 666 618 579 c 128,-1,5
 708 492 708 492 708 339 c 128,-1,6
 708 186 708 186 618.5 85 c 128,-1,7
 529 -16 529 -16 378 -16 c 128,-1,0
 227 -16 227 -16 137 71 c 128,-1,1
203 542 m 128,-1,9
 148 466 148 466 148 339 c 128,-1,10
 148 212 148 212 210 122 c 128,-1,11
 272 32 272 32 384.5 32 c 128,-1,12
 497 32 497 32 552 108 c 128,-1,13
 607 184 607 184 607 311 c 128,-1,14
 607 438 607 438 545 528 c 128,-1,15
 483 618 483 618 370.5 618 c 128,-1,8
 258 618 258 618 203 542 c 128,-1,9
228 799 m 1,16,-1
 234 817 l 1,17,18
 246 822 246 822 275.5 827.5 c 128,-1,19
 305 833 305 833 318 833 c 1,20,21
 329 826 329 826 380 773.5 c 128,-1,22
 431 721 431 721 442 708 c 1,23,-1
 416 681 l 1,24,-1
 228 799 l 1,16,-1
EndSplineSet
EndChar

StartChar: Oacute
Encoding: 211 211 146
Width: 755
GlyphClass: 2
Flags: W
LayerCount: 2
Fore
SplineSet
137 71 m 128,-1,1
 47 158 47 158 47 311 c 128,-1,2
 47 464 47 464 136.5 565 c 128,-1,3
 226 666 226 666 377 666 c 128,-1,4
 528 666 528 666 618 579 c 128,-1,5
 708 492 708 492 708 339 c 128,-1,6
 708 186 708 186 618.5 85 c 128,-1,7
 529 -16 529 -16 378 -16 c 128,-1,0
 227 -16 227 -16 137 71 c 128,-1,1
203 542 m 128,-1,9
 148 466 148 466 148 339 c 128,-1,10
 148 212 148 212 210 122 c 128,-1,11
 272 32 272 32 384.5 32 c 128,-1,12
 497 32 497 32 552 108 c 128,-1,13
 607 184 607 184 607 311 c 128,-1,14
 607 438 607 438 545 528 c 128,-1,15
 483 618 483 618 370.5 618 c 128,-1,8
 258 618 258 618 203 542 c 128,-1,9
501 817 m 1,16,-1
 507 799 l 1,17,-1
 319 681 l 1,18,-1
 293 708 l 1,19,20
 304 721 304 721 355 773.5 c 128,-1,21
 406 826 406 826 417 833 c 1,22,23
 430 833 430 833 459.5 827.5 c 128,-1,24
 489 822 489 822 501 817 c 1,16,-1
EndSplineSet
EndChar

StartChar: Ocircumflex
Encoding: 212 212 147
Width: 755
GlyphClass: 2
Flags: W
LayerCount: 2
Fore
SplineSet
137 71 m 128,-1,1
 47 158 47 158 47 311 c 128,-1,2
 47 464 47 464 136.5 565 c 128,-1,3
 226 666 226 666 377 666 c 128,-1,4
 528 666 528 666 618 579 c 128,-1,5
 708 492 708 492 708 339 c 128,-1,6
 708 186 708 186 618.5 85 c 128,-1,7
 529 -16 529 -16 378 -16 c 128,-1,0
 227 -16 227 -16 137 71 c 128,-1,1
203 542 m 128,-1,9
 148 466 148 466 148 339 c 128,-1,10
 148 212 148 212 210 122 c 128,-1,11
 272 32 272 32 384.5 32 c 128,-1,12
 497 32 497 32 552 108 c 128,-1,13
 607 184 607 184 607 311 c 128,-1,14
 607 438 607 438 545 528 c 128,-1,15
 483 618 483 618 370.5 618 c 128,-1,8
 258 618 258 618 203 542 c 128,-1,9
375 831 m 128,-1,17
 400 831 400 831 416 829 c 1,18,19
 428 820 428 820 470 766.5 c 128,-1,20
 512 713 512 713 518 702 c 1,21,-1
 490 681 l 1,22,-1
 375 771 l 1,23,-1
 260 681 l 1,24,-1
 232 702 l 1,25,26
 238 713 238 713 280 766.5 c 128,-1,27
 322 820 322 820 334 829 c 1,28,16
 350 831 350 831 375 831 c 128,-1,17
EndSplineSet
EndChar

StartChar: Otilde
Encoding: 213 213 148
Width: 755
GlyphClass: 2
Flags: W
LayerCount: 2
Fore
SplineSet
137 71 m 128,-1,1
 47 158 47 158 47 311 c 128,-1,2
 47 464 47 464 136.5 565 c 128,-1,3
 226 666 226 666 377 666 c 128,-1,4
 528 666 528 666 618 579 c 128,-1,5
 708 492 708 492 708 339 c 128,-1,6
 708 186 708 186 618.5 85 c 128,-1,7
 529 -16 529 -16 378 -16 c 128,-1,0
 227 -16 227 -16 137 71 c 128,-1,1
203 542 m 128,-1,9
 148 466 148 466 148 339 c 128,-1,10
 148 212 148 212 210 122 c 128,-1,11
 272 32 272 32 384.5 32 c 128,-1,12
 497 32 497 32 552 108 c 128,-1,13
 607 184 607 184 607 311 c 128,-1,14
 607 438 607 438 545 528 c 128,-1,15
 483 618 483 618 370.5 618 c 128,-1,8
 258 618 258 618 203 542 c 128,-1,9
306 733 m 128,-1,17
 282 733 282 733 248 691 c 1,18,-1
 221 707 l 1,19,20
 231 725 231 725 256.5 754 c 128,-1,21
 282 783 282 783 296 794 c 1,22,-1
 319 798 l 1,23,24
 331 796 331 796 376 776.5 c 128,-1,25
 421 757 421 757 444.5 757 c 128,-1,26
 468 757 468 757 503 800 c 1,27,-1
 530 783 l 1,28,29
 519 765 519 765 493.5 735 c 128,-1,30
 468 705 468 705 455 695 c 1,31,-1
 432 691 l 1,32,33
 420 693 420 693 375 713 c 128,-1,16
 330 733 330 733 306 733 c 128,-1,17
EndSplineSet
EndChar

StartChar: Odieresis
Encoding: 214 214 149
Width: 755
GlyphClass: 2
Flags: W
LayerCount: 2
Fore
SplineSet
137 71 m 128,-1,1
 47 158 47 158 47 311 c 128,-1,2
 47 464 47 464 136.5 565 c 128,-1,3
 226 666 226 666 377 666 c 128,-1,4
 528 666 528 666 618 579 c 128,-1,5
 708 492 708 492 708 339 c 128,-1,6
 708 186 708 186 618.5 85 c 128,-1,7
 529 -16 529 -16 378 -16 c 128,-1,0
 227 -16 227 -16 137 71 c 128,-1,1
203 542 m 128,-1,9
 148 466 148 466 148 339 c 128,-1,10
 148 212 148 212 210 122 c 128,-1,11
 272 32 272 32 384.5 32 c 128,-1,12
 497 32 497 32 552 108 c 128,-1,13
 607 184 607 184 607 311 c 128,-1,14
 607 438 607 438 545 528 c 128,-1,15
 483 618 483 618 370.5 618 c 128,-1,8
 258 618 258 618 203 542 c 128,-1,9
223 738 m 128,-1,17
 223 761 223 761 238.5 776 c 128,-1,18
 254 791 254 791 278.5 791 c 128,-1,19
 303 791 303 791 318.5 776 c 128,-1,20
 334 761 334 761 334 738 c 128,-1,21
 334 715 334 715 318.5 700.5 c 128,-1,22
 303 686 303 686 278.5 686 c 128,-1,23
 254 686 254 686 238.5 700.5 c 128,-1,16
 223 715 223 715 223 738 c 128,-1,17
415 738 m 128,-1,25
 415 761 415 761 430.5 776 c 128,-1,26
 446 791 446 791 470.5 791 c 128,-1,27
 495 791 495 791 510.5 776 c 128,-1,28
 526 761 526 761 526 738 c 128,-1,29
 526 715 526 715 510.5 700.5 c 128,-1,30
 495 686 495 686 470.5 686 c 128,-1,31
 446 686 446 686 430.5 700.5 c 128,-1,24
 415 715 415 715 415 738 c 128,-1,25
EndSplineSet
EndChar

StartChar: multiply
Encoding: 215 215 150
Width: 460
GlyphClass: 2
Flags: W
LayerCount: 2
Fore
SplineSet
368 34 m 1,0,-1
 230 172 l 1,1,-1
 92 34 l 1,2,-1
 51 75 l 1,3,-1
 189 213 l 1,4,-1
 51 351 l 1,5,-1
 92 392 l 1,6,-1
 230 254 l 1,7,-1
 368 392 l 1,8,-1
 409 351 l 1,9,-1
 271 213 l 1,10,-1
 409 75 l 1,11,-1
 368 34 l 1,0,-1
EndSplineSet
EndChar

StartChar: Oslash
Encoding: 216 216 151
Width: 755
GlyphClass: 2
Flags: W
LayerCount: 2
Fore
SplineSet
143 64 m 1,0,1
 47 151 47 151 47 307.5 c 128,-1,2
 47 464 47 464 136.5 565 c 128,-1,3
 226 666 226 666 375 666 c 0,4,5
 467 666 467 666 540 632 c 1,6,-1
 585 697 l 1,7,-1
 619 660 l 1,8,-1
 582 608 l 1,9,10
 708 521 708 521 708 341 c 0,11,12
 708 186 708 186 618.5 85 c 128,-1,13
 529 -16 529 -16 380 -16 c 0,14,15
 265 -16 265 -16 183 35 c 1,16,-1
 137 -31 l 1,17,-1
 102 5 l 1,18,-1
 143 64 l 1,0,1
607 305 m 0,19,20
 607 455 607 455 535 540 c 1,21,-1
 228 99 l 1,22,23
 290 32 290 32 393.5 32 c 128,-1,24
 497 32 497 32 552 108 c 128,-1,25
 607 184 607 184 607 305 c 0,19,20
148 345 m 128,-1,27
 148 224 148 224 197 141 c 1,28,-1
 500 575 l 1,29,30
 443 618 443 618 366 618 c 0,31,32
 258 618 258 618 203 542 c 128,-1,26
 148 466 148 466 148 345 c 128,-1,27
EndSplineSet
EndChar

StartChar: Ugrave
Encoding: 217 217 152
Width: 724
GlyphClass: 2
Flags: W
LayerCount: 2
Fore
SplineSet
558 229 m 2,0,-1
 558 581 l 2,1,2
 558 594 558 594 555.5 599.5 c 128,-1,3
 553 605 553 605 544 610 c 1,4,5
 525 618 525 618 480 624 c 1,6,-1
 487 658 l 1,7,8
 554 650 554 650 590 650 c 128,-1,9
 626 650 626 650 693 658 c 1,10,-1
 700 624 l 1,11,12
 658 619 658 619 640.5 611.5 c 128,-1,13
 623 604 623 604 623 582 c 2,14,-1
 623 245 l 2,15,16
 623 118 623 118 554.5 52 c 128,-1,17
 486 -14 486 -14 356.5 -14 c 128,-1,18
 227 -14 227 -14 164 45.5 c 128,-1,19
 101 105 101 105 101 233 c 2,20,-1
 101 582 l 2,21,22
 101 596 101 596 98.5 601.5 c 128,-1,23
 96 607 96 607 86 612 c 0,24,25
 72 618 72 618 26 625 c 1,26,-1
 33 658 l 1,27,28
 100 650 100 650 148 650 c 128,-1,29
 196 650 196 650 263 658 c 1,30,-1
 270 625 l 1,31,32
 199 616 199 616 192 600 c 0,33,34
 190 595 190 595 190 581 c 2,35,-1
 190 249 l 2,36,37
 190 145 190 145 236 95.5 c 128,-1,38
 282 46 282 46 374 46 c 128,-1,39
 466 46 466 46 512 95 c 128,-1,40
 558 144 558 144 558 229 c 2,0,-1
225 799 m 1,41,-1
 231 817 l 1,42,43
 243 822 243 822 272.5 827.5 c 128,-1,44
 302 833 302 833 315 833 c 1,45,46
 326 826 326 826 377 773.5 c 128,-1,47
 428 721 428 721 439 708 c 1,48,-1
 413 681 l 1,49,-1
 225 799 l 1,41,-1
EndSplineSet
EndChar

StartChar: Uacute
Encoding: 218 218 153
Width: 724
GlyphClass: 2
Flags: W
LayerCount: 2
Fore
SplineSet
558 229 m 2,0,-1
 558 581 l 2,1,2
 558 594 558 594 555.5 599.5 c 128,-1,3
 553 605 553 605 544 610 c 1,4,5
 525 618 525 618 480 624 c 1,6,-1
 487 658 l 1,7,8
 554 650 554 650 590 650 c 128,-1,9
 626 650 626 650 693 658 c 1,10,-1
 700 624 l 1,11,12
 658 619 658 619 640.5 611.5 c 128,-1,13
 623 604 623 604 623 582 c 2,14,-1
 623 245 l 2,15,16
 623 118 623 118 554.5 52 c 128,-1,17
 486 -14 486 -14 356.5 -14 c 128,-1,18
 227 -14 227 -14 164 45.5 c 128,-1,19
 101 105 101 105 101 233 c 2,20,-1
 101 582 l 2,21,22
 101 596 101 596 98.5 601.5 c 128,-1,23
 96 607 96 607 86 612 c 0,24,25
 72 618 72 618 26 625 c 1,26,-1
 33 658 l 1,27,28
 100 650 100 650 148 650 c 128,-1,29
 196 650 196 650 263 658 c 1,30,-1
 270 625 l 1,31,32
 199 616 199 616 192 600 c 0,33,34
 190 595 190 595 190 581 c 2,35,-1
 190 249 l 2,36,37
 190 145 190 145 236 95.5 c 128,-1,38
 282 46 282 46 374 46 c 128,-1,39
 466 46 466 46 512 95 c 128,-1,40
 558 144 558 144 558 229 c 2,0,-1
498 817 m 1,41,-1
 504 799 l 1,42,-1
 316 681 l 1,43,-1
 290 708 l 1,44,45
 301 721 301 721 352 773.5 c 128,-1,46
 403 826 403 826 414 833 c 1,47,48
 427 833 427 833 456.5 827.5 c 128,-1,49
 486 822 486 822 498 817 c 1,41,-1
EndSplineSet
EndChar

StartChar: Ucircumflex
Encoding: 219 219 154
Width: 724
GlyphClass: 2
Flags: W
LayerCount: 2
Fore
SplineSet
558 229 m 2,0,-1
 558 581 l 2,1,2
 558 594 558 594 555.5 599.5 c 128,-1,3
 553 605 553 605 544 610 c 1,4,5
 525 618 525 618 480 624 c 1,6,-1
 487 658 l 1,7,8
 554 650 554 650 590 650 c 128,-1,9
 626 650 626 650 693 658 c 1,10,-1
 700 624 l 1,11,12
 658 619 658 619 640.5 611.5 c 128,-1,13
 623 604 623 604 623 582 c 2,14,-1
 623 245 l 2,15,16
 623 118 623 118 554.5 52 c 128,-1,17
 486 -14 486 -14 356.5 -14 c 128,-1,18
 227 -14 227 -14 164 45.5 c 128,-1,19
 101 105 101 105 101 233 c 2,20,-1
 101 582 l 2,21,22
 101 596 101 596 98.5 601.5 c 128,-1,23
 96 607 96 607 86 612 c 0,24,25
 72 618 72 618 26 625 c 1,26,-1
 33 658 l 1,27,28
 100 650 100 650 148 650 c 128,-1,29
 196 650 196 650 263 658 c 1,30,-1
 270 625 l 1,31,32
 199 616 199 616 192 600 c 0,33,34
 190 595 190 595 190 581 c 2,35,-1
 190 249 l 2,36,37
 190 145 190 145 236 95.5 c 128,-1,38
 282 46 282 46 374 46 c 128,-1,39
 466 46 466 46 512 95 c 128,-1,40
 558 144 558 144 558 229 c 2,0,-1
372 831 m 128,-1,42
 397 831 397 831 413 829 c 1,43,44
 425 820 425 820 467 766.5 c 128,-1,45
 509 713 509 713 515 702 c 1,46,-1
 487 681 l 1,47,-1
 372 771 l 1,48,-1
 257 681 l 1,49,-1
 229 702 l 1,50,51
 235 713 235 713 277 766.5 c 128,-1,52
 319 820 319 820 331 829 c 1,53,41
 347 831 347 831 372 831 c 128,-1,42
EndSplineSet
EndChar

StartChar: Udieresis
Encoding: 220 220 155
Width: 724
GlyphClass: 2
Flags: W
LayerCount: 2
Fore
SplineSet
558 229 m 2,0,-1
 558 581 l 2,1,2
 558 594 558 594 555.5 599.5 c 128,-1,3
 553 605 553 605 544 610 c 1,4,5
 525 618 525 618 480 624 c 1,6,-1
 487 658 l 1,7,8
 554 650 554 650 590 650 c 128,-1,9
 626 650 626 650 693 658 c 1,10,-1
 700 624 l 1,11,12
 658 619 658 619 640.5 611.5 c 128,-1,13
 623 604 623 604 623 582 c 2,14,-1
 623 245 l 2,15,16
 623 118 623 118 554.5 52 c 128,-1,17
 486 -14 486 -14 356.5 -14 c 128,-1,18
 227 -14 227 -14 164 45.5 c 128,-1,19
 101 105 101 105 101 233 c 2,20,-1
 101 582 l 2,21,22
 101 596 101 596 98.5 601.5 c 128,-1,23
 96 607 96 607 86 612 c 0,24,25
 72 618 72 618 26 625 c 1,26,-1
 33 658 l 1,27,28
 100 650 100 650 148 650 c 128,-1,29
 196 650 196 650 263 658 c 1,30,-1
 270 625 l 1,31,32
 199 616 199 616 192 600 c 0,33,34
 190 595 190 595 190 581 c 2,35,-1
 190 249 l 2,36,37
 190 145 190 145 236 95.5 c 128,-1,38
 282 46 282 46 374 46 c 128,-1,39
 466 46 466 46 512 95 c 128,-1,40
 558 144 558 144 558 229 c 2,0,-1
220 738 m 128,-1,42
 220 761 220 761 235.5 776 c 128,-1,43
 251 791 251 791 275.5 791 c 128,-1,44
 300 791 300 791 315.5 776 c 128,-1,45
 331 761 331 761 331 738 c 128,-1,46
 331 715 331 715 315.5 700.5 c 128,-1,47
 300 686 300 686 275.5 686 c 128,-1,48
 251 686 251 686 235.5 700.5 c 128,-1,41
 220 715 220 715 220 738 c 128,-1,42
412 738 m 128,-1,50
 412 761 412 761 427.5 776 c 128,-1,51
 443 791 443 791 467.5 791 c 128,-1,52
 492 791 492 791 507.5 776 c 128,-1,53
 523 761 523 761 523 738 c 128,-1,54
 523 715 523 715 507.5 700.5 c 128,-1,55
 492 686 492 686 467.5 686 c 128,-1,56
 443 686 443 686 427.5 700.5 c 128,-1,49
 412 715 412 715 412 738 c 128,-1,50
EndSplineSet
EndChar

StartChar: Yacute
Encoding: 221 221 156
Width: 592
GlyphClass: 2
Flags: W
LayerCount: 2
Fore
SplineSet
-2 659 m 1,0,1
 52 650 52 650 117.5 650 c 128,-1,2
 183 650 183 650 251 659 c 1,3,-1
 248 627 l 1,4,5
 218 621 218 621 197 613.5 c 128,-1,6
 176 606 176 606 176 591.5 c 128,-1,7
 176 577 176 577 184 563 c 2,8,-1
 316 330 l 1,9,-1
 447 564 l 2,10,11
 454 576 454 576 454 587 c 128,-1,12
 454 598 454 598 443 606 c 0,13,14
 431 614 431 614 374 627 c 1,15,-1
 371 659 l 1,16,17
 441 650 441 650 487 650 c 128,-1,18
 533 650 533 650 594 659 c 1,19,-1
 590 627 l 1,20,21
 559 624 559 624 542 611.5 c 128,-1,22
 525 599 525 599 505 562 c 1,23,-1
 339 276 l 1,24,-1
 339 68 l 2,25,26
 339 44 339 44 355 37 c 0,27,28
 371 29 371 29 427 23 c 1,29,-1
 419 -8 l 1,30,31
 353 0 353 0 295.5 0 c 128,-1,32
 238 0 238 0 172 -8 c 1,33,-1
 165 24 l 1,34,35
 215 29 215 29 232.5 36.5 c 128,-1,36
 250 44 250 44 250 68 c 2,37,-1
 250 274 l 1,38,-1
 79 569 l 2,39,40
 61 602 61 602 46 613 c 128,-1,41
 31 624 31 624 2 627 c 1,42,-1
 -2 659 l 1,0,1
433 817 m 1,43,-1
 439 799 l 1,44,-1
 251 681 l 1,45,-1
 225 708 l 1,46,47
 236 721 236 721 287 773.5 c 128,-1,48
 338 826 338 826 349 833 c 1,49,50
 362 833 362 833 391.5 827.5 c 128,-1,51
 421 822 421 822 433 817 c 1,43,-1
EndSplineSet
EndChar

StartChar: Thorn
Encoding: 222 222 157
Width: 537
GlyphClass: 2
Flags: W
LayerCount: 2
Fore
SplineSet
228 214 m 1,0,-1
 261 210 l 1,1,2
 422 210 422 210 422 351 c 0,3,4
 422 426 422 426 382 462.5 c 128,-1,5
 342 499 342 499 271 499 c 0,6,7
 244 499 244 499 214 492 c 1,8,-1
 214 68 l 2,9,10
 214 54 214 54 216.5 48.5 c 128,-1,11
 219 43 219 43 228 38 c 1,12,13
 243 32 243 32 291 25 c 1,14,-1
 284 -8 l 1,15,16
 217 0 217 0 170.5 0 c 128,-1,17
 124 0 124 0 57 -8 c 1,18,-1
 50 25 l 1,19,20
 116 33 116 33 122 48 c 0,21,22
 125 54 125 54 125 68 c 2,23,-1
 125 582 l 2,24,25
 125 596 125 596 122.5 601.5 c 128,-1,26
 120 607 120 607 110 612 c 0,27,28
 96 618 96 618 50 625 c 1,29,-1
 57 658 l 1,30,31
 124 650 124 650 170.5 650 c 128,-1,32
 217 650 217 650 284 658 c 1,33,-1
 291 625 l 1,34,35
 224 617 224 617 216 602 c 1,36,37
 214 596 214 596 214 582 c 2,38,-1
 214 535 l 1,39,40
 244 538 244 538 277 538 c 0,41,42
 521 538 521 538 521 364 c 0,43,44
 521 285 521 285 453 229 c 128,-1,45
 385 173 385 173 298 173 c 0,46,47
 284 173 284 173 263 182 c 128,-1,48
 242 191 242 191 232 198 c 1,49,-1
 228 214 l 1,0,-1
EndSplineSet
EndChar

StartChar: germandbls
Encoding: 223 223 158
Width: 590
GlyphClass: 2
Flags: W
LayerCount: 2
Fore
SplineSet
446 441 m 0,0,1
 425 422 425 422 404 406 c 0,2,3
 356 370 356 370 356 346 c 128,-1,4
 356 322 356 322 377 303.5 c 128,-1,5
 398 285 398 285 436 264.5 c 128,-1,6
 474 244 474 244 489 234.5 c 128,-1,7
 504 225 504 225 524 208 c 0,8,9
 560 175 560 175 560 113.5 c 128,-1,10
 560 52 560 52 515.5 18 c 128,-1,11
 471 -16 471 -16 402 -16 c 128,-1,12
 333 -16 333 -16 281 11 c 1,13,14
 279 25 279 25 279 65.5 c 128,-1,15
 279 106 279 106 281 120 c 1,16,-1
 310 126 l 1,17,18
 318 80 318 80 343.5 51 c 128,-1,19
 369 22 369 22 407 22 c 0,20,21
 483 22 483 22 483 92 c 0,22,23
 483 126 483 126 461 147.5 c 128,-1,24
 439 169 439 169 394 193 c 128,-1,25
 349 217 349 217 332.5 228.5 c 128,-1,26
 316 240 316 240 300 266 c 128,-1,27
 284 292 284 292 284 323.5 c 128,-1,28
 284 355 284 355 296.5 376.5 c 128,-1,29
 309 398 309 398 327 412.5 c 128,-1,30
 345 427 345 427 363 442 c 0,31,32
 406 476 406 476 406 540 c 128,-1,33
 406 604 406 604 376.5 639.5 c 128,-1,34
 347 675 347 675 277 675 c 0,35,36
 244 675 244 675 223 651 c 0,37,38
 187 610 187 610 187 531 c 2,39,-1
 187 67 l 2,40,41
 187 54 187 54 190 49 c 128,-1,42
 193 44 193 44 204 37 c 1,43,-1
 241 22 l 1,44,-1
 233 -8 l 1,45,46
 171 0 171 0 145 0 c 128,-1,47
 119 0 119 0 42 -8 c 1,48,-1
 34 22 l 1,49,50
 96 32 96 32 104 48 c 0,51,52
 107 53 107 53 107 66 c 2,53,-1
 107 372 l 1,54,-1
 44 372 l 1,55,-1
 41 401 l 1,56,-1
 107 416 l 1,57,-1
 107 474 l 2,58,59
 107 575 107 575 159.5 646.5 c 128,-1,60
 212 718 212 718 303 718 c 128,-1,61
 394 718 394 718 444 668.5 c 128,-1,62
 494 619 494 619 494 552.5 c 128,-1,63
 494 486 494 486 446 441 c 0,0,1
EndSplineSet
EndChar

StartChar: agrave
Encoding: 224 224 159
Width: 455
GlyphClass: 2
Flags: W
LayerCount: 2
Fore
SplineSet
145 64 m 128,-1,1
 163 44 163 44 197 44 c 128,-1,2
 231 44 231 44 283 84 c 1,3,-1
 283 198 l 1,4,-1
 206 184 l 1,5,6
 127 171 127 171 127 112 c 0,7,0
 127 84 127 84 145 64 c 128,-1,1
363 286 m 2,8,-1
 363 82 l 2,9,10
 363 46 363 46 402 46 c 1,11,-1
 429 47 l 1,12,-1
 437 18 l 1,13,14
 388 7 388 7 333 -16 c 1,15,16
 296 9 296 9 286 51 c 1,17,18
 241 13 241 13 212.5 -1.5 c 128,-1,19
 184 -16 184 -16 156 -16 c 0,20,21
 105 -16 105 -16 74.5 16 c 128,-1,22
 44 48 44 48 44 102.5 c 128,-1,23
 44 157 44 157 83 183.5 c 128,-1,24
 122 210 122 210 191 217 c 2,25,-1
 283 227 l 1,26,-1
 283 272 l 2,27,28
 283 329 283 329 266 358 c 128,-1,29
 249 387 249 387 204.5 387 c 128,-1,30
 160 387 160 387 138 375 c 1,31,32
 132 354 132 354 132 283 c 1,33,-1
 90 271 l 1,34,35
 68 344 68 344 65 383 c 1,36,37
 173 432 173 432 221 432 c 0,38,39
 295 432 295 432 329 396.5 c 128,-1,40
 363 361 363 361 363 286 c 2,8,-1
119 676 m 1,41,42
 123 676 123 676 132 676 c 0,43,44
 177 676 177 676 204 670 c 1,45,46
 212 661 212 661 247 598.5 c 128,-1,47
 282 536 282 536 292 517 c 1,48,-1
 260 498 l 1,49,-1
 109 660 l 1,50,-1
 119 676 l 1,41,42
EndSplineSet
EndChar

StartChar: aacute
Encoding: 225 225 160
Width: 455
GlyphClass: 2
Flags: W
LayerCount: 2
Fore
SplineSet
145 64 m 128,-1,1
 163 44 163 44 197 44 c 128,-1,2
 231 44 231 44 283 84 c 1,3,-1
 283 198 l 1,4,-1
 206 184 l 1,5,6
 127 171 127 171 127 112 c 0,7,0
 127 84 127 84 145 64 c 128,-1,1
363 286 m 2,8,-1
 363 82 l 2,9,10
 363 46 363 46 402 46 c 1,11,-1
 429 47 l 1,12,-1
 437 18 l 1,13,14
 388 7 388 7 333 -16 c 1,15,16
 296 9 296 9 286 51 c 1,17,18
 241 13 241 13 212.5 -1.5 c 128,-1,19
 184 -16 184 -16 156 -16 c 0,20,21
 105 -16 105 -16 74.5 16 c 128,-1,22
 44 48 44 48 44 102.5 c 128,-1,23
 44 157 44 157 83 183.5 c 128,-1,24
 122 210 122 210 191 217 c 2,25,-1
 283 227 l 1,26,-1
 283 272 l 2,27,28
 283 329 283 329 266 358 c 128,-1,29
 249 387 249 387 204.5 387 c 128,-1,30
 160 387 160 387 138 375 c 1,31,32
 132 354 132 354 132 283 c 1,33,-1
 90 271 l 1,34,35
 68 344 68 344 65 383 c 1,36,37
 173 432 173 432 221 432 c 0,38,39
 295 432 295 432 329 396.5 c 128,-1,40
 363 361 363 361 363 286 c 2,8,-1
236 670 m 1,41,42
 263 676 263 676 290 676 c 128,-1,43
 317 676 317 676 321 676 c 1,44,-1
 331 660 l 1,45,-1
 180 498 l 1,46,-1
 148 517 l 1,47,48
 158 536 158 536 193 598.5 c 128,-1,49
 228 661 228 661 236 670 c 1,41,42
EndSplineSet
EndChar

StartChar: acircumflex
Encoding: 226 226 161
Width: 455
GlyphClass: 2
Flags: W
LayerCount: 2
Fore
SplineSet
145 64 m 128,-1,1
 163 44 163 44 197 44 c 128,-1,2
 231 44 231 44 283 84 c 1,3,-1
 283 198 l 1,4,-1
 206 184 l 1,5,6
 127 171 127 171 127 112 c 0,7,0
 127 84 127 84 145 64 c 128,-1,1
363 286 m 2,8,-1
 363 82 l 2,9,10
 363 46 363 46 402 46 c 1,11,-1
 429 47 l 1,12,-1
 437 18 l 1,13,14
 388 7 388 7 333 -16 c 1,15,16
 296 9 296 9 286 51 c 1,17,18
 241 13 241 13 212.5 -1.5 c 128,-1,19
 184 -16 184 -16 156 -16 c 0,20,21
 105 -16 105 -16 74.5 16 c 128,-1,22
 44 48 44 48 44 102.5 c 128,-1,23
 44 157 44 157 83 183.5 c 128,-1,24
 122 210 122 210 191 217 c 2,25,-1
 283 227 l 1,26,-1
 283 272 l 2,27,28
 283 329 283 329 266 358 c 128,-1,29
 249 387 249 387 204.5 387 c 128,-1,30
 160 387 160 387 138 375 c 1,31,32
 132 354 132 354 132 283 c 1,33,-1
 90 271 l 1,34,35
 68 344 68 344 65 383 c 1,36,37
 173 432 173 432 221 432 c 0,38,39
 295 432 295 432 329 396.5 c 128,-1,40
 363 361 363 361 363 286 c 2,8,-1
220 676 m 128,-1,42
 245 676 245 676 261 674 c 1,43,44
 270 665 270 665 306 601.5 c 128,-1,45
 342 538 342 538 352 517 c 1,46,-1
 320 498 l 1,47,-1
 220 610 l 1,48,-1
 120 498 l 1,49,-1
 88 517 l 1,50,51
 98 538 98 538 134 601.5 c 128,-1,52
 170 665 170 665 179 674 c 1,53,41
 195 676 195 676 220 676 c 128,-1,42
EndSplineSet
EndChar

StartChar: atilde
Encoding: 227 227 162
Width: 455
GlyphClass: 2
Flags: W
LayerCount: 2
Fore
SplineSet
145 64 m 128,-1,1
 163 44 163 44 197 44 c 128,-1,2
 231 44 231 44 283 84 c 1,3,-1
 283 198 l 1,4,-1
 206 184 l 1,5,6
 127 171 127 171 127 112 c 0,7,0
 127 84 127 84 145 64 c 128,-1,1
363 286 m 2,8,-1
 363 82 l 2,9,10
 363 46 363 46 402 46 c 1,11,-1
 429 47 l 1,12,-1
 437 18 l 1,13,14
 388 7 388 7 333 -16 c 1,15,16
 296 9 296 9 286 51 c 1,17,18
 241 13 241 13 212.5 -1.5 c 128,-1,19
 184 -16 184 -16 156 -16 c 0,20,21
 105 -16 105 -16 74.5 16 c 128,-1,22
 44 48 44 48 44 102.5 c 128,-1,23
 44 157 44 157 83 183.5 c 128,-1,24
 122 210 122 210 191 217 c 2,25,-1
 283 227 l 1,26,-1
 283 272 l 2,27,28
 283 329 283 329 266 358 c 128,-1,29
 249 387 249 387 204.5 387 c 128,-1,30
 160 387 160 387 138 375 c 1,31,32
 132 354 132 354 132 283 c 1,33,-1
 90 271 l 1,34,35
 68 344 68 344 65 383 c 1,36,37
 173 432 173 432 221 432 c 0,38,39
 295 432 295 432 329 396.5 c 128,-1,40
 363 361 363 361 363 286 c 2,8,-1
151 566 m 128,-1,42
 127 566 127 566 93 524 c 1,43,-1
 66 540 l 1,44,45
 76 558 76 558 101.5 587 c 128,-1,46
 127 616 127 616 141 627 c 1,47,-1
 164 631 l 1,48,49
 176 629 176 629 221 609.5 c 128,-1,50
 266 590 266 590 289.5 590 c 128,-1,51
 313 590 313 590 348 633 c 1,52,-1
 375 616 l 1,53,54
 364 598 364 598 338.5 568 c 128,-1,55
 313 538 313 538 300 528 c 1,56,-1
 277 524 l 1,57,58
 265 526 265 526 220 546 c 128,-1,41
 175 566 175 566 151 566 c 128,-1,42
EndSplineSet
EndChar

StartChar: adieresis
Encoding: 228 228 163
Width: 455
GlyphClass: 2
Flags: W
LayerCount: 2
Fore
SplineSet
145 64 m 128,-1,1
 163 44 163 44 197 44 c 128,-1,2
 231 44 231 44 283 84 c 1,3,-1
 283 198 l 1,4,-1
 206 184 l 1,5,6
 127 171 127 171 127 112 c 0,7,0
 127 84 127 84 145 64 c 128,-1,1
363 286 m 2,8,-1
 363 82 l 2,9,10
 363 46 363 46 402 46 c 1,11,-1
 429 47 l 1,12,-1
 437 18 l 1,13,14
 388 7 388 7 333 -16 c 1,15,16
 296 9 296 9 286 51 c 1,17,18
 241 13 241 13 212.5 -1.5 c 128,-1,19
 184 -16 184 -16 156 -16 c 0,20,21
 105 -16 105 -16 74.5 16 c 128,-1,22
 44 48 44 48 44 102.5 c 128,-1,23
 44 157 44 157 83 183.5 c 128,-1,24
 122 210 122 210 191 217 c 2,25,-1
 283 227 l 1,26,-1
 283 272 l 2,27,28
 283 329 283 329 266 358 c 128,-1,29
 249 387 249 387 204.5 387 c 128,-1,30
 160 387 160 387 138 375 c 1,31,32
 132 354 132 354 132 283 c 1,33,-1
 90 271 l 1,34,35
 68 344 68 344 65 383 c 1,36,37
 173 432 173 432 221 432 c 0,38,39
 295 432 295 432 329 396.5 c 128,-1,40
 363 361 363 361 363 286 c 2,8,-1
68 591 m 128,-1,42
 68 614 68 614 83.5 629 c 128,-1,43
 99 644 99 644 123.5 644 c 128,-1,44
 148 644 148 644 163.5 629 c 128,-1,45
 179 614 179 614 179 591 c 128,-1,46
 179 568 179 568 163.5 553.5 c 128,-1,47
 148 539 148 539 123.5 539 c 128,-1,48
 99 539 99 539 83.5 553.5 c 128,-1,41
 68 568 68 568 68 591 c 128,-1,42
260 591 m 128,-1,50
 260 614 260 614 275.5 629 c 128,-1,51
 291 644 291 644 315.5 644 c 128,-1,52
 340 644 340 644 355.5 629 c 128,-1,53
 371 614 371 614 371 591 c 128,-1,54
 371 568 371 568 355.5 553.5 c 128,-1,55
 340 539 340 539 315.5 539 c 128,-1,56
 291 539 291 539 275.5 553.5 c 128,-1,49
 260 568 260 568 260 591 c 128,-1,50
EndSplineSet
EndChar

StartChar: aring
Encoding: 229 229 164
Width: 455
GlyphClass: 2
Flags: W
LayerCount: 2
Fore
SplineSet
145 64 m 128,-1,1
 163 44 163 44 197 44 c 128,-1,2
 231 44 231 44 283 84 c 1,3,-1
 283 198 l 1,4,-1
 206 184 l 1,5,6
 127 171 127 171 127 112 c 0,7,0
 127 84 127 84 145 64 c 128,-1,1
363 286 m 2,8,-1
 363 82 l 2,9,10
 363 46 363 46 402 46 c 1,11,-1
 429 47 l 1,12,-1
 437 18 l 1,13,14
 388 7 388 7 333 -16 c 1,15,16
 296 9 296 9 286 51 c 1,17,18
 241 13 241 13 212.5 -1.5 c 128,-1,19
 184 -16 184 -16 156 -16 c 0,20,21
 105 -16 105 -16 74.5 16 c 128,-1,22
 44 48 44 48 44 102.5 c 128,-1,23
 44 157 44 157 83 183.5 c 128,-1,24
 122 210 122 210 191 217 c 2,25,-1
 283 227 l 1,26,-1
 283 272 l 2,27,28
 283 329 283 329 266 358 c 128,-1,29
 249 387 249 387 204.5 387 c 128,-1,30
 160 387 160 387 138 375 c 1,31,32
 132 354 132 354 132 283 c 1,33,-1
 90 271 l 1,34,35
 68 344 68 344 65 383 c 1,36,37
 173 432 173 432 221 432 c 0,38,39
 295 432 295 432 329 396.5 c 128,-1,40
 363 361 363 361 363 286 c 2,8,-1
170 588 m 128,-1,42
 170 566 170 566 184 551 c 128,-1,43
 198 536 198 536 218 536 c 128,-1,44
 238 536 238 536 252 551 c 128,-1,45
 266 566 266 566 266 588 c 128,-1,46
 266 610 266 610 252 625 c 128,-1,47
 238 640 238 640 218 640 c 128,-1,48
 198 640 198 640 184 625 c 128,-1,41
 170 610 170 610 170 588 c 128,-1,42
132 588 m 128,-1,50
 132 622 132 622 157.5 647.5 c 128,-1,51
 183 673 183 673 218 673 c 128,-1,52
 253 673 253 673 278.5 647.5 c 128,-1,53
 304 622 304 622 304 588 c 128,-1,54
 304 554 304 554 278.5 528.5 c 128,-1,55
 253 503 253 503 218 503 c 128,-1,56
 183 503 183 503 157.5 528.5 c 128,-1,49
 132 554 132 554 132 588 c 128,-1,50
EndSplineSet
EndChar

StartChar: ae
Encoding: 230 230 165
Width: 679
GlyphClass: 2
Flags: W
LayerCount: 2
Fore
SplineSet
507 47 m 0,0,1
 566 47 566 47 624 90 c 1,2,-1
 640 68 l 1,3,4
 551 -16 551 -16 474 -16 c 0,5,6
 366 -16 366 -16 314 71 c 1,7,8
 223 -16 223 -16 156 -16 c 0,9,10
 105 -16 105 -16 74.5 16 c 128,-1,11
 44 48 44 48 44 102.5 c 128,-1,12
 44 157 44 157 83 183.5 c 128,-1,13
 122 210 122 210 191 217 c 2,14,-1
 283 227 l 1,15,-1
 283 272 l 2,16,17
 283 329 283 329 266 358 c 128,-1,18
 249 387 249 387 203 387 c 128,-1,19
 157 387 157 387 133 374 c 1,20,21
 129 354 129 354 129 286 c 1,22,-1
 88 276 l 1,23,24
 72 326 72 326 65 383 c 1,25,26
 173 432 173 432 221 432 c 0,27,28
 314 432 314 432 345 375 c 1,29,30
 397 432 397 432 477 432 c 128,-1,31
 557 432 557 432 599.5 377.5 c 128,-1,32
 642 323 642 323 642 230 c 1,33,-1
 366 210 l 1,34,35
 374 47 374 47 507 47 c 0,0,1
531.5 356.5 m 128,-1,37
 511 391 511 391 463.5 391 c 128,-1,38
 416 391 416 391 391 348 c 128,-1,39
 366 305 366 305 366 246 c 1,40,-1
 552 270 l 1,41,36
 552 322 552 322 531.5 356.5 c 128,-1,37
191 44 m 0,42,43
 240 44 240 44 301 99 c 1,44,45
 283 141 283 141 283 198 c 1,46,-1
 206 184 l 1,47,48
 127 171 127 171 127 112 c 0,49,50
 127 84 127 84 145 64 c 128,-1,51
 163 44 163 44 191 44 c 0,42,43
EndSplineSet
EndChar

StartChar: ccedilla
Encoding: 231 231 166
Width: 435
GlyphClass: 2
Flags: W
LayerCount: 2
Fore
SplineSet
84 59 m 128,-1,1
 42 115 42 115 42 206 c 128,-1,2
 42 297 42 297 96.5 364.5 c 128,-1,3
 151 432 151 432 243 432 c 0,4,5
 274 432 274 432 323 418.5 c 128,-1,6
 372 405 372 405 398 394 c 1,7,8
 396 373 396 373 383.5 325.5 c 128,-1,9
 371 278 371 278 362 259 c 1,10,-1
 328 265 l 1,11,12
 329 275 329 275 329 289 c 0,13,14
 329 349 329 349 318 371 c 1,15,16
 291 390 291 390 235 390 c 0,17,18
 131 390 131 390 131 223 c 0,19,20
 131 137 131 137 170 92 c 128,-1,21
 209 47 209 47 269 47 c 128,-1,22
 329 47 329 47 389 88 c 1,23,-1
 405 64 l 1,24,25
 316 -16 316 -16 242 -16 c 2,26,-1
 239 -16 l 1,27,-1
 222 -71 l 1,28,29
 254 -71 254 -71 276.5 -93.5 c 128,-1,30
 299 -116 299 -116 299 -153.5 c 128,-1,31
 299 -191 299 -191 271.5 -214.5 c 128,-1,32
 244 -238 244 -238 202.5 -239 c 128,-1,33
 161 -240 161 -240 110 -211 c 1,34,-1
 125 -180 l 1,35,36
 165 -198 165 -198 193 -198 c 0,37,38
 246 -198 246 -198 246 -158 c 0,39,40
 246 -132 246 -132 222 -118 c 0,41,42
 208 -110 208 -110 193 -110 c 128,-1,43
 178 -110 178 -110 165 -113 c 1,44,-1
 152 -92 l 1,45,-1
 197 -11 l 1,46,0
 126 3 126 3 84 59 c 128,-1,1
EndSplineSet
EndChar

StartChar: egrave
Encoding: 232 232 167
Width: 450
GlyphClass: 2
Flags: W
LayerCount: 2
Fore
SplineSet
275 47 m 0,0,1
 335 47 335 47 395 90 c 1,2,-1
 411 68 l 1,3,4
 320 -16 320 -16 235.5 -16 c 128,-1,5
 151 -16 151 -16 96.5 42.5 c 128,-1,6
 42 101 42 101 42 198 c 128,-1,7
 42 295 42 295 97 363.5 c 128,-1,8
 152 432 152 432 239.5 432 c 128,-1,9
 327 432 327 432 370 377.5 c 128,-1,10
 413 323 413 323 413 230 c 1,11,-1
 131 210 l 1,12,13
 139 47 139 47 275 47 c 0,0,1
234 391 m 0,14,15
 181 391 181 391 156 348.5 c 128,-1,16
 131 306 131 306 131 246 c 1,17,-1
 323 270 l 1,18,19
 323 391 323 391 234 391 c 0,14,15
139 676 m 1,20,21
 143 676 143 676 152 676 c 0,22,23
 197 676 197 676 224 670 c 1,24,25
 232 661 232 661 267 598.5 c 128,-1,26
 302 536 302 536 312 517 c 1,27,-1
 280 498 l 1,28,-1
 129 660 l 1,29,-1
 139 676 l 1,20,21
EndSplineSet
EndChar

StartChar: eacute
Encoding: 233 233 168
Width: 450
GlyphClass: 2
Flags: W
LayerCount: 2
Fore
SplineSet
275 47 m 0,0,1
 335 47 335 47 395 90 c 1,2,-1
 411 68 l 1,3,4
 320 -16 320 -16 235.5 -16 c 128,-1,5
 151 -16 151 -16 96.5 42.5 c 128,-1,6
 42 101 42 101 42 198 c 128,-1,7
 42 295 42 295 97 363.5 c 128,-1,8
 152 432 152 432 239.5 432 c 128,-1,9
 327 432 327 432 370 377.5 c 128,-1,10
 413 323 413 323 413 230 c 1,11,-1
 131 210 l 1,12,13
 139 47 139 47 275 47 c 0,0,1
234 391 m 0,14,15
 181 391 181 391 156 348.5 c 128,-1,16
 131 306 131 306 131 246 c 1,17,-1
 323 270 l 1,18,19
 323 391 323 391 234 391 c 0,14,15
256 670 m 1,20,21
 283 676 283 676 310 676 c 128,-1,22
 337 676 337 676 341 676 c 1,23,-1
 351 660 l 1,24,-1
 200 498 l 1,25,-1
 168 517 l 1,26,27
 178 536 178 536 213 598.5 c 128,-1,28
 248 661 248 661 256 670 c 1,20,21
EndSplineSet
EndChar

StartChar: ecircumflex
Encoding: 234 234 169
Width: 450
GlyphClass: 2
Flags: W
LayerCount: 2
Fore
SplineSet
275 47 m 0,0,1
 335 47 335 47 395 90 c 1,2,-1
 411 68 l 1,3,4
 320 -16 320 -16 235.5 -16 c 128,-1,5
 151 -16 151 -16 96.5 42.5 c 128,-1,6
 42 101 42 101 42 198 c 128,-1,7
 42 295 42 295 97 363.5 c 128,-1,8
 152 432 152 432 239.5 432 c 128,-1,9
 327 432 327 432 370 377.5 c 128,-1,10
 413 323 413 323 413 230 c 1,11,-1
 131 210 l 1,12,13
 139 47 139 47 275 47 c 0,0,1
234 391 m 0,14,15
 181 391 181 391 156 348.5 c 128,-1,16
 131 306 131 306 131 246 c 1,17,-1
 323 270 l 1,18,19
 323 391 323 391 234 391 c 0,14,15
240 676 m 128,-1,21
 265 676 265 676 281 674 c 1,22,23
 290 665 290 665 326 601.5 c 128,-1,24
 362 538 362 538 372 517 c 1,25,-1
 340 498 l 1,26,-1
 240 610 l 1,27,-1
 140 498 l 1,28,-1
 108 517 l 1,29,30
 118 538 118 538 154 601.5 c 128,-1,31
 190 665 190 665 199 674 c 1,32,20
 215 676 215 676 240 676 c 128,-1,21
EndSplineSet
EndChar

StartChar: edieresis
Encoding: 235 235 170
Width: 450
GlyphClass: 2
Flags: W
LayerCount: 2
Fore
SplineSet
275 47 m 0,0,1
 335 47 335 47 395 90 c 1,2,-1
 411 68 l 1,3,4
 320 -16 320 -16 235.5 -16 c 128,-1,5
 151 -16 151 -16 96.5 42.5 c 128,-1,6
 42 101 42 101 42 198 c 128,-1,7
 42 295 42 295 97 363.5 c 128,-1,8
 152 432 152 432 239.5 432 c 128,-1,9
 327 432 327 432 370 377.5 c 128,-1,10
 413 323 413 323 413 230 c 1,11,-1
 131 210 l 1,12,13
 139 47 139 47 275 47 c 0,0,1
234 391 m 0,14,15
 181 391 181 391 156 348.5 c 128,-1,16
 131 306 131 306 131 246 c 1,17,-1
 323 270 l 1,18,19
 323 391 323 391 234 391 c 0,14,15
88 591 m 128,-1,21
 88 614 88 614 103.5 629 c 128,-1,22
 119 644 119 644 143.5 644 c 128,-1,23
 168 644 168 644 183.5 629 c 128,-1,24
 199 614 199 614 199 591 c 128,-1,25
 199 568 199 568 183.5 553.5 c 128,-1,26
 168 539 168 539 143.5 539 c 128,-1,27
 119 539 119 539 103.5 553.5 c 128,-1,20
 88 568 88 568 88 591 c 128,-1,21
280 591 m 128,-1,29
 280 614 280 614 295.5 629 c 128,-1,30
 311 644 311 644 335.5 644 c 128,-1,31
 360 644 360 644 375.5 629 c 128,-1,32
 391 614 391 614 391 591 c 128,-1,33
 391 568 391 568 375.5 553.5 c 128,-1,34
 360 539 360 539 335.5 539 c 128,-1,35
 311 539 311 539 295.5 553.5 c 128,-1,28
 280 568 280 568 280 591 c 128,-1,29
EndSplineSet
EndChar

StartChar: igrave
Encoding: 236 236 171
Width: 284
GlyphClass: 2
Flags: W
LayerCount: 2
Fore
SplineSet
187 66 m 2,0,1
 187 53 187 53 189.5 48 c 128,-1,2
 192 43 192 43 202 38 c 0,3,4
 221 28 221 28 260 22 c 1,5,-1
 253 -8 l 1,6,7
 186 0 186 0 147 0 c 128,-1,8
 108 0 108 0 42 -8 c 1,9,-1
 34 22 l 1,10,11
 96 32 96 32 104 48 c 0,12,13
 107 53 107 53 107 66 c 2,14,-1
 107 341 l 2,15,16
 107 370 107 370 90 373 c 0,17,18
 75 375 75 375 43 369 c 1,19,-1
 37 399 l 1,20,21
 67 411 67 411 112 421.5 c 128,-1,22
 157 432 157 432 183 432 c 1,23,-1
 198 414 l 1,24,25
 187 372 187 372 187 316 c 2,26,-1
 187 66 l 2,0,1
39 676 m 1,27,28
 43 676 43 676 52 676 c 0,29,30
 97 676 97 676 124 670 c 1,31,32
 132 661 132 661 167 598.5 c 128,-1,33
 202 536 202 536 212 517 c 1,34,-1
 180 498 l 1,35,-1
 29 660 l 1,36,-1
 39 676 l 1,27,28
EndSplineSet
EndChar

StartChar: iacute
Encoding: 237 237 172
Width: 284
GlyphClass: 2
Flags: W
LayerCount: 2
Fore
SplineSet
187 66 m 2,0,1
 187 53 187 53 189.5 48 c 128,-1,2
 192 43 192 43 202 38 c 0,3,4
 221 28 221 28 260 22 c 1,5,-1
 253 -8 l 1,6,7
 186 0 186 0 147 0 c 128,-1,8
 108 0 108 0 42 -8 c 1,9,-1
 34 22 l 1,10,11
 96 32 96 32 104 48 c 0,12,13
 107 53 107 53 107 66 c 2,14,-1
 107 341 l 2,15,16
 107 370 107 370 90 373 c 0,17,18
 75 375 75 375 43 369 c 1,19,-1
 37 399 l 1,20,21
 67 411 67 411 112 421.5 c 128,-1,22
 157 432 157 432 183 432 c 1,23,-1
 198 414 l 1,24,25
 187 372 187 372 187 316 c 2,26,-1
 187 66 l 2,0,1
156 670 m 1,27,28
 183 676 183 676 210 676 c 128,-1,29
 237 676 237 676 241 676 c 1,30,-1
 251 660 l 1,31,-1
 100 498 l 1,32,-1
 68 517 l 1,33,34
 78 536 78 536 113 598.5 c 128,-1,35
 148 661 148 661 156 670 c 1,27,28
EndSplineSet
EndChar

StartChar: icircumflex
Encoding: 238 238 173
Width: 284
GlyphClass: 2
Flags: W
LayerCount: 2
Fore
SplineSet
187 66 m 2,0,1
 187 53 187 53 189.5 48 c 128,-1,2
 192 43 192 43 202 38 c 0,3,4
 221 28 221 28 260 22 c 1,5,-1
 253 -8 l 1,6,7
 186 0 186 0 147 0 c 128,-1,8
 108 0 108 0 42 -8 c 1,9,-1
 34 22 l 1,10,11
 96 32 96 32 104 48 c 0,12,13
 107 53 107 53 107 66 c 2,14,-1
 107 341 l 2,15,16
 107 370 107 370 90 373 c 0,17,18
 75 375 75 375 43 369 c 1,19,-1
 37 399 l 1,20,21
 67 411 67 411 112 421.5 c 128,-1,22
 157 432 157 432 183 432 c 1,23,-1
 198 414 l 1,24,25
 187 372 187 372 187 316 c 2,26,-1
 187 66 l 2,0,1
140 676 m 128,-1,28
 165 676 165 676 181 674 c 1,29,30
 190 665 190 665 226 601.5 c 128,-1,31
 262 538 262 538 272 517 c 1,32,-1
 240 498 l 1,33,-1
 140 610 l 1,34,-1
 40 498 l 1,35,-1
 8 517 l 1,36,37
 18 538 18 538 54 601.5 c 128,-1,38
 90 665 90 665 99 674 c 1,39,27
 115 676 115 676 140 676 c 128,-1,28
EndSplineSet
EndChar

StartChar: idieresis
Encoding: 239 239 174
Width: 284
GlyphClass: 2
Flags: W
LayerCount: 2
Fore
SplineSet
187 66 m 2,0,1
 187 53 187 53 189.5 48 c 128,-1,2
 192 43 192 43 202 38 c 0,3,4
 221 28 221 28 260 22 c 1,5,-1
 253 -8 l 1,6,7
 186 0 186 0 147 0 c 128,-1,8
 108 0 108 0 42 -8 c 1,9,-1
 34 22 l 1,10,11
 96 32 96 32 104 48 c 0,12,13
 107 53 107 53 107 66 c 2,14,-1
 107 341 l 2,15,16
 107 370 107 370 90 373 c 0,17,18
 75 375 75 375 43 369 c 1,19,-1
 37 399 l 1,20,21
 67 411 67 411 112 421.5 c 128,-1,22
 157 432 157 432 183 432 c 1,23,-1
 198 414 l 1,24,25
 187 372 187 372 187 316 c 2,26,-1
 187 66 l 2,0,1
-12 591 m 128,-1,28
 -12 614 -12 614 3.5 629 c 128,-1,29
 19 644 19 644 43.5 644 c 128,-1,30
 68 644 68 644 83.5 629 c 128,-1,31
 99 614 99 614 99 591 c 128,-1,32
 99 568 99 568 83.5 553.5 c 128,-1,33
 68 539 68 539 43.5 539 c 128,-1,34
 19 539 19 539 3.5 553.5 c 128,-1,27
 -12 568 -12 568 -12 591 c 128,-1,28
180 591 m 128,-1,36
 180 614 180 614 195.5 629 c 128,-1,37
 211 644 211 644 235.5 644 c 128,-1,38
 260 644 260 644 275.5 629 c 128,-1,39
 291 614 291 614 291 591 c 128,-1,40
 291 568 291 568 275.5 553.5 c 128,-1,41
 260 539 260 539 235.5 539 c 128,-1,42
 211 539 211 539 195.5 553.5 c 128,-1,35
 180 568 180 568 180 591 c 128,-1,36
EndSplineSet
EndChar

StartChar: eth
Encoding: 240 240 175
Width: 460
GlyphClass: 2
Flags: W
LayerCount: 2
Fore
SplineSet
421 290 m 0,0,1
 421 163 421 163 382 80 c 0,2,3
 336 -16 336 -16 212 -16 c 0,4,5
 111 -16 111 -16 57 42 c 128,-1,6
 3 100 3 100 3 200.5 c 128,-1,7
 3 301 3 301 60.5 366.5 c 128,-1,8
 118 432 118 432 211 432 c 0,9,10
 268 432 268 432 314 400 c 1,11,12
 294 505 294 505 242 574 c 1,13,-1
 128 509 l 1,14,-1
 114 549 l 1,15,-1
 215 607 l 1,16,17
 152 670 152 670 60 686 c 1,18,-1
 63 718 l 1,19,20
 173 713 173 713 268 637 c 1,21,-1
 379 701 l 1,22,-1
 393 661 l 1,23,-1
 300 607 l 1,24,25
 421 483 421 483 421 290 c 0,0,1
92 219 m 0,26,27
 92 125 92 125 127 75 c 128,-1,28
 162 25 162 25 225 25 c 0,29,30
 326 25 326 25 326 197 c 0,31,32
 326 283 326 283 319 320 c 1,33,34
 280 391 280 391 197 391 c 0,35,36
 92 391 92 391 92 219 c 0,26,27
EndSplineSet
EndChar

StartChar: ntilde
Encoding: 241 241 176
Width: 567
GlyphClass: 2
Flags: W
LayerCount: 2
Fore
SplineSet
187 64 m 2,0,1
 187 51 187 51 189.5 46.5 c 128,-1,2
 192 42 192 42 202 37 c 0,3,4
 221 27 221 27 256 21 c 1,5,-1
 249 -8 l 1,6,7
 167 0 167 0 145.5 0 c 128,-1,8
 124 0 124 0 42 -8 c 1,9,-1
 34 22 l 1,10,11
 96 32 96 32 104 48 c 0,12,13
 107 53 107 53 107 66 c 2,14,-1
 107 336 l 2,15,16
 107 366 107 366 90 369 c 0,17,18
 73 371 73 371 35 364 c 1,19,-1
 30 394 l 1,20,21
 101 425 101 425 160 432 c 1,22,-1
 176 414 l 1,23,24
 176 388 176 388 186 358 c 1,25,-1
 224 387 l 1,26,27
 281 432 281 432 344 432 c 128,-1,28
 407 432 407 432 440.5 397 c 128,-1,29
 474 362 474 362 474 281 c 2,30,-1
 474 66 l 2,31,32
 474 53 474 53 476.5 48 c 128,-1,33
 479 43 479 43 488 38 c 0,34,35
 502 31 502 31 547 22 c 1,36,-1
 540 -8 l 1,37,38
 458 0 458 0 436.5 0 c 128,-1,39
 415 0 415 0 333 -8 c 1,40,-1
 326 21 l 1,41,42
 384 31 384 31 392 47 c 0,43,44
 394 52 394 52 394 64 c 2,45,-1
 394 261 l 2,46,47
 394 319 394 319 373.5 345 c 128,-1,48
 353 371 353 371 302 371 c 128,-1,49
 251 371 251 371 187 321 c 1,50,-1
 187 64 l 2,0,1
219 566 m 128,-1,52
 195 566 195 566 161 524 c 1,53,-1
 134 540 l 1,54,55
 144 558 144 558 169.5 587 c 128,-1,56
 195 616 195 616 209 627 c 1,57,-1
 232 631 l 1,58,59
 244 629 244 629 289 609.5 c 128,-1,60
 334 590 334 590 357.5 590 c 128,-1,61
 381 590 381 590 416 633 c 1,62,-1
 443 616 l 1,63,64
 432 598 432 598 406.5 568 c 128,-1,65
 381 538 381 538 368 528 c 1,66,-1
 345 524 l 1,67,68
 333 526 333 526 288 546 c 128,-1,51
 243 566 243 566 219 566 c 128,-1,52
EndSplineSet
EndChar

StartChar: ograve
Encoding: 242 242 177
Width: 502
GlyphClass: 2
Flags: W
LayerCount: 2
Fore
SplineSet
96 42 m 128,-1,1
 42 100 42 100 42 200.5 c 128,-1,2
 42 301 42 301 99.5 366.5 c 128,-1,3
 157 432 157 432 253.5 432 c 128,-1,4
 350 432 350 432 405 373.5 c 128,-1,5
 460 315 460 315 460 215.5 c 128,-1,6
 460 116 460 116 402 50 c 128,-1,7
 344 -16 344 -16 247 -16 c 128,-1,0
 150 -16 150 -16 96 42 c 128,-1,1
131 219 m 0,8,9
 131 125 131 125 166 75 c 128,-1,10
 201 25 201 25 264 25 c 0,11,12
 370 25 370 25 370 197 c 0,13,14
 370 290 370 290 334.5 340.5 c 128,-1,15
 299 391 299 391 236 391 c 0,16,17
 131 391 131 391 131 219 c 0,8,9
158 675 m 1,18,19
 162 675 162 675 171 675 c 0,20,21
 216 675 216 675 243 669 c 1,22,23
 251 660 251 660 286 597.5 c 128,-1,24
 321 535 321 535 331 516 c 1,25,-1
 299 497 l 1,26,-1
 148 659 l 1,27,-1
 158 675 l 1,18,19
EndSplineSet
EndChar

StartChar: oacute
Encoding: 243 243 178
Width: 502
GlyphClass: 2
Flags: W
LayerCount: 2
Fore
SplineSet
96 42 m 128,-1,1
 42 100 42 100 42 200.5 c 128,-1,2
 42 301 42 301 99.5 366.5 c 128,-1,3
 157 432 157 432 253.5 432 c 128,-1,4
 350 432 350 432 405 373.5 c 128,-1,5
 460 315 460 315 460 215.5 c 128,-1,6
 460 116 460 116 402 50 c 128,-1,7
 344 -16 344 -16 247 -16 c 128,-1,0
 150 -16 150 -16 96 42 c 128,-1,1
131 219 m 0,8,9
 131 125 131 125 166 75 c 128,-1,10
 201 25 201 25 264 25 c 0,11,12
 370 25 370 25 370 197 c 0,13,14
 370 290 370 290 334.5 340.5 c 128,-1,15
 299 391 299 391 236 391 c 0,16,17
 131 391 131 391 131 219 c 0,8,9
275 669 m 1,18,19
 302 675 302 675 329 675 c 128,-1,20
 356 675 356 675 360 675 c 1,21,-1
 370 659 l 1,22,-1
 219 497 l 1,23,-1
 187 516 l 1,24,25
 197 535 197 535 232 597.5 c 128,-1,26
 267 660 267 660 275 669 c 1,18,19
EndSplineSet
EndChar

StartChar: ocircumflex
Encoding: 244 244 179
Width: 502
GlyphClass: 2
Flags: W
LayerCount: 2
Fore
SplineSet
96 42 m 128,-1,1
 42 100 42 100 42 200.5 c 128,-1,2
 42 301 42 301 99.5 366.5 c 128,-1,3
 157 432 157 432 253.5 432 c 128,-1,4
 350 432 350 432 405 373.5 c 128,-1,5
 460 315 460 315 460 215.5 c 128,-1,6
 460 116 460 116 402 50 c 128,-1,7
 344 -16 344 -16 247 -16 c 128,-1,0
 150 -16 150 -16 96 42 c 128,-1,1
131 219 m 0,8,9
 131 125 131 125 166 75 c 128,-1,10
 201 25 201 25 264 25 c 0,11,12
 370 25 370 25 370 197 c 0,13,14
 370 290 370 290 334.5 340.5 c 128,-1,15
 299 391 299 391 236 391 c 0,16,17
 131 391 131 391 131 219 c 0,8,9
259 675 m 128,-1,19
 284 675 284 675 300 673 c 1,20,21
 309 664 309 664 345 600.5 c 128,-1,22
 381 537 381 537 391 516 c 1,23,-1
 359 497 l 1,24,-1
 259 609 l 1,25,-1
 159 497 l 1,26,-1
 127 516 l 1,27,28
 137 537 137 537 173 600.5 c 128,-1,29
 209 664 209 664 218 673 c 1,30,18
 234 675 234 675 259 675 c 128,-1,19
EndSplineSet
EndChar

StartChar: otilde
Encoding: 245 245 180
Width: 502
GlyphClass: 2
Flags: W
LayerCount: 2
Fore
SplineSet
96 42 m 128,-1,1
 42 100 42 100 42 200.5 c 128,-1,2
 42 301 42 301 99.5 366.5 c 128,-1,3
 157 432 157 432 253.5 432 c 128,-1,4
 350 432 350 432 405 373.5 c 128,-1,5
 460 315 460 315 460 215.5 c 128,-1,6
 460 116 460 116 402 50 c 128,-1,7
 344 -16 344 -16 247 -16 c 128,-1,0
 150 -16 150 -16 96 42 c 128,-1,1
131 219 m 0,8,9
 131 125 131 125 166 75 c 128,-1,10
 201 25 201 25 264 25 c 0,11,12
 370 25 370 25 370 197 c 0,13,14
 370 290 370 290 334.5 340.5 c 128,-1,15
 299 391 299 391 236 391 c 0,16,17
 131 391 131 391 131 219 c 0,8,9
190 565 m 128,-1,19
 166 565 166 565 132 523 c 1,20,-1
 105 539 l 1,21,22
 115 557 115 557 140.5 586 c 128,-1,23
 166 615 166 615 180 626 c 1,24,-1
 203 630 l 1,25,26
 215 628 215 628 260 608.5 c 128,-1,27
 305 589 305 589 328.5 589 c 128,-1,28
 352 589 352 589 387 632 c 1,29,-1
 414 615 l 1,30,31
 403 597 403 597 377.5 567 c 128,-1,32
 352 537 352 537 339 527 c 1,33,-1
 316 523 l 1,34,35
 304 525 304 525 259 545 c 128,-1,18
 214 565 214 565 190 565 c 128,-1,19
EndSplineSet
EndChar

StartChar: odieresis
Encoding: 246 246 181
Width: 502
GlyphClass: 2
Flags: W
LayerCount: 2
Fore
SplineSet
96 42 m 128,-1,1
 42 100 42 100 42 200.5 c 128,-1,2
 42 301 42 301 99.5 366.5 c 128,-1,3
 157 432 157 432 253.5 432 c 128,-1,4
 350 432 350 432 405 373.5 c 128,-1,5
 460 315 460 315 460 215.5 c 128,-1,6
 460 116 460 116 402 50 c 128,-1,7
 344 -16 344 -16 247 -16 c 128,-1,0
 150 -16 150 -16 96 42 c 128,-1,1
131 219 m 0,8,9
 131 125 131 125 166 75 c 128,-1,10
 201 25 201 25 264 25 c 0,11,12
 370 25 370 25 370 197 c 0,13,14
 370 290 370 290 334.5 340.5 c 128,-1,15
 299 391 299 391 236 391 c 0,16,17
 131 391 131 391 131 219 c 0,8,9
107 590 m 128,-1,19
 107 613 107 613 122.5 628 c 128,-1,20
 138 643 138 643 162.5 643 c 128,-1,21
 187 643 187 643 202.5 628 c 128,-1,22
 218 613 218 613 218 590 c 128,-1,23
 218 567 218 567 202.5 552.5 c 128,-1,24
 187 538 187 538 162.5 538 c 128,-1,25
 138 538 138 538 122.5 552.5 c 128,-1,18
 107 567 107 567 107 590 c 128,-1,19
299 590 m 128,-1,27
 299 613 299 613 314.5 628 c 128,-1,28
 330 643 330 643 354.5 643 c 128,-1,29
 379 643 379 643 394.5 628 c 128,-1,30
 410 613 410 613 410 590 c 128,-1,31
 410 567 410 567 394.5 552.5 c 128,-1,32
 379 538 379 538 354.5 538 c 128,-1,33
 330 538 330 538 314.5 552.5 c 128,-1,26
 299 567 299 567 299 590 c 128,-1,27
EndSplineSet
EndChar

StartChar: divide
Encoding: 247 247 182
Width: 460
GlyphClass: 2
Flags: W
LayerCount: 2
Fore
SplineSet
178 78 m 128,-1,1
 178 100 178 100 192 113.5 c 128,-1,2
 206 127 206 127 229 127 c 128,-1,3
 252 127 252 127 266.5 113 c 128,-1,4
 281 99 281 99 281 77.5 c 128,-1,5
 281 56 281 56 266.5 42.5 c 128,-1,6
 252 29 252 29 228.5 29 c 128,-1,7
 205 29 205 29 191.5 42.5 c 128,-1,0
 178 56 178 56 178 78 c 128,-1,1
178 353 m 128,-1,9
 178 375 178 375 191.5 388.5 c 128,-1,10
 205 402 205 402 228.5 402 c 128,-1,11
 252 402 252 402 266.5 388.5 c 128,-1,12
 281 375 281 375 281 353 c 128,-1,13
 281 331 281 331 266.5 317 c 128,-1,14
 252 303 252 303 228.5 303 c 128,-1,15
 205 303 205 303 191.5 317 c 128,-1,8
 178 331 178 331 178 353 c 128,-1,9
414 186 m 1,16,-1
 46 186 l 1,17,-1
 46 244 l 1,18,-1
 414 244 l 1,19,-1
 414 186 l 1,16,-1
EndSplineSet
EndChar

StartChar: oslash
Encoding: 248 248 183
Width: 502
GlyphClass: 2
Flags: W
LayerCount: 2
Fore
SplineSet
98 40 m 1,0,1
 42 98 42 98 42 199.5 c 128,-1,2
 42 301 42 301 99.5 366.5 c 128,-1,3
 157 432 157 432 250 432 c 0,4,5
 310 432 310 432 356 409 c 1,6,-1
 397 469 l 1,7,-1
 427 439 l 1,8,-1
 390 387 l 1,9,10
 460 329 460 329 460 222.5 c 128,-1,11
 460 116 460 116 402 50 c 128,-1,12
 344 -16 344 -16 251 -16 c 0,13,14
 181 -16 181 -16 130 14 c 1,15,-1
 92 -41 l 1,16,-1
 63 -11 l 1,17,-1
 98 40 l 1,0,1
370 197 m 0,18,19
 370 274 370 274 345 322 c 1,20,-1
 169 70 l 1,21,22
 203 25 203 25 264 25 c 0,23,24
 370 25 370 25 370 197 c 0,18,19
131 219 m 0,25,26
 131 152 131 152 147 110 c 1,27,-1
 320 358 l 1,28,29
 287 391 287 391 236 391 c 0,30,31
 131 391 131 391 131 219 c 0,25,26
EndSplineSet
EndChar

StartChar: ugrave
Encoding: 249 249 184
Width: 550
GlyphClass: 2
Flags: W
LayerCount: 2
Fore
SplineSet
453 85 m 2,0,1
 453 59 453 59 468 52.5 c 128,-1,2
 483 46 483 46 500 46 c 128,-1,3
 517 46 517 46 532 48 c 1,4,-1
 539 18 l 1,5,6
 470 4 470 4 422 -16 c 1,7,8
 375 18 375 18 375 57 c 1,9,-1
 339 30 l 1,10,11
 280 -16 280 -16 220 -16 c 0,12,13
 93 -16 93 -16 93 135 c 2,14,-1
 93 338 l 2,15,16
 93 370 93 370 76 373 c 0,17,18
 61 375 61 375 26 368 c 1,19,-1
 21 398 l 1,20,21
 80 423 80 423 166 432 c 1,22,-1
 180 414 l 1,23,24
 173 384 173 384 173 316 c 2,25,-1
 173 155 l 2,26,27
 173 98 173 98 194.5 71.5 c 128,-1,28
 216 45 216 45 263 45 c 128,-1,29
 310 45 310 45 372 92 c 1,30,-1
 372 338 l 2,31,32
 372 370 372 370 356 373 c 1,33,34
 338 375 338 375 299 368 c 1,35,-1
 293 398 l 1,36,37
 359 427 359 427 445 432 c 1,38,-1
 460 414 l 1,39,40
 453 384 453 384 453 316 c 2,41,-1
 453 85 l 2,0,1
169 676 m 1,42,43
 173 676 173 676 182 676 c 0,44,45
 227 676 227 676 254 670 c 1,46,47
 262 661 262 661 297 598.5 c 128,-1,48
 332 536 332 536 342 517 c 1,49,-1
 310 498 l 1,50,-1
 159 660 l 1,51,-1
 169 676 l 1,42,43
EndSplineSet
EndChar

StartChar: uacute
Encoding: 250 250 185
Width: 550
GlyphClass: 2
Flags: W
LayerCount: 2
Fore
SplineSet
453 85 m 2,0,1
 453 59 453 59 468 52.5 c 128,-1,2
 483 46 483 46 500 46 c 128,-1,3
 517 46 517 46 532 48 c 1,4,-1
 539 18 l 1,5,6
 470 4 470 4 422 -16 c 1,7,8
 375 18 375 18 375 57 c 1,9,-1
 339 30 l 1,10,11
 280 -16 280 -16 220 -16 c 0,12,13
 93 -16 93 -16 93 135 c 2,14,-1
 93 338 l 2,15,16
 93 370 93 370 76 373 c 0,17,18
 61 375 61 375 26 368 c 1,19,-1
 21 398 l 1,20,21
 80 423 80 423 166 432 c 1,22,-1
 180 414 l 1,23,24
 173 384 173 384 173 316 c 2,25,-1
 173 155 l 2,26,27
 173 98 173 98 194.5 71.5 c 128,-1,28
 216 45 216 45 263 45 c 128,-1,29
 310 45 310 45 372 92 c 1,30,-1
 372 338 l 2,31,32
 372 370 372 370 356 373 c 1,33,34
 338 375 338 375 299 368 c 1,35,-1
 293 398 l 1,36,37
 359 427 359 427 445 432 c 1,38,-1
 460 414 l 1,39,40
 453 384 453 384 453 316 c 2,41,-1
 453 85 l 2,0,1
286 670 m 1,42,43
 313 676 313 676 340 676 c 128,-1,44
 367 676 367 676 371 676 c 1,45,-1
 381 660 l 1,46,-1
 230 498 l 1,47,-1
 198 517 l 1,48,49
 208 536 208 536 243 598.5 c 128,-1,50
 278 661 278 661 286 670 c 1,42,43
EndSplineSet
EndChar

StartChar: ucircumflex
Encoding: 251 251 186
Width: 550
GlyphClass: 2
Flags: W
LayerCount: 2
Fore
SplineSet
453 85 m 2,0,1
 453 59 453 59 468 52.5 c 128,-1,2
 483 46 483 46 500 46 c 128,-1,3
 517 46 517 46 532 48 c 1,4,-1
 539 18 l 1,5,6
 470 4 470 4 422 -16 c 1,7,8
 375 18 375 18 375 57 c 1,9,-1
 339 30 l 1,10,11
 280 -16 280 -16 220 -16 c 0,12,13
 93 -16 93 -16 93 135 c 2,14,-1
 93 338 l 2,15,16
 93 370 93 370 76 373 c 0,17,18
 61 375 61 375 26 368 c 1,19,-1
 21 398 l 1,20,21
 80 423 80 423 166 432 c 1,22,-1
 180 414 l 1,23,24
 173 384 173 384 173 316 c 2,25,-1
 173 155 l 2,26,27
 173 98 173 98 194.5 71.5 c 128,-1,28
 216 45 216 45 263 45 c 128,-1,29
 310 45 310 45 372 92 c 1,30,-1
 372 338 l 2,31,32
 372 370 372 370 356 373 c 1,33,34
 338 375 338 375 299 368 c 1,35,-1
 293 398 l 1,36,37
 359 427 359 427 445 432 c 1,38,-1
 460 414 l 1,39,40
 453 384 453 384 453 316 c 2,41,-1
 453 85 l 2,0,1
270 676 m 128,-1,43
 295 676 295 676 311 674 c 1,44,45
 320 665 320 665 356 601.5 c 128,-1,46
 392 538 392 538 402 517 c 1,47,-1
 370 498 l 1,48,-1
 270 610 l 1,49,-1
 170 498 l 1,50,-1
 138 517 l 1,51,52
 148 538 148 538 184 601.5 c 128,-1,53
 220 665 220 665 229 674 c 1,54,42
 245 676 245 676 270 676 c 128,-1,43
EndSplineSet
EndChar

StartChar: udieresis
Encoding: 252 252 187
Width: 550
GlyphClass: 2
Flags: W
LayerCount: 2
Fore
SplineSet
453 85 m 2,0,1
 453 59 453 59 468 52.5 c 128,-1,2
 483 46 483 46 500 46 c 128,-1,3
 517 46 517 46 532 48 c 1,4,-1
 539 18 l 1,5,6
 470 4 470 4 422 -16 c 1,7,8
 375 18 375 18 375 57 c 1,9,-1
 339 30 l 1,10,11
 280 -16 280 -16 220 -16 c 0,12,13
 93 -16 93 -16 93 135 c 2,14,-1
 93 338 l 2,15,16
 93 370 93 370 76 373 c 0,17,18
 61 375 61 375 26 368 c 1,19,-1
 21 398 l 1,20,21
 80 423 80 423 166 432 c 1,22,-1
 180 414 l 1,23,24
 173 384 173 384 173 316 c 2,25,-1
 173 155 l 2,26,27
 173 98 173 98 194.5 71.5 c 128,-1,28
 216 45 216 45 263 45 c 128,-1,29
 310 45 310 45 372 92 c 1,30,-1
 372 338 l 2,31,32
 372 370 372 370 356 373 c 1,33,34
 338 375 338 375 299 368 c 1,35,-1
 293 398 l 1,36,37
 359 427 359 427 445 432 c 1,38,-1
 460 414 l 1,39,40
 453 384 453 384 453 316 c 2,41,-1
 453 85 l 2,0,1
118 591 m 128,-1,43
 118 614 118 614 133.5 629 c 128,-1,44
 149 644 149 644 173.5 644 c 128,-1,45
 198 644 198 644 213.5 629 c 128,-1,46
 229 614 229 614 229 591 c 128,-1,47
 229 568 229 568 213.5 553.5 c 128,-1,48
 198 539 198 539 173.5 539 c 128,-1,49
 149 539 149 539 133.5 553.5 c 128,-1,42
 118 568 118 568 118 591 c 128,-1,43
310 591 m 128,-1,51
 310 614 310 614 325.5 629 c 128,-1,52
 341 644 341 644 365.5 644 c 128,-1,53
 390 644 390 644 405.5 629 c 128,-1,54
 421 614 421 614 421 591 c 128,-1,55
 421 568 421 568 405.5 553.5 c 128,-1,56
 390 539 390 539 365.5 539 c 128,-1,57
 341 539 341 539 325.5 553.5 c 128,-1,50
 310 568 310 568 310 591 c 128,-1,51
EndSplineSet
EndChar

StartChar: yacute
Encoding: 253 253 188
Width: 466
GlyphClass: 2
Flags: W
LayerCount: 2
Fore
SplineSet
65 -244 m 2,0,-1
 53 -244 l 1,1,2
 30 -206 30 -206 21 -147 c 1,3,-1
 39 -138 l 1,4,5
 67 -151 67 -151 90 -151 c 0,6,7
 138 -151 138 -151 165 -93 c 2,8,-1
 207 -1 l 1,9,-1
 47 353 l 2,10,11
 35 378 35 378 28 384.5 c 128,-1,12
 21 391 21 391 -1 392 c 1,13,-1
 -7 423 l 1,14,15
 57 416 57 416 92.5 416 c 128,-1,16
 128 416 128 416 192 423 c 1,17,-1
 190 394 l 1,18,19
 158 389 158 389 144 384.5 c 128,-1,20
 130 380 130 380 130 367 c 0,21,22
 130 361 130 361 133 353 c 2,23,-1
 238 113 l 1,24,-1
 243 88 l 1,25,-1
 249 88 l 1,26,-1
 256 118 l 1,27,-1
 350 352 l 2,28,29
 354 360 354 360 354 366 c 0,30,31
 354 379 354 379 338 384 c 1,32,-1
 293 393 l 1,33,-1
 291 422 l 1,34,35
 341 416 341 416 375 416 c 128,-1,36
 409 416 409 416 459 422 c 1,37,-1
 452 391 l 1,38,39
 430 390 430 390 423 383.5 c 128,-1,40
 416 377 416 377 406 352 c 2,41,-1
 195 -139 l 2,42,43
 150 -244 150 -244 65 -244 c 2,0,-1
257 670 m 1,44,45
 284 676 284 676 311 676 c 128,-1,46
 338 676 338 676 342 676 c 1,47,-1
 352 660 l 1,48,-1
 201 498 l 1,49,-1
 169 517 l 1,50,51
 179 536 179 536 214 598.5 c 128,-1,52
 249 661 249 661 257 670 c 1,44,45
EndSplineSet
EndChar

StartChar: thorn
Encoding: 254 254 189
Width: 517
GlyphClass: 2
Flags: W
LayerCount: 2
Fore
SplineSet
163 375 m 1,0,1
 248 432 248 432 308 432 c 0,2,3
 391 432 391 432 433 376 c 128,-1,4
 475 320 475 320 475 220 c 128,-1,5
 475 120 475 120 414.5 52 c 128,-1,6
 354 -16 354 -16 261 -16 c 0,7,8
 215 -16 215 -16 163 2 c 1,9,-1
 163 -178 l 2,10,11
 163 -200 163 -200 184 -207 c 1,12,-1
 256 -220 l 1,13,-1
 248 -253 l 1,14,15
 169 -244 169 -244 133.5 -244 c 128,-1,16
 98 -244 98 -244 24 -253 c 1,17,-1
 16 -223 l 1,18,19
 74 -211 74 -211 80 -197 c 0,20,21
 83 -192 83 -192 83 -179 c 2,22,-1
 83 622 l 2,23,24
 83 640 83 640 78 648 c 128,-1,25
 73 656 73 656 58 656 c 1,26,-1
 16 650 l 1,27,-1
 10 680 l 1,28,29
 82 712 82 712 156 718 c 1,30,-1
 171 700 l 1,31,32
 163 670 163 670 163 602 c 2,33,-1
 163 375 l 1,0,1
267 373 m 0,34,35
 241 373 241 373 215 363.5 c 128,-1,36
 189 354 189 354 163 336 c 1,37,-1
 163 107 l 2,38,39
 163 70 163 70 191.5 47.5 c 128,-1,40
 220 25 220 25 269 25 c 128,-1,41
 318 25 318 25 352 69 c 128,-1,42
 386 113 386 113 386 201 c 0,43,44
 386 373 386 373 267 373 c 0,34,35
EndSplineSet
EndChar

StartChar: ydieresis
Encoding: 255 255 190
Width: 466
GlyphClass: 2
Flags: W
LayerCount: 2
Fore
SplineSet
65 -244 m 2,0,-1
 53 -244 l 1,1,2
 30 -206 30 -206 21 -147 c 1,3,-1
 39 -138 l 1,4,5
 67 -151 67 -151 90 -151 c 0,6,7
 138 -151 138 -151 165 -93 c 2,8,-1
 207 -1 l 1,9,-1
 47 353 l 2,10,11
 35 378 35 378 28 384.5 c 128,-1,12
 21 391 21 391 -1 392 c 1,13,-1
 -7 423 l 1,14,15
 57 416 57 416 92.5 416 c 128,-1,16
 128 416 128 416 192 423 c 1,17,-1
 190 394 l 1,18,19
 158 389 158 389 144 384.5 c 128,-1,20
 130 380 130 380 130 367 c 0,21,22
 130 361 130 361 133 353 c 2,23,-1
 238 113 l 1,24,-1
 243 88 l 1,25,-1
 249 88 l 1,26,-1
 256 118 l 1,27,-1
 350 352 l 2,28,29
 354 360 354 360 354 366 c 0,30,31
 354 379 354 379 338 384 c 1,32,-1
 293 393 l 1,33,-1
 291 422 l 1,34,35
 341 416 341 416 375 416 c 128,-1,36
 409 416 409 416 459 422 c 1,37,-1
 452 391 l 1,38,39
 430 390 430 390 423 383.5 c 128,-1,40
 416 377 416 377 406 352 c 2,41,-1
 195 -139 l 2,42,43
 150 -244 150 -244 65 -244 c 2,0,-1
89 591 m 128,-1,45
 89 614 89 614 104.5 629 c 128,-1,46
 120 644 120 644 144.5 644 c 128,-1,47
 169 644 169 644 184.5 629 c 128,-1,48
 200 614 200 614 200 591 c 128,-1,49
 200 568 200 568 184.5 553.5 c 128,-1,50
 169 539 169 539 144.5 539 c 128,-1,51
 120 539 120 539 104.5 553.5 c 128,-1,44
 89 568 89 568 89 591 c 128,-1,45
281 591 m 128,-1,53
 281 614 281 614 296.5 629 c 128,-1,54
 312 644 312 644 336.5 644 c 128,-1,55
 361 644 361 644 376.5 629 c 128,-1,56
 392 614 392 614 392 591 c 128,-1,57
 392 568 392 568 376.5 553.5 c 128,-1,58
 361 539 361 539 336.5 539 c 128,-1,59
 312 539 312 539 296.5 553.5 c 128,-1,52
 281 568 281 568 281 591 c 128,-1,53
EndSplineSet
EndChar

StartChar: itilde
Encoding: 297 297 191
Width: 284
GlyphClass: 2
Flags: W
LayerCount: 2
Fore
SplineSet
187 66 m 2,0,1
 187 53 187 53 189.5 48 c 128,-1,2
 192 43 192 43 202 38 c 0,3,4
 221 28 221 28 260 22 c 1,5,-1
 253 -8 l 1,6,7
 186 0 186 0 147 0 c 128,-1,8
 108 0 108 0 42 -8 c 1,9,-1
 34 22 l 1,10,11
 96 32 96 32 104 48 c 0,12,13
 107 53 107 53 107 66 c 2,14,-1
 107 341 l 2,15,16
 107 370 107 370 90 373 c 0,17,18
 75 375 75 375 43 369 c 1,19,-1
 37 399 l 1,20,21
 67 411 67 411 112 421.5 c 128,-1,22
 157 432 157 432 183 432 c 1,23,-1
 198 414 l 1,24,25
 187 372 187 372 187 316 c 2,26,-1
 187 66 l 2,0,1
71 566 m 128,-1,28
 47 566 47 566 13 524 c 1,29,-1
 -14 540 l 1,30,31
 -4 558 -4 558 21.5 587 c 128,-1,32
 47 616 47 616 61 627 c 1,33,-1
 84 631 l 1,34,35
 96 629 96 629 141 609.5 c 128,-1,36
 186 590 186 590 209.5 590 c 128,-1,37
 233 590 233 590 268 633 c 1,38,-1
 295 616 l 1,39,40
 284 598 284 598 258.5 568 c 128,-1,41
 233 538 233 538 220 528 c 1,42,-1
 197 524 l 1,43,44
 185 526 185 526 140 546 c 128,-1,27
 95 566 95 566 71 566 c 128,-1,28
EndSplineSet
EndChar

StartChar: dotlessi
Encoding: 305 305 192
Width: 284
GlyphClass: 2
Flags: W
LayerCount: 2
Fore
SplineSet
187 66 m 2,0,1
 187 53 187 53 189.5 48 c 128,-1,2
 192 43 192 43 202 38 c 0,3,4
 221 28 221 28 260 22 c 1,5,-1
 253 -8 l 1,6,7
 186 0 186 0 147 0 c 128,-1,8
 108 0 108 0 42 -8 c 1,9,-1
 34 22 l 1,10,11
 96 32 96 32 104 48 c 0,12,13
 107 53 107 53 107 66 c 2,14,-1
 107 341 l 2,15,16
 107 370 107 370 90 373 c 0,17,18
 75 375 75 375 43 369 c 1,19,-1
 37 399 l 1,20,21
 67 411 67 411 112 421.5 c 128,-1,22
 157 432 157 432 183 432 c 1,23,-1
 198 414 l 1,24,25
 187 372 187 372 187 316 c 2,26,-1
 187 66 l 2,0,1
EndSplineSet
EndChar

StartChar: ij
Encoding: 307 307 193
Width: 533
GlyphClass: 2
Flags: W
LayerCount: 2
Fore
SplineSet
187 66 m 2,0,1
 187 53 187 53 189.5 48 c 128,-1,2
 192 43 192 43 202 38 c 0,3,4
 221 28 221 28 260 22 c 1,5,-1
 253 -8 l 1,6,7
 186 0 186 0 147 0 c 128,-1,8
 108 0 108 0 42 -8 c 1,9,-1
 34 22 l 1,10,11
 96 32 96 32 104 48 c 0,12,13
 107 53 107 53 107 66 c 2,14,-1
 107 341 l 2,15,16
 107 370 107 370 90 373 c 0,17,18
 75 375 75 375 43 369 c 1,19,-1
 37 399 l 1,20,21
 67 411 67 411 112 421.5 c 128,-1,22
 157 432 157 432 183 432 c 1,23,-1
 198 414 l 1,24,25
 187 372 187 372 187 316 c 2,26,-1
 187 66 l 2,0,1
379 -28 m 2,27,-1
 379 341 l 2,28,29
 379 370 379 370 362 373 c 0,30,31
 348 375 348 375 314 369 c 1,32,-1
 309 399 l 1,33,34
 339 411 339 411 383.5 421.5 c 128,-1,35
 428 432 428 432 455 432 c 1,36,-1
 469 414 l 1,37,38
 459 369 459 369 459 316 c 2,39,-1
 459 2 l 2,40,41
 459 -69 459 -69 446 -96 c 0,42,43
 411 -171 411 -171 319 -260 c 1,44,-1
 298 -239 l 1,45,46
 350 -175 350 -175 372 -103 c 1,47,48
 379 -75 379 -75 379 -28 c 2,27,-1
EndSplineSet
EndChar

StartChar: jcircumflex
Encoding: 309 309 194
Width: 249
GlyphClass: 2
Flags: W
LayerCount: 2
Fore
SplineSet
95 -28 m 2,0,-1
 95 341 l 2,1,2
 95 370 95 370 78 373 c 0,3,4
 64 375 64 375 30 369 c 1,5,-1
 25 399 l 1,6,7
 55 411 55 411 99.5 421.5 c 128,-1,8
 144 432 144 432 171 432 c 1,9,-1
 185 414 l 1,10,11
 175 369 175 369 175 316 c 2,12,-1
 175 2 l 2,13,14
 175 -69 175 -69 162 -96 c 0,15,16
 127 -171 127 -171 35 -260 c 1,17,-1
 14 -239 l 1,18,19
 66 -175 66 -175 88 -103 c 1,20,21
 95 -75 95 -75 95 -28 c 2,0,-1
124 676 m 128,-1,23
 149 676 149 676 165 674 c 1,24,25
 174 665 174 665 210 601.5 c 128,-1,26
 246 538 246 538 256 517 c 1,27,-1
 224 498 l 1,28,-1
 124 610 l 1,29,-1
 24 498 l 1,30,-1
 -8 517 l 1,31,32
 2 538 2 538 38 601.5 c 128,-1,33
 74 665 74 665 83 674 c 1,34,22
 99 676 99 676 124 676 c 128,-1,23
EndSplineSet
EndChar

StartChar: Nacute
Encoding: 323 323 195
Width: 764
GlyphClass: 2
Flags: W
LayerCount: 2
Fore
SplineSet
191 77 m 2,0,1
 191 62 191 62 195 54 c 128,-1,2
 199 46 199 46 213 42 c 1,3,-1
 296 28 l 1,4,-1
 289 -8 l 1,5,6
 219 0 219 0 175 0 c 128,-1,7
 131 0 131 0 57 -8 c 1,8,-1
 50 25 l 1,9,10
 90 30 90 30 107.5 37.5 c 128,-1,11
 125 45 125 45 125 69 c 2,12,-1
 125 583 l 2,13,14
 125 607 125 607 109 613 c 1,15,16
 95 620 95 620 50 626 c 1,17,-1
 57 659 l 1,18,19
 104 650 104 650 152 650 c 128,-1,20
 200 650 200 650 241 659 c 1,21,22
 262 619 262 619 303 563 c 2,23,-1
 554 216 l 2,24,25
 571 191 571 191 586 145 c 1,26,-1
 591 149 l 1,27,-1
 591 580 l 2,28,29
 591 603 591 603 574 610 c 1,30,31
 558 618 558 618 507 624 c 1,32,-1
 514 659 l 1,33,34
 590 650 590 650 620.5 650 c 128,-1,35
 651 650 651 650 725 659 c 1,36,-1
 732 626 l 1,37,38
 693 621 693 621 675 613.5 c 128,-1,39
 657 606 657 606 657 583 c 2,40,-1
 657 193 l 2,41,42
 657 113 657 113 665 1 c 1,43,-1
 590 -14 l 1,44,45
 555 70 555 70 475 178 c 2,46,-1
 232 507 l 2,47,48
 215 531 215 531 196 572 c 1,49,-1
 191 568 l 1,50,-1
 191 77 l 2,0,1
518 817 m 1,51,-1
 524 799 l 1,52,-1
 336 681 l 1,53,-1
 310 708 l 1,54,55
 321 721 321 721 372 773.5 c 128,-1,56
 423 826 423 826 434 833 c 1,57,58
 447 833 447 833 476.5 827.5 c 128,-1,59
 506 822 506 822 518 817 c 1,51,-1
EndSplineSet
EndChar

StartChar: nacute
Encoding: 324 324 196
Width: 567
GlyphClass: 2
Flags: W
LayerCount: 2
Fore
SplineSet
187 64 m 2,0,1
 187 51 187 51 189.5 46.5 c 128,-1,2
 192 42 192 42 202 37 c 0,3,4
 221 27 221 27 256 21 c 1,5,-1
 249 -8 l 1,6,7
 167 0 167 0 145.5 0 c 128,-1,8
 124 0 124 0 42 -8 c 1,9,-1
 34 22 l 1,10,11
 96 32 96 32 104 48 c 0,12,13
 107 53 107 53 107 66 c 2,14,-1
 107 336 l 2,15,16
 107 366 107 366 90 369 c 0,17,18
 73 371 73 371 35 364 c 1,19,-1
 30 394 l 1,20,21
 101 425 101 425 160 432 c 1,22,-1
 176 414 l 1,23,24
 176 388 176 388 186 358 c 1,25,-1
 224 387 l 1,26,27
 281 432 281 432 344 432 c 128,-1,28
 407 432 407 432 440.5 397 c 128,-1,29
 474 362 474 362 474 281 c 2,30,-1
 474 66 l 2,31,32
 474 53 474 53 476.5 48 c 128,-1,33
 479 43 479 43 488 38 c 0,34,35
 502 31 502 31 547 22 c 1,36,-1
 540 -8 l 1,37,38
 458 0 458 0 436.5 0 c 128,-1,39
 415 0 415 0 333 -8 c 1,40,-1
 326 21 l 1,41,42
 384 31 384 31 392 47 c 0,43,44
 394 52 394 52 394 64 c 2,45,-1
 394 261 l 2,46,47
 394 319 394 319 373.5 345 c 128,-1,48
 353 371 353 371 302 371 c 128,-1,49
 251 371 251 371 187 321 c 1,50,-1
 187 64 l 2,0,1
304 670 m 1,51,52
 331 676 331 676 358 676 c 128,-1,53
 385 676 385 676 389 676 c 1,54,-1
 399 660 l 1,55,-1
 248 498 l 1,56,-1
 216 517 l 1,57,58
 226 536 226 536 261 598.5 c 128,-1,59
 296 661 296 661 304 670 c 1,51,52
EndSplineSet
EndChar

StartChar: OE
Encoding: 338 338 197
Width: 954
GlyphClass: 2
Flags: W
LayerCount: 2
Fore
SplineSet
371 666 m 0,0,1
 412 666 412 666 443 659 c 1,2,3
 519 650 519 650 556 650 c 2,4,-1
 792 650 l 2,5,6
 838 650 838 650 874 656 c 1,7,-1
 874 501 l 1,8,-1
 837 495 l 1,9,10
 823 580 823 580 805 603 c 1,11,-1
 600 603 l 1,12,-1
 600 360 l 1,13,-1
 735 360 l 2,14,15
 763 360 763 360 768 375 c 1,16,17
 774 389 774 389 780 434 c 1,18,-1
 818 430 l 1,19,20
 810 380 810 380 810 336 c 128,-1,21
 810 292 810 292 818 242 c 1,22,-1
 780 238 l 1,23,24
 775 281 775 281 768.5 296.5 c 128,-1,25
 762 312 762 312 735 312 c 2,26,-1
 600 312 l 1,27,-1
 600 48 l 1,28,-1
 815 48 l 1,29,30
 828 60 828 60 845.5 103.5 c 128,-1,31
 863 147 863 147 870 173 c 1,32,-1
 906 167 l 1,33,34
 905 139 905 139 898 79.5 c 128,-1,35
 891 20 891 20 885 0 c 1,36,-1
 556 0 l 2,37,38
 510 0 510 0 443 -8 c 1,39,40
 411 -16 411 -16 376 -16 c 0,41,42
 230 -16 230 -16 144 71 c 128,-1,43
 58 158 58 158 58 311.5 c 128,-1,44
 58 465 58 465 143 565.5 c 128,-1,45
 228 666 228 666 371 666 c 0,0,1
385 32 m 0,46,47
 461 32 461 32 511 74 c 1,48,-1
 511 557 l 1,49,50
 452 618 452 618 356 618 c 128,-1,51
 260 618 260 618 209.5 542 c 128,-1,52
 159 466 159 466 159 339 c 128,-1,53
 159 212 159 212 216.5 122 c 128,-1,54
 274 32 274 32 385 32 c 0,46,47
EndSplineSet
EndChar

StartChar: oe
Encoding: 339 339 198
Width: 756
GlyphClass: 2
Flags: W
LayerCount: 2
Fore
SplineSet
584 47 m 0,0,1
 643 47 643 47 701 90 c 1,2,-1
 717 68 l 1,3,4
 628 -16 628 -16 551 -16 c 0,5,6
 447 -16 447 -16 395 66 c 1,7,8
 340 -16 340 -16 243.5 -16 c 128,-1,9
 147 -16 147 -16 94.5 42 c 128,-1,10
 42 100 42 100 42 200.5 c 128,-1,11
 42 301 42 301 98 366.5 c 128,-1,12
 154 432 154 432 245 432 c 0,13,14
 354 432 354 432 403 351 c 1,15,16
 458 432 458 432 546 432 c 128,-1,17
 634 432 634 432 676.5 377.5 c 128,-1,18
 719 323 719 323 719 230 c 1,19,-1
 443 210 l 1,20,21
 451 47 451 47 584 47 c 0,0,1
131 219 m 0,22,23
 131 125 131 125 164.5 75 c 128,-1,24
 198 25 198 25 259 25 c 0,25,26
 357 25 357 25 360 190 c 1,27,-1
 360 200 l 1,28,29
 359 292 359 292 325 341.5 c 128,-1,30
 291 391 291 391 231 391 c 0,31,32
 131 391 131 391 131 219 c 0,22,23
608.5 356.5 m 128,-1,34
 588 391 588 391 540.5 391 c 128,-1,35
 493 391 493 391 468 348 c 128,-1,36
 443 305 443 305 443 246 c 1,37,-1
 629 270 l 1,38,33
 629 322 629 322 608.5 356.5 c 128,-1,34
EndSplineSet
EndChar

StartChar: ycircumflex
Encoding: 375 375 199
Width: 466
GlyphClass: 2
Flags: W
LayerCount: 2
Fore
SplineSet
65 -244 m 2,0,-1
 53 -244 l 1,1,2
 30 -206 30 -206 21 -147 c 1,3,-1
 39 -138 l 1,4,5
 67 -151 67 -151 90 -151 c 0,6,7
 138 -151 138 -151 165 -93 c 2,8,-1
 207 -1 l 1,9,-1
 47 353 l 2,10,11
 35 378 35 378 28 384.5 c 128,-1,12
 21 391 21 391 -1 392 c 1,13,-1
 -7 423 l 1,14,15
 57 416 57 416 92.5 416 c 128,-1,16
 128 416 128 416 192 423 c 1,17,-1
 190 394 l 1,18,19
 158 389 158 389 144 384.5 c 128,-1,20
 130 380 130 380 130 367 c 0,21,22
 130 361 130 361 133 353 c 2,23,-1
 238 113 l 1,24,-1
 243 88 l 1,25,-1
 249 88 l 1,26,-1
 256 118 l 1,27,-1
 350 352 l 2,28,29
 354 360 354 360 354 366 c 0,30,31
 354 379 354 379 338 384 c 1,32,-1
 293 393 l 1,33,-1
 291 422 l 1,34,35
 341 416 341 416 375 416 c 128,-1,36
 409 416 409 416 459 422 c 1,37,-1
 452 391 l 1,38,39
 430 390 430 390 423 383.5 c 128,-1,40
 416 377 416 377 406 352 c 2,41,-1
 195 -139 l 2,42,43
 150 -244 150 -244 65 -244 c 2,0,-1
241 676 m 128,-1,45
 266 676 266 676 282 674 c 1,46,47
 291 665 291 665 327 601.5 c 128,-1,48
 363 538 363 538 373 517 c 1,49,-1
 341 498 l 1,50,-1
 241 610 l 1,51,-1
 141 498 l 1,52,-1
 109 517 l 1,53,54
 119 538 119 538 155 601.5 c 128,-1,55
 191 665 191 665 200 674 c 1,56,44
 216 676 216 676 241 676 c 128,-1,45
EndSplineSet
EndChar

StartChar: dotlessj
Encoding: 567 567 200
Width: 249
GlyphClass: 2
Flags: W
LayerCount: 2
Fore
SplineSet
95 -28 m 2,0,-1
 95 341 l 2,1,2
 95 370 95 370 78 373 c 0,3,4
 64 375 64 375 30 369 c 1,5,-1
 25 399 l 1,6,7
 55 411 55 411 99.5 421.5 c 128,-1,8
 144 432 144 432 171 432 c 1,9,-1
 185 414 l 1,10,11
 175 369 175 369 175 316 c 2,12,-1
 175 2 l 2,13,14
 175 -69 175 -69 162 -96 c 0,15,16
 127 -171 127 -171 35 -260 c 1,17,-1
 14 -239 l 1,18,19
 66 -175 66 -175 88 -103 c 1,20,21
 95 -75 95 -75 95 -28 c 2,0,-1
EndSplineSet
EndChar

StartChar: circumflex
Encoding: 710 710 201
Width: 322
GlyphClass: 2
Flags: W
LayerCount: 2
Fore
SplineSet
161 676 m 128,-1,1
 186 676 186 676 202 674 c 1,2,3
 211 665 211 665 247 601.5 c 128,-1,4
 283 538 283 538 293 517 c 1,5,-1
 261 498 l 1,6,-1
 161 610 l 1,7,-1
 61 498 l 1,8,-1
 29 517 l 1,9,10
 39 538 39 538 75 601.5 c 128,-1,11
 111 665 111 665 120 674 c 1,12,0
 136 676 136 676 161 676 c 128,-1,1
EndSplineSet
EndChar

